<?xml version="1.0" encoding="utf-8"?>
<!-- Generator: Adobe Illustrator 22.0.0, SVG Export Plug-In . SVG Version: 6.00 Build 0)  -->
<svg version="1.1" id="Layer_1" xmlns="http://www.w3.org/2000/svg" xmlns:xlink="http://www.w3.org/1999/xlink" x="0px" y="0px"
	 viewBox="0 0 500 500" style="enable-background:new 0 0 500 500;" xml:space="preserve">
<style type="text/css">
	.st0{fill:#FDDF7F;}
	.st1{fill:#ECF4F7;}
	.st2{fill:#83E1E5;}
	.st3{fill:#1C1D21;}
	.st4{fill:#AAB1BA;}
</style>
<g>
	<path class="st2" d="M431.504,386.13c-15.867-16.604-43.901-28.407-76.726-30.925c1.259,2.901,1.961,6.099,1.961,9.463v3.416
		c0,13.143-10.654,23.797-23.797,23.797h-69.207h-0.04h-27.39h-0.04h-69.208c-13.142,0-23.797-10.654-23.797-23.797v-3.416
		c0-3.364,0.702-6.563,1.961-9.463c-32.825,2.518-60.859,14.32-76.726,30.925c13.592,14.223,36.11,24.922,62.92,29.283
		c0-0.001,0.001-0.002,0.002-0.003c-13.889,14.57-17.33,31.791-10.329,47.679c26.806,4.332,55.909,2.063,80.293-6.812
		c7.022,16.507,24.835,30.388,48.618,38.723c23.783-8.335,41.595-22.216,48.617-38.723c24.384,8.875,53.487,11.144,80.293,6.812
		c7-15.887,3.56-33.107-10.326-47.676C395.393,411.052,417.913,400.353,431.504,386.13z"/>
</g>
<g>
	<circle class="st0" cx="250" cy="190.528" r="42.169"/>
</g>
<g>
	<path class="st1" d="M302.667,104.823L250,52.179v0l0,0l0,0v0l-52.667,52.643c-10.068,10.064-15.725,23.716-15.725,37.951v80.525
		c0,18.025,3.61,35.868,10.616,52.476h0c7.006,16.608,10.616,34.451,10.616,52.476v12.62h94.32v-12.62
		c0-18.025,3.609-35.868,10.616-52.476h0c7.006-16.608,10.616-34.451,10.616-52.476v-80.525
		C318.392,128.539,312.735,114.887,302.667,104.823z M250,232.697c-23.289,0-42.169-18.88-42.169-42.169c0-0.001,0-0.003,0-0.004
		v-41.322c0-10.718,3.209-21.19,9.215-30.067L250,70.423l32.954,48.712c6.005,8.877,9.215,19.349,9.215,30.067v41.308
		c0,0.006,0,0.012,0,0.019C292.169,213.817,273.289,232.697,250,232.697z"/>
</g>
<g>
	<path class="st0" d="M302.667,104.823L250,52.179v0l0,0l0,0v0l-52.667,52.643l19.713,14.312L250,70.423l32.954,48.712
		L302.667,104.823z"/>
</g>
<g>
	<path class="st4" d="M332.942,391.881H167.058c-13.143,0-23.797-10.654-23.797-23.797v-3.416c0-13.143,10.654-23.797,23.797-23.797
		h165.884c13.143,0,23.797,10.654,23.797,23.797v3.416C356.739,381.227,346.085,391.881,332.942,391.881z"/>
</g>
<g>
	<rect x="219.352" y="340.871" class="st0" width="61.296" height="51.009"/>
</g>
<path class="st3" d="M140.881,292.353c0-2.761,2.238-5,5-5h5.975v-5.975c0-2.761,2.238-5,5-5s5,2.239,5,5v5.975h5.975
	c2.762,0,5,2.239,5,5s-2.238,5-5,5h-5.975v5.974c0,2.761-2.238,5-5,5s-5-2.239-5-5v-5.974h-5.975
	C143.119,297.353,140.881,295.114,140.881,292.353z M332.17,297.353h5.975v5.974c0,2.761,2.238,5,5,5s5-2.239,5-5v-5.974h5.975
	c2.762,0,5-2.239,5-5s-2.238-5-5-5h-5.975v-5.975c0-2.761-2.238-5-5-5s-5,2.239-5,5v5.975h-5.975c-2.762,0-5,2.239-5,5
	S329.408,297.353,332.17,297.353z M138.261,368.084v-3.416c0-15.879,12.918-28.797,28.797-28.797h165.885
	c15.879,0,28.797,12.918,28.797,28.797v3.416c0,15.878-12.918,28.797-28.797,28.797H167.058
	C151.179,396.881,138.261,383.963,138.261,368.084z M332.942,345.871h-47.295v31.807c0,2.761-2.238,5-5,5s-5-2.239-5-5v-6.302
	h-51.295v15.505h108.59c10.364,0,18.797-8.432,18.797-18.797v-3.416C351.739,354.304,343.307,345.871,332.942,345.871z
	 M148.261,368.084c0,10.365,8.433,18.797,18.797,18.797h47.295v-32.184c0-2.761,2.238-5,5-5s5,2.239,5,5v6.68h51.295v-15.505
	h-108.59c-10.364,0-18.797,8.432-18.797,18.797V368.084z M435.119,382.675c-13.562-14.192-34.98-24.766-60.313-29.774
	c-2.703-0.535-5.339,1.226-5.875,3.935c-0.535,2.709,1.227,5.339,3.936,5.875c21.164,4.184,39.21,12.427,51.45,23.415
	c-12.733,11.395-32.025,19.944-54.034,23.907c-1.243-1.209-2.546-2.399-3.909-3.554l-0.086-0.071
	c-0.664-0.562-1.344-1.118-2.052-1.679l-0.267-0.206c-0.641-0.502-1.289-1.001-1.958-1.497l-0.59-0.424
	c-0.576-0.42-1.154-0.839-1.748-1.249c-0.263-0.182-0.533-0.362-0.804-0.542l-0.668-0.448c-0.325-0.22-0.649-0.439-0.988-0.658
	c-0.839-0.543-1.695-1.08-2.569-1.61c-2.363-1.432-5.436-0.677-6.867,1.684c-1.432,2.361-0.678,5.436,1.684,6.868
	c0.79,0.479,1.563,0.964,2.316,1.452c0.279,0.181,0.551,0.365,0.822,0.549l0.74,0.496c0.215,0.143,0.43,0.285,0.642,0.431
	c0.53,0.367,1.044,0.741,1.561,1.117l0.522,0.374c0.591,0.438,1.165,0.88,1.727,1.321l0.25,0.192
	c0.612,0.485,1.208,0.974,1.793,1.468l0.08,0.066c1.808,1.532,3.507,3.131,5.051,4.75c11.618,12.189,15.245,26.196,10.37,39.714
	c-23.741,3.397-48.938,1.443-70.331-5.406c2.258-7.896,2.337-16.488,0.161-24.703c-2.469-9.321-7.875-17.894-15.223-24.14
	c-2.103-1.788-5.258-1.534-7.048,0.571c-1.788,2.104-1.533,5.26,0.571,7.048c5.808,4.938,10.081,11.715,12.033,19.083
	c2.086,7.869,1.559,16.141-1.482,23.291c-6.186,14.539-22.18,27.369-44.017,35.369c-8.228-3.012-15.661-6.711-22.116-11.007
	c-8.363-5.566-14.759-11.888-19.01-18.792c-5.418-8.8-7.025-18.8-4.526-28.158c1.958-7.333,6.221-14.272,12.327-20.066
	c2.003-1.901,2.086-5.065,0.186-7.069c-1.901-2.003-5.065-2.087-7.068-0.185c-7.447,7.067-12.671,15.622-15.106,24.74
	c-2.111,7.906-1.952,16.129,0.343,24.007c-21.4,6.859-46.614,8.816-70.364,5.417c-4.876-13.519-1.247-27.527,10.372-39.716
	c1.547-1.623,3.245-3.22,5.047-4.746c0.021-0.018,0.066-0.054,0.088-0.072c0.582-0.492,1.177-0.98,1.845-1.508l0.187-0.144
	c0.566-0.445,1.141-0.887,1.729-1.323l0.527-0.379c0.514-0.373,1.027-0.747,1.561-1.116c0.209-0.145,0.424-0.287,0.639-0.429
	l0.74-0.496c0.271-0.184,0.543-0.367,0.817-0.546c0.758-0.49,1.53-0.975,2.32-1.453c2.362-1.43,3.117-4.505,1.688-6.867
	c-1.431-2.362-4.504-3.116-6.867-1.687c-0.876,0.531-1.732,1.068-2.577,1.614c-0.334,0.217-0.658,0.436-0.983,0.656l-0.668,0.448
	c-0.271,0.18-0.541,0.359-0.801,0.54c-0.597,0.413-1.175,0.832-1.748,1.249l-0.595,0.428c-0.667,0.494-1.315,0.993-2.031,1.553
	l-0.204,0.157c-0.694,0.55-1.371,1.105-1.99,1.629c-0.023,0.019-0.117,0.096-0.14,0.116c-1.357,1.149-2.659,2.339-3.904,3.549
	c-22.009-3.963-41.302-12.513-54.035-23.907c12.474-11.207,30.914-19.532,52.563-23.643c2.713-0.515,4.495-3.132,3.979-5.845
	c-0.515-2.713-3.14-4.493-5.845-3.98c-25.852,4.909-47.691,15.569-61.498,30.017c-1.847,1.933-1.847,4.976,0,6.909
	c13.132,13.742,33.271,23.93,57.292,29.146c-10.357,14.395-12.474,30.911-5.659,46.375c0.683,1.551,2.104,2.649,3.777,2.92
	c9.031,1.459,18.295,2.178,27.538,2.178c17.705,0,35.315-2.646,50.995-7.765c0.485,0.907,0.989,1.807,1.535,2.695
	c5.015,8.143,12.411,15.502,21.984,21.874c7.58,5.045,16.329,9.322,26.004,12.712c0.535,0.188,1.094,0.281,1.653,0.281
	s1.118-0.094,1.653-0.281c23.277-8.158,41.026-21.588,49.525-37.279c15.679,5.118,33.286,7.763,50.992,7.763
	c9.241,0,18.509-0.719,27.538-2.178c1.673-0.271,3.095-1.369,3.777-2.92c6.814-15.465,4.699-31.981-5.658-46.376
	c24.021-5.215,44.159-15.403,57.291-29.146C436.966,387.651,436.966,384.608,435.119,382.675z M187.618,277.719
	c-7.306-17.315-11.01-35.625-11.01-54.42v-80.525c0-15.674,6.104-30.408,17.189-41.488L245,50.107V28.942c0-2.761,2.238-5,5-5
	s5,2.239,5,5v21.165l51.201,51.179c11.085,11.081,17.19,25.815,17.19,41.488v80.525c0,18.793-3.704,37.102-11.01,54.42
	c-6.146,14.571-9.552,29.997-10.122,45.85c-0.098,2.698-2.315,4.82-4.994,4.82c-0.061,0-0.121-0.001-0.183-0.003
	c-2.76-0.099-4.916-2.417-4.817-5.177c0.614-17.07,4.283-33.683,10.903-49.377c6.783-16.081,10.223-33.083,10.223-50.533v-80.525
	c0-11.578-4.025-22.531-11.398-31.283l-12.354,8.969c4.935,8.763,7.529,18.604,7.529,28.742v41.229
	c0.001,0.033,0.001,0.065,0.001,0.097c0,26.009-21.16,47.169-47.169,47.169s-47.169-21.16-47.169-47.169v-41.326
	c0-10.137,2.594-19.978,7.529-28.742l-12.354-8.969c-7.373,8.752-11.398,19.705-11.398,31.284v80.525
	c0,17.453,3.439,34.454,10.223,50.533c6.62,15.692,10.288,32.305,10.902,49.377c0.099,2.76-2.058,5.077-4.817,5.177
	c-2.744,0.095-5.077-2.058-5.177-4.817C197.169,307.714,193.764,292.288,187.618,277.719z M250,227.697
	c0.64,0,1.276-0.016,1.909-0.048c0.193-0.01,0.384-0.031,0.577-0.044c0.437-0.029,0.875-0.056,1.308-0.1
	c0.237-0.024,0.471-0.061,0.707-0.09c0.384-0.047,0.769-0.088,1.149-0.146c0.326-0.05,0.646-0.115,0.969-0.173
	c0.286-0.052,0.574-0.095,0.857-0.153c0.371-0.076,0.736-0.168,1.103-0.255c0.23-0.055,0.464-0.101,0.693-0.16
	c0.344-0.089,0.682-0.192,1.023-0.291c0.246-0.071,0.496-0.135,0.74-0.21c0.31-0.097,0.613-0.207,0.92-0.312
	c0.268-0.091,0.54-0.176,0.805-0.273c0.307-0.113,0.608-0.239,0.911-0.359c0.258-0.103,0.519-0.198,0.774-0.306
	c0.335-0.142,0.663-0.298,0.993-0.449c0.217-0.099,0.437-0.192,0.651-0.295c0.34-0.164,0.672-0.341,1.006-0.515
	c0.198-0.103,0.4-0.199,0.596-0.306c0.33-0.179,0.652-0.372,0.976-0.561c0.193-0.112,0.389-0.218,0.58-0.334
	c0.315-0.192,0.622-0.396,0.931-0.596c0.191-0.124,0.388-0.242,0.577-0.37c0.306-0.207,0.603-0.426,0.903-0.641
	c0.184-0.132,0.373-0.259,0.554-0.394c0.292-0.218,0.575-0.449,0.86-0.675c0.181-0.144,0.367-0.281,0.544-0.428
	c0.288-0.237,0.565-0.486,0.846-0.732c0.167-0.146,0.338-0.286,0.502-0.435c0.28-0.254,0.55-0.52,0.822-0.782
	c0.156-0.15,0.316-0.295,0.47-0.448c0.257-0.257,0.504-0.525,0.754-0.789c0.159-0.168,0.323-0.331,0.478-0.501
	c0.242-0.266,0.473-0.542,0.707-0.814c0.153-0.178,0.312-0.352,0.462-0.533c0.231-0.28,0.451-0.569,0.674-0.856
	c0.143-0.183,0.291-0.361,0.43-0.547c0.217-0.291,0.423-0.59,0.633-0.887c0.134-0.19,0.274-0.376,0.405-0.569
	c0.198-0.293,0.384-0.595,0.575-0.893c0.13-0.205,0.267-0.406,0.394-0.614c0.183-0.301,0.354-0.61,0.529-0.916
	c0.122-0.213,0.25-0.422,0.367-0.638c0.167-0.307,0.322-0.622,0.481-0.935c0.113-0.223,0.233-0.441,0.342-0.667
	c0.148-0.307,0.284-0.622,0.424-0.933c0.107-0.238,0.22-0.471,0.322-0.711c0.128-0.303,0.244-0.613,0.365-0.92
	c0.101-0.256,0.208-0.508,0.303-0.767c0.111-0.303,0.209-0.613,0.313-0.919c0.091-0.268,0.188-0.534,0.273-0.805
	c0.096-0.308,0.179-0.621,0.267-0.933c0.079-0.276,0.164-0.55,0.236-0.828c0.08-0.308,0.146-0.622,0.218-0.934
	c0.066-0.287,0.14-0.572,0.199-0.862c0.063-0.305,0.112-0.615,0.167-0.923c0.054-0.302,0.115-0.601,0.162-0.905
	c0.046-0.302,0.079-0.608,0.118-0.911c0.041-0.315,0.088-0.628,0.121-0.946c0.031-0.299,0.047-0.603,0.071-0.904
	c0.026-0.327,0.058-0.651,0.075-0.98c0.016-0.299,0.017-0.601,0.025-0.901c0.009-0.34,0.025-0.679,0.026-1.022
	c0-0.013,0-0.027,0-0.04v-0.02c-0.021-20.477-16.686-37.131-37.168-37.131c-20.495,0-37.169,16.674-37.169,37.169
	S229.505,227.697,250,227.697z M287.168,161.538v-12.336c0-9.757-2.89-19.185-8.356-27.265L250,79.346l-28.813,42.59
	c-5.467,8.082-8.356,17.51-8.356,27.265v12.337c8.64-11.054,22.084-18.18,37.169-18.18
	C265.084,143.359,278.527,150.485,287.168,161.538z M255,64.247v4.643l29.199,43.162l10.79-7.834L255,64.247z M245,64.247
	l-39.989,39.972l10.79,7.833L245,68.89V64.247z M250,16.337c2.762,0,5-2.239,5-5V5c0-2.761-2.238-5-5-5s-5,2.239-5,5v6.337
	C245,14.099,247.238,16.337,250,16.337z"/>
</svg>
