<?xml version="1.0" encoding="utf-8"?>
<!-- Generator: Adobe Illustrator 22.0.0, SVG Export Plug-In . SVG Version: 6.00 Build 0)  -->
<svg version="1.1" id="Layer_1" xmlns="http://www.w3.org/2000/svg" xmlns:xlink="http://www.w3.org/1999/xlink" x="0px" y="0px"
	 viewBox="0 0 500 500" style="enable-background:new 0 0 500 500;" xml:space="preserve">
<style type="text/css">
	.st0{fill:#FDDF7F;}
	.st1{fill:#ECF4F7;}
	.st2{fill:#83E1E5;}
	.st3{fill:#1C1D21;}
	.st4{fill:#AAB1BA;}
</style>
<g>
	<path class="st2" d="M370.149,249.126L370.149,249.126c-24.932-12.967-55.372-8.468-75.487,11.157L250,303.855l-44.662-43.572
		c-20.116-19.625-50.555-24.124-75.487-11.157l0,0c-38.514,20.031-46.998,71.435-16.964,102.779L250,495l137.113-143.095
		C417.147,320.56,408.663,269.157,370.149,249.126z"/>
</g>
<g>
	<path class="st0" d="M342.039,145.376h-62.712c-16.197,0-29.327,13.13-29.327,29.327c0-16.197-13.13-29.327-29.327-29.327h-62.712
		c-16.197,0-29.327,13.13-29.327,29.327v75.102c0.409-0.224,0.801-0.464,1.217-0.68c24.933-12.967,55.372-8.468,75.487,11.156
		l3.688,3.598c0,0,0,0,0,0L250,303.854l40.973-39.974c0.001-0.001,0.002-0.002,0.004-0.003l3.685-3.595
		c20.116-19.625,50.555-24.124,75.487-11.156c0.416,0.216,0.808,0.456,1.217,0.68v-75.102
		C371.366,158.506,358.236,145.376,342.039,145.376z"/>
</g>
<g>
	<circle class="st0" cx="189.317" cy="99.647" r="45.73"/>
</g>
<g>
	<circle class="st0" cx="310.683" cy="99.647" r="45.73"/>
</g>
<path class="st3" d="M234.025,15.975c0-2.761,2.239-5,5-5H245V5c0-2.761,2.239-5,5-5c2.762,0,5,2.239,5,5v5.975h5.975
	c2.762,0,5,2.239,5,5s-2.238,5-5,5H255v5.974c0,2.761-2.238,5-5,5c-2.761,0-5-2.239-5-5v-5.974h-5.975
	C236.264,20.975,234.025,18.736,234.025,15.975z M92.715,194.997v-5.974h5.975c2.761,0,5-2.239,5-5s-2.239-5-5-5h-5.975v-5.975
	c0-2.761-2.239-5-5-5s-5,2.239-5,5v5.975H76.74c-2.761,0-5,2.239-5,5s2.239,5,5,5h5.975v5.974c0,2.761,2.239,5,5,5
	S92.715,197.759,92.715,194.997z M423.26,179.023h-5.975v-5.975c0-2.761-2.238-5-5-5s-5,2.239-5,5v5.975h-5.975
	c-2.762,0-5,2.239-5,5s2.238,5,5,5h5.975v5.974c0,2.761,2.238,5,5,5s5-2.239,5-5v-5.974h5.975c2.762,0,5-2.239,5-5
	S426.021,179.023,423.26,179.023z M409.271,295.459c3.628,21.983-3.132,43.818-18.547,59.905L253.61,498.459
	c-0.942,0.984-2.247,1.541-3.61,1.541c-1.363,0-2.667-0.557-3.61-1.541L109.277,355.364c-15.415-16.087-22.175-37.922-18.547-59.906
	c3.628-21.983,17.046-40.488,36.813-50.769c26.909-13.996,59.576-9.167,81.286,12.014L250,296.869l41.17-40.166
	c21.71-21.182,54.376-26.009,81.285-12.014C392.224,254.97,405.642,273.475,409.271,295.459z M399.403,297.087
	c-3.11-18.847-14.614-34.712-31.561-43.526v0c-23.074-12-51.076-7.859-69.689,10.3l-41.038,40.037l23.031,23.031
	c1.953,1.953,1.953,5.119,0,7.071c-0.976,0.976-2.256,1.465-3.535,1.465s-2.56-0.488-3.535-1.464l-26.597-26.597l-44.633-43.543
	c-11.515-11.234-26.628-17.103-41.94-17.103c-9.439,0-18.95,2.228-27.748,6.804c-16.947,8.814-28.45,24.678-31.561,43.525
	c-3.11,18.847,2.685,37.567,15.901,51.359L250,487.773l133.502-139.327C396.719,334.653,402.515,315.934,399.403,297.087z
	 M296.436,343.219c-1.953-1.953-5.118-1.952-7.071,0c-1.952,1.953-1.952,5.119,0.001,7.071l2.624,2.624
	c0.977,0.976,2.256,1.464,3.535,1.464s2.56-0.488,3.536-1.465c1.952-1.953,1.952-5.119-0.001-7.071L296.436,343.219z
	 M123.634,223.687v-48.983c0-18.928,15.399-34.327,34.327-34.327h1.152c-12.446-9.254-20.525-24.065-20.525-40.73
	c0-27.972,22.757-50.73,50.73-50.73c27.972,0,50.729,22.757,50.729,50.73c0,16.665-8.08,31.476-20.525,40.73h1.151
	c12.405,0,23.295,6.615,29.327,16.502c6.032-9.887,16.922-16.502,29.327-16.502h1.151c-12.445-9.254-20.525-24.065-20.525-40.73
	c0-27.972,22.757-50.73,50.729-50.73s50.729,22.757,50.729,50.73c0,16.665-8.08,31.476-20.525,40.73h1.152
	c18.928,0,34.327,15.399,34.327,34.327v48.983c0,2.761-2.238,5-5,5s-5-2.239-5-5v-48.983c0-13.414-10.913-24.327-24.327-24.327
	h-62.712c-13.414,0-24.327,10.913-24.327,24.327v71.031c0,2.761-2.238,5-5,5c-2.761,0-5-2.239-5-5v-71.031
	c0-13.414-10.913-24.327-24.327-24.327h-62.712c-13.414,0-24.327,10.913-24.327,24.327v48.983c0,2.761-2.239,5-5,5
	S123.634,226.448,123.634,223.687z M310.683,140.376c22.458,0,40.729-18.271,40.729-40.73s-18.271-40.73-40.729-40.73
	s-40.729,18.271-40.729,40.73S288.225,140.376,310.683,140.376z M189.317,140.376c22.458,0,40.729-18.271,40.729-40.73
	s-18.271-40.73-40.729-40.73s-40.73,18.271-40.73,40.73S166.859,140.376,189.317,140.376z M250,260.417c-2.761,0-5,2.239-5,5v3.571
	c0,2.761,2.239,5,5,5s5-2.239,5-5v-3.571C255,262.655,252.761,260.417,250,260.417z"/>
</svg>
