<?xml version="1.0" encoding="iso-8859-1"?>
<!-- Generator: Adobe Illustrator 19.0.0, SVG Export Plug-In . SVG Version: 6.00 Build 0)  -->
<svg xmlns="http://www.w3.org/2000/svg" xmlns:xlink="http://www.w3.org/1999/xlink" version="1.1" id="Layer_1" x="0px" y="0px" viewBox="0 0 512.001 512.001" style="enable-background:new 0 0 512.001 512.001;" xml:space="preserve">
<g>
	<path style="fill:#F2B5D4;" d="M107.822,504.357c-2.948,0-5.797-1.171-8.019-3.299c-3.782-3.621-4.713-8.987-2.371-13.671   l33.586-67.583l64.274,37.51l-81.73,45.517C111.74,503.845,109.809,504.357,107.822,504.357z"/>
	<path style="fill:#F2B5D4;" d="M404.177,504.358c-1.986,0-3.916-0.513-5.736-1.522L316.095,456.4l62.42-40.371l36.053,71.359   c2.342,4.682,1.412,10.048-2.372,13.671C409.969,503.187,407.123,504.358,404.177,504.358z"/>
</g>
<g>
	<polygon style="fill:#F4D35E;" points="233.681,98.364 233.681,51.169 278.318,51.169 278.318,99.391  "/>
	<polygon style="fill:#F4D35E;" points="73.342,140.129 104.905,108.565 137.579,141.241 104.134,170.925  "/>
</g>
<g>
	<path style="fill:#F2BB4C;" d="M87.456,154.244l16.679,16.681l33.444-29.683l-19.713-19.714   C106.615,131.321,96.413,142.289,87.456,154.244z"/>
	<path style="fill:#F2BB4C;" d="M278.318,71.034c-7.335-0.773-14.779-1.178-22.318-1.178c-7.539,0-14.984,0.405-22.318,1.178v27.331   l44.636,1.027V71.034z"/>
</g>
<g>
	<path style="fill:#F79CC6;" d="M120.352,441.268c14.619,12.335,30.934,22.721,48.558,30.741l26.383-14.693l-64.274-37.511   L120.352,441.268z"/>
	<path style="fill:#F79CC6;" d="M378.515,416.029l-62.42,40.372l27.37,15.434c17.372-7.947,33.47-18.192,47.917-30.341   L378.515,416.029z"/>
</g>
<polygon style="fill:#F4D35E;" points="373.913,141.75 407.096,108.568 438.658,140.13 403.856,174.932 "/>
<path style="fill:#F2BB4C;" d="M394.135,121.527l-20.221,20.221l29.942,33.182l20.688-20.688  C415.586,142.289,405.385,131.322,394.135,121.527z"/>
<path style="fill:#F2B5D4;" d="M234.225,52.257c-12.307,0-22.318-10.012-22.318-22.318S221.92,7.621,234.225,7.621h43.548  c12.307,0,22.318,10.012,22.318,22.318s-10.012,22.318-22.318,22.318H234.225z"/>
<path style="fill:#F79CC6;" d="M255.999,29.939c0-12.214,9.866-22.157,22.046-22.304c-0.091-0.001-0.18-0.014-0.272-0.014h-43.548  c-12.307,0-22.318,10.012-22.318,22.318s10.012,22.318,22.318,22.318h43.548c0.091,0,0.181-0.013,0.272-0.014  C265.866,52.096,255.999,42.153,255.999,29.939z"/>
<path style="fill:#F2B5D4;" d="M43.319,166.955c-3.054,0-5.924-1.189-8.082-3.346c-12.425-12.424-19.267-28.965-19.267-46.575  s6.841-34.151,19.264-46.574c12.423-12.422,28.964-19.263,46.573-19.263s34.151,6.841,46.574,19.263  c2.158,2.158,3.347,5.029,3.347,8.084s-1.189,5.925-3.347,8.084l-22.068,22.067l-3.576,3.577l-27.816,27.816l-2.98,2.98  l-20.54,20.541C49.245,165.766,46.374,166.955,43.319,166.955z"/>
<path style="fill:#F79CC6;" d="M80.009,130.642c-3.054,0-5.924-1.189-8.082-3.346C59.501,114.871,52.66,98.331,52.66,80.72  c0-8.687,1.671-17.11,4.849-24.909c-8.249,3.265-15.821,8.196-22.275,14.649C22.812,82.883,15.97,99.424,15.97,117.034  s6.841,34.151,19.267,46.575c2.158,2.157,5.029,3.346,8.082,3.346c3.055,0,5.926-1.19,8.082-3.347l20.543-20.543l2.98-2.98  l11.259-11.259C84.357,130.004,82.234,130.642,80.009,130.642z"/>
<path style="fill:#F2B5D4;" d="M468.682,166.956c-3.058,0-5.93-1.192-8.089-3.354l-53.649-53.65l-0.67-0.67l-22.658-22.657  c-2.158-2.155-3.348-5.026-3.348-8.081c-0.001-3.056,1.188-5.926,3.346-8.086c12.423-12.423,28.964-19.264,46.575-19.264  c17.611,0,34.15,6.841,46.573,19.263c25.681,25.682,25.681,67.47,0.001,93.151C474.612,165.765,471.74,166.956,468.682,166.956z"/>
<g>
	<polygon style="fill:#F79CC6;" points="446.098,149.106 445.428,148.437 434.002,137.011 460.593,163.602 460.602,163.61  "/>
	<path style="fill:#F79CC6;" d="M419.423,117.699c-0.001-3.056,1.188-5.926,3.346-8.086c12.423-12.423,28.964-19.264,46.575-19.264   c7.855,0,15.494,1.371,22.654,3.981c-3.185-8.714-8.253-16.89-15.234-23.871C464.34,58.037,447.8,51.196,430.19,51.196   c-17.612,0-34.152,6.841-46.575,19.264c-2.158,2.159-3.347,5.03-3.346,8.086c0,3.055,1.19,5.926,3.348,8.081l22.658,22.657   l0.67,0.67l15.82,15.82C420.61,123.618,419.423,120.75,419.423,117.699z"/>
</g>
<circle style="fill:#B2F7EF;" cx="255.995" cy="280.338" r="196.509"/>
<path style="fill:#F4D35E;" d="M255.999,433.3c-84.343,0-152.961-68.618-152.961-152.961s68.618-152.961,152.961-152.961  s152.961,68.618,152.961,152.961S340.342,433.3,255.999,433.3z"/>
<path style="fill:#F2BB4C;" d="M325.068,381.202c-84.343,0-152.961-68.618-152.961-152.961c0-34.112,11.228-65.65,30.179-91.119  c-57.923,21.797-99.246,77.767-99.246,143.216c0,84.343,68.618,152.961,152.961,152.961c50.23,0,94.88-24.34,122.783-61.842  C362.062,377.75,343.961,381.202,325.068,381.202z"/>
<path style="fill:#F79CC6;" d="M194.414,364.243c-5.962,0-11.566-2.322-15.782-6.539c-8.702-8.701-8.702-22.86,0-31.562  l44.203-44.203c-0.026-0.529-0.041-1.064-0.041-1.601c0-9.345,3.965-18.29,10.887-24.58v-62.514  c0-12.307,10.012-22.318,22.318-22.318c12.307,0,22.318,10.012,22.318,22.318v62.515c6.922,6.293,10.887,15.236,10.887,24.58  c0,18.309-14.897,33.205-33.205,33.205c-0.537,0-1.071-0.015-1.601-0.041l-44.203,44.204  C205.98,361.922,200.376,364.243,194.414,364.243z"/>
<path d="M355.634,384.547c-26.836,25.67-63.531,41.115-103.761,39.984c-76.468-2.147-138.397-64.465-140.089-140.944  c-1.815-82.087,65.329-149.251,147.41-147.467c75.917,1.649,138.032,62.687,140.949,138.566  c1.067,27.761-5.767,53.878-18.416,76.299c-1.792,3.176-1.302,7.146,1.277,9.725c0.054,0.054,0.109,0.109,0.163,0.163  c3.739,3.739,10.053,2.948,12.658-1.652c13.904-24.542,21.538-53.082,20.693-83.435c-2.369-85.149-71.717-154.096-156.877-155.991  c-91.413-2.035-166.205,72.751-164.184,164.162c1.911,86.358,72.754,156.21,159.131,156.956  c43.538,0.377,83.165-16.671,112.33-44.571c3.305-3.162,3.349-8.433,0.114-11.668l0,0  C363.898,381.541,358.837,381.483,355.634,384.547z"/>
<path d="M482.153,65.071c-28.652-28.65-75.274-28.65-103.927,0c-7.428,7.429-7.428,19.516,0,26.945l17.321,17.321L383.685,121.2  c-27.619-22.205-61.11-37.381-97.746-42.79V58.737c12.55-3.564,21.774-15.121,21.774-28.798C307.713,13.431,294.282,0,277.774,0  h-43.548c-16.509,0-29.939,13.431-29.939,29.939c0,13.677,9.223,25.234,21.774,28.798V78.41  c-36.636,5.408-70.127,20.585-97.747,42.79l-11.862-11.863l17.321-17.321c7.428-7.429,7.428-19.516,0-26.945  c-28.652-28.65-75.273-28.65-103.925,0c-28.652,28.652-28.652,75.274,0,103.928c3.715,3.714,8.593,5.571,13.473,5.571  c4.878,0,9.757-1.857,13.471-5.571l17.322-17.322l13.464,13.464C65.063,197.95,51.869,237.63,51.869,280.338  c0,59.16,25.307,112.513,65.651,149.829l-26.906,53.812c-3.868,7.736-2.331,16.601,3.917,22.584  c3.747,3.587,8.456,5.437,13.256,5.437c3.203,0,6.448-0.824,9.475-2.505l66.493-36.941c0.441-0.245,0.845-0.529,1.221-0.838  c22.131,8.239,46.058,12.753,71.022,12.753s48.892-4.514,71.022-12.752c0.377,0.309,0.781,0.593,1.222,0.838l66.493,36.942  c3.027,1.681,6.271,2.505,9.475,2.505c4.8,0,9.51-1.85,13.257-5.438c6.248-5.981,7.785-14.846,3.917-22.583l-26.906-53.812  c40.345-37.316,65.651-90.67,65.651-149.829c0-42.708-13.193-82.388-35.705-115.198l13.464-13.464l17.321,17.321  c3.715,3.714,8.594,5.571,13.473,5.571s9.758-1.857,13.473-5.572C510.806,140.344,510.806,93.724,482.153,65.071z M220.617,29.939  c0-7.504,6.104-13.609,13.609-13.609h43.548c7.504,0,13.609,6.104,13.609,13.609s-6.104,13.609-13.609,13.609h-43.548  C226.722,43.548,220.617,37.443,220.617,29.939z M242.391,76.208v-16.33h27.217v16.33H242.391z M45.243,157.45  c-1.061,1.063-2.789,1.06-3.85,0c-22.286-22.286-22.286-58.546,0-80.831s58.546-22.284,80.831,0c1.061,1.061,1.061,2.788,0,3.849  l-23.092,23.093l-0.001,0.001l-30.794,30.793c-0.001,0.001-0.002,0.002-0.003,0.003L45.243,157.45z M97.206,151.677l-11.548-11.548  l19.246-19.246l11.068,11.069c-5.717,5.398-11.12,11.124-16.186,17.144L97.206,151.677z M109.333,495.219  c-1.585,0.881-2.783,0.242-3.507-0.452c-0.724-0.693-1.416-1.861-0.604-3.484l25.1-50.2c11.098,8.695,23.119,16.262,35.883,22.54  L109.333,495.219z M406.779,491.283c0.812,1.623,0.119,2.79-0.605,3.484c-0.724,0.692-1.92,1.334-3.507,0.453l-56.872-31.596  c12.764-6.28,24.785-13.845,35.883-22.54L406.779,491.283z M255.999,468.138c-103.553,0-187.799-84.246-187.799-187.799  c0-45.64,16.372-87.524,43.542-120.103l22.03-22.03c0.344-0.344,0.643-0.715,0.913-1.1c32.749-27.781,75.106-44.567,121.314-44.567  c46.207,0,88.563,16.784,121.312,44.565c0.27,0.385,0.57,0.758,0.914,1.103l22.037,22.037  c27.166,32.578,43.536,74.46,43.536,120.096C443.799,383.891,359.554,468.138,255.999,468.138z M414.794,151.677l-2.578-2.578  c-5.067-6.022-10.47-11.749-16.189-17.147l11.068-11.068l19.246,19.246L414.794,151.677z M470.607,157.45  c-1.061,1.064-2.788,1.064-3.849,0l-23.085-23.085c-0.003-0.003-0.007-0.008-0.01-0.011l-30.793-30.793  c-0.003-0.003-0.008-0.007-0.011-0.01l-23.085-23.085c-1.063-1.061-1.063-2.788-0.001-3.849  c11.144-11.144,25.778-16.715,40.417-16.715c14.634,0,29.275,5.573,40.416,16.714C492.891,98.904,492.891,135.164,470.607,157.45z"/>
<path d="M285.938,193.243c0-16.508-13.431-29.939-29.939-29.939c-16.509,0-29.939,13.431-29.939,29.939v59.348  c-6.611,7.14-10.486,16.447-10.858,26.204l-41.959,41.958c-11.674,11.674-11.674,30.668,0,42.342  c5.836,5.835,13.503,8.754,21.17,8.754c7.667,0,15.333-2.919,21.17-8.754l41.958-41.959c21.799-0.814,39.283-18.803,39.283-40.798  c0-10.315-3.928-20.233-10.887-27.747v-59.348H285.938z M255.999,304.834c-0.454,0-0.906-0.015-1.353-0.04  c-2.328-0.13-4.591,0.734-6.236,2.379l-44.374,44.375c-2.57,2.57-5.988,3.987-9.623,3.987c-3.635,0-7.053-1.416-9.623-3.987  c-5.306-5.306-5.306-13.94,0-19.246l44.374-44.374c1.642-1.642,2.506-3.904,2.38-6.222c-0.025-0.453-0.04-0.908-0.04-1.367  c0-6.953,2.978-13.606,8.168-18.256c1.73-1.548,2.718-3.76,2.718-6.083v-62.757c0-7.504,6.104-13.609,13.609-13.609  s13.609,6.104,13.609,13.609v62.758c0,2.322,0.989,4.534,2.718,6.083c5.192,4.65,8.168,11.303,8.168,18.256  C280.495,293.845,269.507,304.834,255.999,304.834z"/>
<g>
</g>
<g>
</g>
<g>
</g>
<g>
</g>
<g>
</g>
<g>
</g>
<g>
</g>
<g>
</g>
<g>
</g>
<g>
</g>
<g>
</g>
<g>
</g>
<g>
</g>
<g>
</g>
<g>
</g>
</svg>
