<?xml version="1.0" encoding="utf-8"?>
<!-- Generator: Adobe Illustrator 22.0.0, SVG Export Plug-In . SVG Version: 6.00 Build 0)  -->
<svg version="1.1" id="Layer_1" xmlns="http://www.w3.org/2000/svg" xmlns:xlink="http://www.w3.org/1999/xlink" x="0px" y="0px"
	 viewBox="0 0 500 500" style="enable-background:new 0 0 500 500;" xml:space="preserve">
<style type="text/css">
	.st0{fill:#FDDF7F;}
	.st1{fill:#ECF4F7;}
	.st2{fill:#83E1E5;}
	.st3{fill:#1C1D21;}
	.st4{fill:#AAB1BA;}
</style>
<g>
	<rect x="16.122" y="68.838" class="st1" width="467.756" height="353.899"/>
</g>
<g>
	<path class="st4" d="M16.122,422.737v53.307c0,10.469,8.487,18.956,18.956,18.956h429.844c10.469,0,18.956-8.487,18.956-18.956
		v-53.307H16.122z"/>
</g>
<g>
	<rect x="16.122" y="387.169" class="st2" width="467.756" height="35.568"/>
</g>
<g>
	<circle class="st2" cx="99.8" cy="458.958" r="15.102"/>
</g>
<g>
	<path class="st2" d="M464.922,5H35.078c-10.469,0-18.956,8.487-18.956,18.956v44.882h467.756V23.956
		C483.878,13.487,475.391,5,464.922,5z"/>
</g>
<g>
	<circle class="st1" cx="60.488" cy="36.919" r="11.044"/>
</g>
<g>
	<circle class="st1" cx="104.155" cy="36.919" r="11.044"/>
</g>
<g>
	<circle class="st1" cx="147.823" cy="36.919" r="11.044"/>
</g>
<g>
	<path class="st0" d="M163.563,263.257h-41.822c-4.856,0-8.793,3.937-8.793,8.793c0,4.83,3.896,8.756,8.726,8.792l29.132,0.105
		c4.291,0.016,8.561,0.438,12.757,1.247V263.257z"/>
</g>
<g>
	<circle class="st0" cx="250" cy="151.316" r="49.966"/>
</g>
<g>
	<path class="st4" d="M335.55,387.169h-171.1c-13.556,0-24.545-10.989-24.545-24.545v-3.523c0-13.556,10.989-24.545,24.545-24.545
		h171.1c13.556,0,24.545,10.989,24.545,24.545v3.523C360.095,376.18,349.106,387.169,335.55,387.169z"/>
</g>
<g>
	<rect x="218.389" y="334.556" class="st0" width="63.223" height="52.613"/>
</g>
<g>
	<path class="st0" d="M336.436,263.257h41.822c4.856,0,8.793,3.937,8.793,8.793c0,4.83-3.896,8.756-8.726,8.792l-29.132,0.105
		c-4.291,0.016-8.561,0.438-12.757,1.247V263.257z"/>
</g>
<path class="st3" d="M60.488,20.875c-8.847,0-16.044,7.197-16.044,16.043c0,8.847,7.197,16.044,16.044,16.044
	s16.044-7.197,16.044-16.044C76.532,28.073,69.335,20.875,60.488,20.875z M60.488,42.963c-3.333,0-6.044-2.711-6.044-6.044
	s2.711-6.043,6.044-6.043s6.044,2.711,6.044,6.043S63.821,42.963,60.488,42.963z M104.155,20.875
	c-8.847,0-16.044,7.197-16.044,16.043c0,8.847,7.197,16.044,16.044,16.044s16.044-7.197,16.044-16.044
	C120.199,28.073,113.002,20.875,104.155,20.875z M104.155,42.963c-3.333,0-6.044-2.711-6.044-6.044s2.711-6.043,6.044-6.043
	s6.044,2.711,6.044,6.043S107.488,42.963,104.155,42.963z M147.822,20.875c-8.846,0-16.043,7.197-16.043,16.043
	c0,8.847,7.197,16.044,16.043,16.044c8.847,0,16.044-7.197,16.044-16.044C163.866,28.073,156.669,20.875,147.822,20.875z
	 M147.822,42.963c-3.332,0-6.043-2.711-6.043-6.044s2.711-6.043,6.043-6.043c3.333,0,6.044,2.711,6.044,6.043
	S151.155,42.963,147.822,42.963z M11.122,220.798v-5.487c0-2.761,2.238-5,5-5s5,2.239,5,5v5.487c0,2.761-2.238,5-5,5
	S11.122,223.559,11.122,220.798z M464.922,0H35.078C21.869,0,11.122,10.747,11.122,23.956v173.579c0,2.761,2.238,5,5,5s5-2.239,5-5
	V73.838h457.756v343.899H21.122V244.556c0-2.761-2.238-5-5-5s-5,2.239-5,5v231.488c0,13.209,10.747,23.956,23.956,23.956h429.844
	c13.209,0,23.956-10.747,23.956-23.956V23.956C488.878,10.747,478.131,0,464.922,0z M478.878,476.044
	c0,7.695-6.261,13.956-13.956,13.956H35.078c-7.695,0-13.956-6.261-13.956-13.956v-48.307h457.756V476.044z M478.878,63.838H21.122
	V23.956C21.122,16.261,27.383,10,35.078,10h429.844c7.695,0,13.956,6.261,13.956,13.956V63.838z M107.981,271.09
	c-0.264,3.845,1.03,7.515,3.642,10.333c2.576,2.779,6.226,4.389,10.034,4.418l29.131,0.105c3.95,0.015,7.86,0.392,11.702,1.125
	c0.041,0.009,0.081,0.018,0.122,0.026c3.75,0.723,7.435,1.781,11.029,3.179l27.477,10.685v20.364c0,2.761,2.238,5,5,5s5-2.239,5-5
	V299.01v-1.468v-55.691c0-2.761-2.238-5-5-5s-5,2.239-5,5v48.381l-23.852-9.276c-2.854-1.11-5.76-2.021-8.702-2.763v-9.936h11.882
	c6.491,0,11.771-5.28,11.771-11.771V234.54c0-15.582,12.677-28.258,28.258-28.258h59.051c15.581,0,28.257,12.676,28.257,28.258
	v21.946c0,6.491,5.28,11.771,11.771,11.771h11.882v9.936c-2.942,0.743-5.849,1.654-8.702,2.763l-23.851,9.275v-48.381
	c0-2.761-2.238-5-5-5s-5,2.239-5,5v55.678c0,0.004-0.001,0.008-0.001,0.013v23.785c0,2.761,2.238,5,5,5s5-2.239,5-5v-20.364
	l27.477-10.685c3.594-1.398,7.279-2.456,11.028-3.179c0.042-0.008,0.082-0.017,0.122-0.026c3.842-0.733,7.751-1.111,11.701-1.125
	l29.153-0.105c3.788-0.029,7.437-1.64,10.013-4.418c2.611-2.818,3.905-6.488,3.642-10.333c-0.491-7.196-6.667-12.833-14.059-12.833
	h-2.549c0.694-1.771,1.088-3.69,1.088-5.704c0-8.659-7.044-15.703-15.702-15.703s-15.702,7.044-15.702,15.703
	c0,2.013,0.395,3.933,1.088,5.704h-26.628c-0.977,0-1.771-0.794-1.771-1.771V234.54c0-20.438-16.11-37.185-36.298-38.208
	c14.184-9.95,23.482-26.413,23.482-45.016c0-30.309-24.657-54.966-54.966-54.966s-54.966,24.658-54.966,54.966
	c0,18.603,9.298,35.065,23.482,45.016c-20.189,1.023-36.299,17.77-36.299,38.208v21.946c0,0.977-0.795,1.771-1.771,1.771h-26.628
	c0.694-1.771,1.088-3.69,1.088-5.704c0-8.659-7.044-15.703-15.702-15.703s-15.702,7.044-15.702,15.703
	c0,2.013,0.395,3.933,1.088,5.704h-2.549C114.648,258.257,108.473,263.895,107.981,271.09z M360.796,246.851
	c3.145,0,5.702,2.558,5.702,5.703s-2.558,5.703-5.702,5.703s-5.702-2.558-5.702-5.703S357.651,246.851,360.796,246.851z
	 M341.436,268.257h36.523c2.118,0,3.949,1.577,4.082,3.516c0.073,1.066-0.282,2.079-1,2.854c-0.719,0.776-1.697,1.208-2.733,1.216
	l-29.134,0.105c-2.597,0.01-5.177,0.17-7.738,0.449V268.257z M205.034,151.316c0-24.794,20.172-44.966,44.966-44.966
	s44.966,20.172,44.966,44.966S274.794,196.282,250,196.282S205.034,176.111,205.034,151.316z M139.203,246.851
	c3.145,0,5.702,2.558,5.702,5.703s-2.558,5.703-5.702,5.703s-5.702-2.558-5.702-5.703S136.059,246.851,139.203,246.851z
	 M158.563,268.257v8.139c-2.562-0.279-5.142-0.439-7.739-0.449l-29.111-0.105c-1.058-0.008-2.036-0.44-2.755-1.216
	c-0.718-0.774-1.073-1.788-1-2.854c0.133-1.938,1.964-3.515,4.082-3.515H158.563z M436.051,458.958c0-2.761,2.238-5,5-5h6.27
	c2.762,0,5,2.239,5,5s-2.238,5-5,5h-6.27C438.289,463.958,436.051,461.719,436.051,458.958z M52.68,463.958h27.673
	c2.231,8.669,10.091,15.103,19.447,15.103c9.356,0,17.216-6.434,19.448-15.103h302.334c2.762,0,5-2.239,5-5s-2.238-5-5-5H119.248
	c-2.231-8.669-10.092-15.102-19.448-15.102c-9.355,0-17.215,6.433-19.447,15.102H52.68c-2.762,0-5,2.239-5,5
	S49.918,463.958,52.68,463.958z M99.8,448.855c5.57,0,10.103,4.532,10.103,10.102S105.37,469.06,99.8,469.06
	s-10.102-4.532-10.102-10.103S94.229,448.855,99.8,448.855z M69.682,387.169c0,2.761,2.238,5,5,5h89.769h171.1h89.769
	c2.762,0,5-2.239,5-5s-2.238-5-5-5h-67.64c4.61-5.213,7.416-12.056,7.416-19.545v-3.523c0-16.291-13.254-29.545-29.545-29.545
	h-171.1c-16.291,0-29.545,13.254-29.545,29.545v3.523c0,7.489,2.806,14.332,7.416,19.545h-67.64
	C71.92,382.169,69.682,384.408,69.682,387.169z M281.611,377.521c2.762,0,5-2.239,5-5v-32.964h48.938
	c10.777,0,19.545,8.768,19.545,19.545v3.523c0,10.777-8.768,19.545-19.545,19.545H223.389v-16.307h53.223v6.658
	C276.611,375.282,278.85,377.521,281.611,377.521z M144.905,359.101c0-10.777,8.768-19.545,19.545-19.545h112.161v16.307h-53.223
	v-7.047c0-2.761-2.238-5-5-5s-5,2.239-5,5v33.354H164.45c-10.777,0-19.545-8.768-19.545-19.545V359.101z M46.5,392.169
	c-2.762,0-5-2.239-5-5s2.238-5,5-5h5.223c2.762,0,5,2.239,5,5s-2.238,5-5,5H46.5z M448.277,392.169c-2.762,0-5-2.239-5-5
	s2.238-5,5-5h5.223c2.762,0,5,2.239,5,5s-2.238,5-5,5H448.277z M143.484,172.076v5.975h5.975c2.762,0,5,2.239,5,5s-2.238,5-5,5
	h-5.975v5.975c0,2.761-2.238,5-5,5s-5-2.239-5-5v-5.975h-5.975c-2.762,0-5-2.239-5-5s2.238-5,5-5h5.975v-5.975c0-2.761,2.238-5,5-5
	S143.484,169.315,143.484,172.076z M366.516,172.076v5.975h5.975c2.762,0,5,2.239,5,5s-2.238,5-5,5h-5.975v5.975
	c0,2.761-2.238,5-5,5s-5-2.239-5-5v-5.975h-5.975c-2.762,0-5-2.239-5-5s2.238-5,5-5h5.975v-5.975c0-2.761,2.238-5,5-5
	S366.516,169.315,366.516,172.076z"/>
</svg>
