<?xml version="1.0" encoding="utf-8"?>
<!-- Generator: Adobe Illustrator 22.0.0, SVG Export Plug-In . SVG Version: 6.00 Build 0)  -->
<svg version="1.1" id="Layer_1" xmlns="http://www.w3.org/2000/svg" xmlns:xlink="http://www.w3.org/1999/xlink" x="0px" y="0px"
	 viewBox="0 0 500 500" style="enable-background:new 0 0 500 500;" xml:space="preserve">
<style type="text/css">
	.st0{fill:#FDDF7F;}
	.st1{fill:#ECF4F7;}
	.st2{fill:#83E1E5;}
	.st3{fill:#1C1D21;}
	.st4{fill:#AAB1BA;}
</style>
<g>
	<path class="st0" d="M447.069,352.534H52.931v124.242c0,10.065,8.159,18.224,18.224,18.224h357.69
		c10.065,0,18.224-8.159,18.224-18.224V352.534z"/>
</g>
<g>
	<circle class="st1" cx="249.999" cy="390.978" r="13.161"/>
</g>
<g>
	<path class="st1" d="M173.208,391.806l15.769,42.695c6.16,16.679,22.916,26.994,40.582,24.984l10.17-1.158l1.158-10.17
		c2.011-17.667-8.304-34.422-24.984-40.582L173.208,391.806z"/>
</g>
<g>
	<path class="st1" d="M326.792,391.806L311.023,434.5c-6.16,16.679-22.915,26.994-40.582,24.984l-10.17-1.158l-1.158-10.17
		c-2.011-17.667,8.304-34.422,24.984-40.582L326.792,391.806z"/>
</g>
<g>
	<path class="st4" d="M428.845,81.22h-22.064v57.104c0-7.888-6.394-14.282-14.282-14.282H278.24
		c-7.888,0-14.282,6.394-14.282,14.282V81.22h-27.915v57.104c0-7.888-6.394-14.282-14.282-14.282H107.501
		c-7.888,0-14.282,6.394-14.282,14.282V81.22H71.155c-10.065,0-18.224,8.159-18.224,18.224v253.09h394.138V99.444
		C447.069,89.38,438.91,81.22,428.845,81.22z"/>
</g>
<g>
	<path class="st2" d="M221.76,5H107.501c-7.888,0-14.282,6.394-14.282,14.282v119.042V295.43c0,7.888,6.394,14.282,14.282,14.282
		H221.76c7.888,0,14.282-6.395,14.282-14.282V138.324V19.282C236.042,11.394,229.648,5,221.76,5z"/>
</g>
<g>
	<path class="st2" d="M392.499,5H278.24c-7.888,0-14.282,6.394-14.282,14.282v119.042V295.43c0,7.888,6.394,14.282,14.282,14.282
		h114.259c7.888,0,14.282-6.395,14.282-14.282V138.324V19.282C406.781,11.394,400.387,5,392.499,5z"/>
</g>
<g>
	<path class="st1" d="M185.319,110.324c0-11.426-9.263-20.689-20.689-20.689c-11.426,0-20.689,9.263-20.689,20.689
		c0,5.27,1.987,10.065,5.232,13.718h30.914C183.332,120.389,185.319,115.594,185.319,110.324z"/>
</g>
<g>
	<path class="st1" d="M356.058,110.324c0-11.426-9.263-20.689-20.689-20.689c-11.426,0-20.689,9.263-20.689,20.689
		c0,5.27,1.987,10.065,5.232,13.718h30.914C354.071,120.389,356.058,115.594,356.058,110.324z"/>
</g>
<g>
	<circle class="st1" cx="164.631" cy="237.566" r="20.689"/>
</g>
<g>
	<circle class="st1" cx="335.369" cy="237.566" r="20.689"/>
</g>
<path class="st3" d="M107.41,352.534c0,2.762-2.239,5-5,5h-3.552c-2.761,0-5-2.238-5-5s2.239-5,5-5h3.552
	C105.171,347.534,107.41,349.772,107.41,352.534z M452.069,99.444v253.09v124.242c0,12.806-10.418,23.224-23.224,23.224H71.155
	c-12.806,0-23.224-10.418-23.224-23.224V352.534V99.444c0-12.806,10.418-23.224,23.224-23.224h17.063V19.282
	C88.219,8.65,96.869,0,107.501,0H221.76c10.632,0,19.283,8.65,19.283,19.282v56.938h17.915V19.282C258.958,8.65,267.608,0,278.24,0
	h114.258c10.632,0,19.283,8.65,19.283,19.282v56.938h17.063C441.65,76.221,452.069,86.639,452.069,99.444z M364.861,42.847V10
	H340.37v32.847H364.861z M330.37,10h-24.492v32.847h24.492V10z M268.958,52.847v68.58c0.021-0.012,0.043-0.021,0.065-0.033
	c0.047-0.026,0.097-0.049,0.145-0.074c0.451-0.242,0.915-0.463,1.387-0.669c0.104-0.045,0.206-0.092,0.31-0.135
	c0.505-0.21,1.019-0.399,1.544-0.566c0.1-0.032,0.202-0.059,0.302-0.089c0.483-0.145,0.974-0.272,1.472-0.379
	c0.083-0.018,0.164-0.039,0.247-0.056c0.548-0.11,1.106-0.193,1.67-0.256c0.127-0.014,0.255-0.025,0.383-0.037
	c0.58-0.053,1.164-0.089,1.758-0.089h114.258c0.593,0,1.178,0.036,1.758,0.089c0.128,0.012,0.255,0.023,0.383,0.037
	c0.564,0.063,1.122,0.146,1.67,0.256c0.083,0.017,0.164,0.038,0.246,0.056c0.499,0.107,0.989,0.234,1.472,0.379
	c0.101,0.03,0.202,0.058,0.302,0.089c0.525,0.167,1.04,0.356,1.544,0.566c0.104,0.043,0.207,0.09,0.31,0.135
	c0.472,0.206,0.936,0.428,1.387,0.669c0.048,0.025,0.097,0.048,0.145,0.074c0.021,0.012,0.044,0.021,0.065,0.033v-68.58H268.958z
	 M364.861,161.889v-32.847H340.37v32.847H364.861z M330.37,161.889v-32.847h-24.492v32.847H330.37z M295.877,161.889v-32.847H278.24
	c-5.119,0-9.283,4.164-9.283,9.282v23.564H295.877z M374.861,161.889h26.92v-23.564c0-5.118-4.164-9.282-9.283-9.282h-17.637
	V161.889z M268.958,295.43c0,5.118,4.164,9.282,9.283,9.282h114.258c5.119,0,9.283-4.164,9.283-9.282V171.889H268.958V295.43z
	 M392.499,10h-17.637v32.847h26.92V19.282C401.781,14.164,397.617,10,392.499,10z M268.958,19.282v23.564h26.92V10H278.24
	C273.122,10,268.958,14.164,268.958,19.282z M194.123,42.847V10H169.63v32.847H194.123z M159.63,10h-24.492v32.847h24.492V10z
	 M98.219,52.847v68.58c0.021-0.012,0.043-0.021,0.065-0.033c0.047-0.026,0.097-0.049,0.145-0.074
	c0.451-0.242,0.915-0.463,1.387-0.669c0.104-0.045,0.206-0.092,0.31-0.135c0.505-0.21,1.019-0.399,1.544-0.566
	c0.1-0.032,0.202-0.059,0.302-0.089c0.483-0.145,0.974-0.272,1.472-0.379c0.083-0.018,0.164-0.039,0.247-0.056
	c0.548-0.11,1.106-0.193,1.67-0.256c0.127-0.014,0.255-0.025,0.383-0.037c0.58-0.053,1.164-0.089,1.758-0.089H221.76
	c0.593,0,1.178,0.036,1.758,0.089c0.128,0.012,0.255,0.023,0.383,0.037c0.564,0.063,1.122,0.146,1.67,0.256
	c0.083,0.017,0.164,0.038,0.246,0.056c0.499,0.107,0.989,0.234,1.472,0.379c0.101,0.03,0.202,0.058,0.302,0.089
	c0.525,0.167,1.04,0.356,1.544,0.566c0.104,0.043,0.207,0.09,0.31,0.135c0.472,0.206,0.936,0.428,1.387,0.669
	c0.048,0.025,0.097,0.048,0.145,0.074c0.021,0.012,0.044,0.021,0.065,0.033v-68.58H98.219z M194.123,161.889v-32.847H169.63v32.847
	H194.123z M159.63,161.889v-32.847h-24.492v32.847H159.63z M125.139,161.889v-32.847h-17.637c-5.119,0-9.283,4.164-9.283,9.282
	v23.564H125.139z M204.123,161.889h26.92v-23.564c0-5.118-4.164-9.282-9.283-9.282h-17.637V161.889z M98.219,295.43
	c0,5.118,4.164,9.282,9.283,9.282H221.76c5.119,0,9.283-4.164,9.283-9.282V171.889H98.219V295.43z M221.76,10h-17.637v32.847h26.92
	V19.282C231.042,14.164,226.878,10,221.76,10z M98.219,19.282v23.564h26.92V10h-17.637C102.383,10,98.219,14.164,98.219,19.282z
	 M442.069,357.534H121.187c-2.761,0-5-2.238-5-5s2.239-5,5-5h320.882V99.444c0-7.292-5.932-13.224-13.224-13.224h-17.063v52.104
	V295.43c0,10.632-8.65,19.282-19.283,19.282H278.24c-10.632,0-19.283-8.65-19.283-19.282V138.324V86.221h-17.915v52.104V295.43
	c0,10.632-8.65,19.282-19.283,19.282H107.501c-10.632,0-19.283-8.65-19.283-19.282V138.324V86.221H71.155
	c-7.292,0-13.224,5.932-13.224,13.224v248.09h21.643c2.761,0,5,2.238,5,5s-2.239,5-5,5H57.931v119.242
	c0,7.292,5.932,13.224,13.224,13.224H245v-12.105c0-4.66-1.814-9.041-5.109-12.335l-1.993-1.993l-7.773,0.885
	c-1.675,0.19-3.342,0.284-4.994,0.284c-18.09,0-34.45-11.192-40.844-28.504l-15.769-42.694c-0.676-1.831-0.225-3.888,1.155-5.268
	c1.381-1.381,3.439-1.829,5.268-1.155l42.695,15.769c18.893,6.978,30.497,25.827,28.219,45.838l-0.885,7.774l1.992,1.992
	c1.124,1.124,2.139,2.328,3.039,3.6c0.9-1.271,1.915-2.477,3.039-3.601l1.991-1.992l-0.885-7.774
	c-2.278-20.011,9.326-38.86,28.219-45.838l42.695-15.769c1.83-0.676,3.888-0.226,5.268,1.155c1.38,1.38,1.831,3.437,1.155,5.268
	l-15.769,42.694c-6.394,17.311-22.756,28.504-40.844,28.504c-1.653,0-3.318-0.094-4.994-0.284l-7.774-0.885l-1.992,1.992
	c-3.295,3.295-5.11,7.676-5.11,12.336V490h173.845c7.292,0,13.224-5.932,13.224-13.224V357.534z M264.069,447.458l25.926-25.926
	c1.953-1.953,5.118-1.953,7.071,0c1.953,1.952,1.953,5.118,0,7.07l-25.927,25.927c15.376,1.682,29.831-7.243,35.193-21.761
	l12.007-32.511l-32.511,12.008C271.311,417.627,262.381,432.085,264.069,447.458z M235.931,447.458
	c1.689-15.372-7.242-29.831-21.76-35.193l-32.511-12.008l12.007,32.511c5.362,14.52,19.822,23.445,35.193,21.761l-25.927-25.927
	c-1.953-1.952-1.953-5.118,0-7.07c1.953-1.953,5.118-1.953,7.071,0L235.931,447.458z M138.942,237.565
	c0-14.165,11.524-25.688,25.688-25.688c14.165,0,25.689,11.523,25.689,25.688s-11.524,25.689-25.689,25.689
	C150.466,263.255,138.942,251.73,138.942,237.565z M148.942,237.565c0,8.651,7.038,15.689,15.688,15.689s15.689-7.038,15.689-15.689
	c0-8.65-7.038-15.688-15.689-15.688S148.942,228.915,148.942,237.565z M309.681,237.565c0-14.165,11.524-25.688,25.689-25.688
	c14.165,0,25.688,11.523,25.688,25.688s-11.524,25.689-25.688,25.689C321.205,263.255,309.681,251.73,309.681,237.565z
	 M319.681,237.565c0,8.651,7.038,15.689,15.689,15.689s15.688-7.038,15.688-15.689c0-8.65-7.038-15.688-15.688-15.688
	S319.681,228.915,319.681,237.565z M231.839,390.978c0-10.014,8.147-18.16,18.161-18.16s18.161,8.146,18.161,18.16
	s-8.147,18.161-18.161,18.161S231.839,400.991,231.839,390.978z M241.839,390.978c0,4.5,3.661,8.161,8.161,8.161
	s8.161-3.661,8.161-8.161s-3.661-8.16-8.161-8.16S241.839,386.478,241.839,390.978z M143.752,114.313
	c2.763,0.119,5.102-1.995,5.235-4.754c0.403-8.368,7.275-14.924,15.644-14.924c8.369,0,15.24,6.556,15.644,14.924
	c0.129,2.677,2.339,4.76,4.99,4.76c0.081,0,0.163-0.002,0.245-0.006c2.758-0.133,4.886-2.477,4.753-5.234
	c-0.66-13.707-11.919-24.443-25.632-24.443s-24.972,10.736-25.632,24.443C138.866,111.836,140.994,114.18,143.752,114.313z
	 M314.491,114.313c2.753,0.119,5.102-1.995,5.235-4.754c0.403-8.368,7.275-14.924,15.644-14.924c8.369,0,15.241,6.556,15.644,14.924
	c0.129,2.677,2.339,4.76,4.99,4.76c0.081,0,0.163-0.002,0.245-0.006c2.758-0.133,4.886-2.477,4.753-5.234
	c-0.66-13.707-11.919-24.443-25.632-24.443s-24.972,10.736-25.632,24.443C309.604,111.836,311.732,114.18,314.491,114.313z
	 M31.27,77.054h-5.975V71.08c0-2.762-2.239-5-5-5s-5,2.238-5,5v5.974H9.321c-2.761,0-5,2.238-5,5s2.239,5,5,5h5.975v5.975
	c0,2.762,2.239,5,5,5s5-2.238,5-5v-5.975h5.975c2.761,0,5-2.238,5-5S34.031,77.054,31.27,77.054z M20.295,105.505
	c-2.761,0-5,2.238-5,5v2.734c0,2.762,2.239,5,5,5s5-2.238,5-5v-2.734C25.295,107.743,23.057,105.505,20.295,105.505z
	 M20.295,125.299c-2.761,0-5,2.238-5,5v98.773c0,2.762,2.239,5,5,5s5-2.238,5-5v-98.773
	C25.295,127.537,23.057,125.299,20.295,125.299z M490.679,412.946h-5.975v-5.975c0-2.762-2.239-5-5-5s-5,2.238-5,5v5.975h-5.975
	c-2.761,0-5,2.238-5,5s2.239,5,5,5h5.975v5.974c0,2.762,2.239,5,5,5s5-2.238,5-5v-5.974h5.975c2.761,0,5-2.238,5-5
	S493.44,412.946,490.679,412.946z M479.705,394.495c2.761,0,5-2.238,5-5v-2.734c0-2.762-2.239-5-5-5s-5,2.238-5,5v2.734
	C474.705,392.257,476.943,394.495,479.705,394.495z M479.705,374.701c2.761,0,5-2.238,5-5v-98.773c0-2.762-2.239-5-5-5s-5,2.238-5,5
	v98.773C474.705,372.463,476.943,374.701,479.705,374.701z"/>
</svg>
