<?xml version="1.0" encoding="utf-8"?>
<!-- Generator: Adobe Illustrator 22.0.0, SVG Export Plug-In . SVG Version: 6.00 Build 0)  -->
<svg version="1.1" id="Layer_1" xmlns="http://www.w3.org/2000/svg" xmlns:xlink="http://www.w3.org/1999/xlink" x="0px" y="0px"
	 viewBox="0 0 500 500" style="enable-background:new 0 0 500 500;" xml:space="preserve">
<style type="text/css">
	.st0{fill:#83E1E5;}
	.st1{fill:#FDDF7F;}
	.st2{fill:#ECF4F7;}
	.st3{fill:#AAB1BA;}
	.st4{fill:#1C1D21;}
</style>
<g>
	<path class="st0" d="M347.64,7.215l6.8,13.778c0.579,1.173,1.698,1.986,2.992,2.174l15.205,2.209
		c3.26,0.474,4.562,4.48,2.203,6.779L363.838,42.88c-0.937,0.913-1.364,2.229-1.143,3.518l2.597,15.143
		c0.557,3.247-2.851,5.723-5.767,4.19l-13.6-7.15c-1.158-0.609-2.541-0.609-3.699,0l-13.6,7.15c-2.916,1.533-6.324-0.943-5.767-4.19
		l2.597-15.143c0.221-1.289-0.206-2.605-1.143-3.518l-11.002-10.725c-2.359-2.299-1.057-6.305,2.203-6.779l15.205-2.209
		c1.294-0.188,2.414-1.001,2.992-2.174l6.8-13.778C341.97,4.262,346.182,4.262,347.64,7.215z"/>
</g>
<g>
	<path class="st0" d="M253.564,7.215l6.8,13.778c0.579,1.173,1.698,1.986,2.992,2.174l15.205,2.209
		c3.26,0.474,4.562,4.48,2.203,6.779L269.762,42.88c-0.937,0.913-1.364,2.229-1.143,3.518l2.597,15.143
		c0.557,3.247-2.851,5.723-5.767,4.19l-13.6-7.15c-1.158-0.609-2.541-0.609-3.699,0l-13.6,7.15c-2.916,1.533-6.324-0.943-5.767-4.19
		l2.597-15.143c0.221-1.289-0.206-2.605-1.143-3.518l-11.002-10.725c-2.359-2.299-1.057-6.305,2.203-6.779l15.205-2.209
		c1.294-0.188,2.414-1.001,2.992-2.174l6.8-13.778C247.894,4.262,252.106,4.262,253.564,7.215z"/>
</g>
<g>
	<path class="st0" d="M159.488,7.215l6.8,13.778c0.579,1.173,1.698,1.986,2.992,2.174l15.205,2.209
		c3.26,0.474,4.562,4.48,2.203,6.779L175.686,42.88c-0.937,0.913-1.364,2.229-1.143,3.518l2.597,15.143
		c0.557,3.247-2.851,5.723-5.767,4.19l-13.6-7.15c-1.158-0.609-2.541-0.609-3.699,0l-13.6,7.15c-2.916,1.533-6.324-0.943-5.767-4.19
		l2.597-15.143c0.221-1.289-0.206-2.605-1.143-3.518L125.16,32.156c-2.359-2.299-1.057-6.305,2.203-6.779l15.205-2.209
		c1.295-0.188,2.414-1.001,2.992-2.174l6.8-13.778C153.818,4.262,158.03,4.262,159.488,7.215z"/>
</g>
<g>
	<path class="st1" d="M292.566,442.115v-33.238h60.113c8.881,0,16.032-7.409,15.609-16.383c-0.396-8.405-7.636-14.871-16.051-14.871
		h-32.325c-3.759,0-6.806-3.047-6.806-6.806v-3.9v-31.445c0-15.086-12.229-27.315-27.315-27.315H214.21
		c-15.086,0-27.316,12.23-27.316,27.316v31.445v3.9c0,3.759-3.047,6.806-6.806,6.806h-32.325c-8.414,0-15.655,6.466-16.051,14.871
		c-0.423,8.974,6.728,16.383,15.609,16.383h60.113v33.239h85.132V442.115z"/>
</g>
<g>
	<path class="st2" d="M313.106,335.472c0-15.086-12.23-27.315-27.315-27.315H214.21c-15.086,0-27.316,12.23-27.316,27.316v20.57
		h20.54v86.073h85.132v-86.073h20.54V335.472z"/>
</g>
<g>
	<path class="st0" d="M269.736,354.675c-2.811-6.793-11.623-8.547-16.821-3.349L250,354.242l-2.916-2.916
		c-5.198-5.198-14.01-3.444-16.821,3.349c-1.472,3.558-0.84,7.64,1.641,10.586L250,386.749l18.096-21.488
		C270.576,362.316,271.209,358.234,269.736,354.675z"/>
</g>
<g>
	<circle class="st1" cx="250" cy="231.795" r="76.362"/>
</g>
<g>
	<path class="st3" d="M335.99,495H164.01c-13.625,0-24.671-11.046-24.671-24.671v-3.542c0-13.625,11.046-24.671,24.671-24.671
		h171.98c13.625,0,24.671,11.046,24.671,24.671v3.542C360.661,483.954,349.615,495,335.99,495z"/>
</g>
<g>
	<rect x="218.226" y="442.116" class="st1" width="63.548" height="52.884"/>
</g>
<path class="st4" d="M110.232,231.795c0-2.762,2.238-5,5-5h5.975v-5.975c0-2.762,2.238-5,5-5c2.762,0,5,2.238,5,5v5.975h5.975
	c2.762,0,5,2.238,5,5s-2.238,5-5,5h-5.975v5.975c0,2.762-2.238,5-5,5s-5-2.238-5-5v-5.975h-5.975
	C112.471,236.795,110.232,234.557,110.232,231.795z M378.793,220.82c0-2.762-2.238-5-5-5s-5,2.238-5,5v5.975h-5.975
	c-2.762,0-5,2.238-5,5s2.238,5,5,5h5.975v5.975c0,2.762,2.238,5,5,5s5-2.238,5-5v-5.975h5.975c2.762,0,5-2.238,5-5s-2.238-5-5-5
	h-5.975V220.82z M232.289,162.498c0.383,0,0.772-0.044,1.161-0.137c0.717-0.171,1.438-0.33,2.163-0.479
	c2.705-0.554,4.449-3.196,3.896-5.901s-3.196-4.45-5.901-3.896c-0.829,0.17-1.653,0.353-2.472,0.547
	c-2.687,0.64-4.346,3.335-3.707,6.021C227.976,160.952,230.026,162.498,232.289,162.498z M53.968,490h-6.76c-2.762,0-5,2.238-5,5
	s2.238,5,5,5h6.76c2.762,0,5-2.238,5-5S56.729,490,53.968,490z M434.133,495c0,2.762-2.238,5-5,5h-89.566
	c-0.361,0-0.712-0.042-1.051-0.115c-0.833,0.071-1.674,0.115-2.526,0.115H164.011c-0.852,0-1.692-0.044-2.526-0.115
	c-0.339,0.073-0.69,0.115-1.051,0.115H70.867c-2.762,0-5-2.238-5-5s2.238-5,5-5h70.956c-4.651-5.24-7.484-12.129-7.484-19.671
	v-3.542c0-16.36,13.311-29.671,29.672-29.671H335.99c16.361,0,29.672,13.311,29.672,29.671v3.542c0,7.542-2.833,14.431-7.484,19.671
	h70.956C431.895,490,434.133,492.238,434.133,495z M223.227,456.449v7.109h53.547v-16.442H164.011
	c-10.847,0-19.672,8.824-19.672,19.671v3.542c0,10.847,8.825,19.671,19.672,19.671h49.216v-33.551c0-2.762,2.238-5,5-5
	S223.227,453.688,223.227,456.449z M355.661,466.787c0-10.847-8.825-19.671-19.672-19.671h-49.216v33.16c0,2.762-2.238,5-5,5
	s-5-2.238-5-5v-6.718h-53.547V490h112.763c10.847,0,19.672-8.824,19.672-19.671V466.787z M452.792,490h-6.76c-2.762,0-5,2.238-5,5
	s2.238,5,5,5h6.76c2.762,0,5-2.238,5-5S455.554,490,452.792,490z M275.136,154.426c32.596,10.616,56.226,41.278,56.226,77.369
	c0,30.828-17.235,57.706-42.575,71.506c16.418,1.518,29.319,15.364,29.319,32.171v35.345c0,0.996,0.81,1.807,1.806,1.807
	l32.325-0.001c11.282,0,20.526,8.626,21.044,19.637c0.269,5.7-1.747,11.108-5.677,15.228c-3.932,4.121-9.232,6.391-14.926,6.391
	h-55.113v13.018c0,2.762-2.238,5-5,5s-5-2.238-5-5V341.22c0-2.762,2.238-5,5-5s5,2.238,5,5v9.823h10.541v-15.57
	c0-12.305-10.011-22.315-22.315-22.315H214.21c-12.306,0-22.316,10.011-22.316,22.315v15.57h10.541v-9.823c0-2.762,2.238-5,5-5
	s5,2.238,5,5v85.676c0,2.762-2.238,5-5,5s-5-2.238-5-5v-13.018h-55.113c-5.693,0-10.994-2.27-14.926-6.391
	c-3.93-4.119-5.945-9.527-5.677-15.228c0.518-11.011,9.762-19.637,21.044-19.637l32.325,0.001c0.996,0,1.806-0.811,1.806-1.807
	v-35.345c0-16.807,12.9-30.654,29.319-32.171c-25.34-13.8-42.575-40.678-42.575-71.506c0-31.633,18.565-60.644,47.297-73.907
	c2.508-1.153,5.478-0.062,6.636,2.444c1.157,2.507,0.063,5.478-2.444,6.636c-25.203,11.634-41.488,37.081-41.488,64.827
	c0,39.35,32.013,71.362,71.362,71.362s71.362-32.013,71.362-71.362c0-39.346-32.008-71.356-71.354-71.361
	c-0.004,0-0.009,0.001-0.013,0.001c-0.315,0-0.625-0.037-0.928-0.095c-0.101-0.019-0.196-0.051-0.294-0.075
	c-0.196-0.05-0.388-0.106-0.575-0.178c-0.113-0.044-0.221-0.094-0.331-0.146c-0.166-0.079-0.325-0.166-0.482-0.261
	c-0.101-0.063-0.201-0.125-0.297-0.194c-0.159-0.114-0.306-0.24-0.451-0.372c-0.076-0.069-0.155-0.134-0.226-0.207
	c-0.167-0.172-0.316-0.359-0.458-0.554c-0.036-0.049-0.078-0.092-0.112-0.143c-0.167-0.25-0.312-0.516-0.433-0.798
	c-0.036-0.083-0.056-0.174-0.088-0.26c-0.064-0.175-0.134-0.346-0.179-0.531c-0.007-0.028-0.005-0.055-0.012-0.083
	c-0.037-0.166-0.051-0.339-0.071-0.51c-0.02-0.17-0.048-0.339-0.051-0.508c0-0.029-0.009-0.056-0.009-0.084
	c0-0.121,0.027-0.233,0.035-0.352c0.013-0.186,0.022-0.372,0.056-0.553c0.029-0.158,0.078-0.308,0.122-0.461
	c0.045-0.157,0.084-0.314,0.145-0.466c0.062-0.157,0.141-0.302,0.218-0.451c0.071-0.137,0.137-0.275,0.22-0.405
	c0.088-0.138,0.191-0.262,0.292-0.391c0.098-0.125,0.193-0.252,0.303-0.368c0.109-0.114,0.229-0.213,0.348-0.316
	c0.124-0.108,0.244-0.217,0.38-0.313c0.135-0.095,0.28-0.173,0.424-0.254c0.136-0.078,0.268-0.159,0.413-0.224
	c0.17-0.077,0.35-0.13,0.53-0.188c0.112-0.036,0.213-0.088,0.329-0.116l23.492-5.732c4.572-1.115,7.765-5.181,7.765-9.886
	c0-4.737-3.854-8.592-8.591-8.592s-8.592,3.854-8.592,8.592v1.882c0,2.762-2.238,5-5,5s-5-2.238-5-5v-1.882
	c0-10.252,8.34-18.592,18.592-18.592c10.251,0,18.591,8.34,18.591,18.592C290.071,144.127,283.95,152.057,275.136,154.426z
	 M191.894,361.043v9.774c0,6.51-5.296,11.807-11.806,11.807l-32.325-0.001c-5.834,0-10.793,4.534-11.056,10.107
	c-0.139,2.943,0.9,5.732,2.924,7.854c2.026,2.123,4.757,3.293,7.69,3.293h55.113v-42.835h-10.54V361.043z M308.106,370.817v-9.774
	h-10.541v42.835h55.113c2.934,0,5.664-1.17,7.69-3.293c2.023-2.122,3.063-4.911,2.924-7.854
	c-0.263-5.573-5.222-10.107-11.056-10.107l-32.325,0.001C313.402,382.624,308.106,377.327,308.106,370.817z M274.356,352.764
	c2.195,5.304,1.262,11.326-2.437,15.718l-18.096,21.488c-0.95,1.128-2.35,1.779-3.824,1.779s-2.874-0.651-3.824-1.779
	l-18.096-21.488c-3.698-4.392-4.632-10.414-2.437-15.718c1.96-4.736,6.132-8.162,11.16-9.163c4.745-0.947,9.616,0.398,13.196,3.604
	c3.579-3.206,8.455-4.549,13.196-3.604C268.225,344.602,272.396,348.026,274.356,352.764z M265.116,356.588L265.116,356.588
	c-0.69-1.669-2.102-2.827-3.872-3.18c-1.768-0.352-3.517,0.176-4.792,1.453l-2.917,2.916c-1.951,1.953-5.119,1.953-7.07,0
	l-2.916-2.916c-1.018-1.017-2.334-1.561-3.723-1.561c-0.354,0-0.712,0.036-1.07,0.107c-1.771,0.353-3.182,1.511-3.872,3.179
	c-0.762,1.841-0.438,3.93,0.845,5.453L250,378.986l14.271-16.946C265.554,360.517,265.878,358.428,265.116,356.588z M309.821,35.736
	c-2.464-2.402-3.334-5.928-2.271-9.2c1.064-3.272,3.84-5.612,7.245-6.107l14.671-2.131l6.562-13.295
	C337.551,1.917,340.635,0,344.076,0c3.44,0,6.524,1.917,8.047,5.003l6.562,13.295l14.671,2.131c3.405,0.495,6.181,2.835,7.245,6.107
	c1.063,3.272,0.193,6.798-2.27,9.2l-10.617,10.349l2.505,14.612c0.583,3.39-0.785,6.754-3.568,8.776
	c-2.785,2.023-6.406,2.284-9.453,0.684l-13.122-6.898l-13.122,6.898c-1.324,0.696-2.759,1.04-4.185,1.041
	c-1.854,0-3.694-0.581-5.268-1.725c-2.783-2.022-4.151-5.387-3.568-8.778l2.505-14.61L309.821,35.736z M318.29,30.026l9.515,9.274
	c2.116,2.063,3.081,5.033,2.58,7.945l-2.245,13.093l11.761-6.183c1.307-0.688,2.741-1.031,4.175-1.031
	c1.435,0,2.869,0.344,4.177,1.031l11.76,6.183l-2.245-13.096c-0.501-2.909,0.464-5.879,2.58-7.942l9.515-9.274l-13.148-1.91
	c-2.924-0.426-5.449-2.261-6.757-4.909l-5.88-11.915l-5.881,11.914c-1.308,2.649-3.833,4.484-6.755,4.91L318.29,30.026z
	 M215.746,35.736c-2.464-2.401-3.335-5.927-2.271-9.2c1.063-3.272,3.84-5.612,7.245-6.107l14.671-2.131l6.562-13.295
	C243.475,1.917,246.559,0,250,0s6.525,1.917,8.048,5.003l6.562,13.295l14.671,2.131c3.405,0.495,6.182,2.835,7.245,6.107
	c1.063,3.273,0.192,6.799-2.271,9.2l-10.616,10.349l2.506,14.611c0.582,3.393-0.786,6.756-3.57,8.778
	c-2.783,2.022-6.405,2.283-9.451,0.683L250,63.259l-13.123,6.898c-1.324,0.696-2.758,1.041-4.185,1.041
	c-1.853,0-3.692-0.581-5.266-1.724c-2.784-2.022-4.152-5.386-3.57-8.777l2.506-14.612L215.746,35.736z M224.214,30.026l9.515,9.274
	c2.115,2.062,3.08,5.03,2.582,7.941l-2.247,13.097l11.761-6.183c1.308-0.687,2.742-1.03,4.176-1.03c1.435,0,2.868,0.343,4.175,1.029
	l11.762,6.184l-2.246-13.095c-0.499-2.913,0.466-5.882,2.581-7.943l9.515-9.274l-13.148-1.91c-2.926-0.426-5.452-2.263-6.758-4.912
	L250,11.291l-5.881,11.915c-1.305,2.647-3.831,4.484-6.756,4.91L224.214,30.026z M121.67,35.736c-2.464-2.402-3.334-5.928-2.271-9.2
	c1.064-3.272,3.84-5.612,7.245-6.107l14.671-2.131l6.562-13.295C149.399,1.917,152.483,0,155.924,0s6.525,1.917,8.048,5.003
	l6.562,13.295l14.671,2.131c3.405,0.495,6.181,2.835,7.245,6.107c1.063,3.272,0.193,6.798-2.27,9.2l-10.617,10.349l2.505,14.612
	c0.583,3.39-0.785,6.754-3.568,8.776c-2.784,2.023-6.407,2.284-9.453,0.684l-13.122-6.898l-13.122,6.898
	c-1.324,0.696-2.759,1.04-4.185,1.041c-1.854,0-3.694-0.581-5.268-1.725c-2.783-2.022-4.151-5.387-3.568-8.778l2.505-14.61
	L121.67,35.736z M130.139,30.026l9.515,9.274c2.116,2.063,3.081,5.033,2.58,7.945l-2.245,13.093l11.761-6.183
	c1.307-0.688,2.741-1.031,4.175-1.031c1.435,0,2.869,0.344,4.177,1.031l11.76,6.183l-2.245-13.096
	c-0.501-2.909,0.464-5.879,2.58-7.942l9.515-9.274l-13.148-1.91c-2.924-0.426-5.449-2.261-6.757-4.909l-5.88-11.915l-5.881,11.914
	c-1.308,2.649-3.833,4.484-6.755,4.91L130.139,30.026z"/>
</svg>
