<?xml version="1.0" encoding="utf-8"?>
<!-- Generator: Adobe Illustrator 22.0.0, SVG Export Plug-In . SVG Version: 6.00 Build 0)  -->
<svg version="1.1" id="Layer_1" xmlns="http://www.w3.org/2000/svg" xmlns:xlink="http://www.w3.org/1999/xlink" x="0px" y="0px"
	 viewBox="0 0 500 500" style="enable-background:new 0 0 500 500;" xml:space="preserve">
<style type="text/css">
	.st0{fill:#FDDF7F;}
	.st1{fill:#ECF4F7;}
	.st2{fill:#83E1E5;}
	.st3{fill:#1C1D21;}
	.st4{fill:#AAB1BA;}
</style>
<g>
	<rect x="69.013" y="33.661" class="st2" width="361.975" height="355.027"/>
</g>
<g>
	<path class="st1" d="M290.969,339.567V305.01l28.628-11.133c7.337-2.853,15.138-4.331,23.01-4.36l27.198-0.098
		c4.7-0.036,8.453-4.016,8.127-8.786c-0.298-4.35-4.108-7.632-8.468-7.632h-54.529c-3.491,0-6.322-2.83-6.322-6.322V246.19
		c0-17.148-13.902-31.05-31.05-31.05h-55.131c-17.148,0-31.05,13.902-31.05,31.05v20.489c0,3.491-2.83,6.322-6.322,6.322h-54.529
		c-4.36,0-8.17,3.282-8.468,7.632c-0.326,4.77,3.427,8.75,8.127,8.786l27.198,0.098c7.873,0.028,15.673,1.506,23.01,4.36
		l28.628,11.133v34.557H290.969z"/>
</g>
<g>
	<path class="st4" d="M410.456,446.62H89.544c-11.339,0-20.531-9.192-20.531-20.531v48.38c0,11.339,9.192,20.531,20.531,20.531
		h320.912c11.339,0,20.531-9.192,20.531-20.531v-48.38C430.987,437.428,421.795,446.62,410.456,446.62z"/>
</g>
<g>
	<path class="st1" d="M430.987,33.661v-8.129C430.987,14.192,421.795,5,410.456,5H89.544c-11.339,0-20.531,9.192-20.531,20.531
		v8.129H430.987z"/>
</g>
<g>
	<path class="st0" d="M246.551,73.317H105.505c-3.743,0-6.777-3.034-6.777-6.777V40.437c0-3.743,3.034-6.777,6.777-6.777h141.046
		c3.743,0,6.777,3.034,6.777,6.777V66.54C253.327,70.283,250.293,73.317,246.551,73.317z"/>
</g>
<g>
	<path class="st1" d="M430.987,426.089v-37.401H69.013v37.401c0,11.339,9.192,20.531,20.531,20.531h320.912
		C421.795,446.62,430.987,437.428,430.987,426.089z"/>
</g>
<g>
	<path class="st0" d="M169.301,273.001h-39.046c-4.534,0-8.209,3.675-8.209,8.209c0,4.509,3.637,8.175,8.147,8.209l27.198,0.098
		c4.006,0.014,7.993,0.409,11.91,1.164V273.001z"/>
</g>
<g>
	<circle class="st0" cx="250" cy="168.491" r="46.649"/>
</g>
<g>
	<path class="st4" d="M329.871,388.688H170.129c-12.656,0-22.916-10.26-22.916-22.916v-3.29c0-12.656,10.26-22.916,22.916-22.916
		h159.742c12.656,0,22.916,10.26,22.916,22.916v3.29C352.787,378.428,342.527,388.688,329.871,388.688z"/>
</g>
<g>
	<rect x="220.487" y="339.567" class="st0" width="59.026" height="49.121"/>
</g>
<g>
	<path class="st0" d="M330.698,273.001h39.046c4.534,0,8.209,3.675,8.209,8.209c0,4.509-3.637,8.175-8.147,8.209l-27.198,0.098
		c-4.006,0.014-7.993,0.409-11.91,1.164V273.001z"/>
</g>
<path class="st3" d="M458.5,490h-27.8c3.312-4.306,5.287-9.691,5.287-15.531v-48.38V25.531C435.987,11.453,424.534,0,410.456,0
	H89.544C75.466,0,64.013,11.453,64.013,25.531v400.558v48.38c0,5.84,1.976,11.225,5.287,15.531H41.5c-2.762,0-5,2.239-5,5
	s2.238,5,5,5h48.044h320.912H458.5c2.762,0,5-2.239,5-5S461.262,490,458.5,490z M425.987,450.279
	c0,8.564-6.967,15.531-15.531,15.531H163.333c-2.762,0-5,2.239-5,5s2.238,5,5,5h247.123c5.84,0,11.225-1.976,15.531-5.287v3.946
	c0,8.564-6.968,15.531-15.531,15.531H89.544c-8.563,0-15.531-6.967-15.531-15.531v-3.946c4.306,3.312,9.691,5.287,15.531,5.287
	h32.502c2.762,0,5-2.239,5-5s-2.238-5-5-5H89.544c-8.564,0-15.531-6.967-15.531-15.531v-3.938c0.029,0.022,0.061,0.042,0.09,0.064
	c0.471,0.359,0.955,0.7,1.451,1.026c0.097,0.064,0.195,0.125,0.292,0.188c0.513,0.328,1.036,0.643,1.573,0.935
	c0.023,0.012,0.046,0.023,0.069,0.035c0.526,0.283,1.065,0.543,1.612,0.79c0.097,0.043,0.192,0.089,0.29,0.131
	c0.55,0.239,1.109,0.459,1.678,0.659c0.108,0.038,0.217,0.074,0.325,0.11c0.591,0.2,1.19,0.385,1.8,0.542
	c0.009,0.002,0.018,0.004,0.027,0.006c0.605,0.155,1.22,0.281,1.841,0.392c0.108,0.019,0.216,0.04,0.325,0.058
	c0.611,0.1,1.229,0.179,1.853,0.235c0.113,0.01,0.226,0.017,0.339,0.026c0.649,0.05,1.303,0.083,1.965,0.083h320.912
	c0.662,0,1.316-0.033,1.965-0.083c0.113-0.009,0.226-0.016,0.339-0.026c0.625-0.056,1.242-0.135,1.853-0.235
	c0.109-0.018,0.217-0.039,0.325-0.058c0.621-0.11,1.236-0.237,1.841-0.392c0.009-0.002,0.018-0.004,0.027-0.006
	c0.61-0.156,1.208-0.342,1.799-0.542c0.109-0.037,0.217-0.072,0.325-0.11c0.569-0.201,1.129-0.42,1.678-0.659
	c0.098-0.042,0.193-0.088,0.29-0.131c0.547-0.246,1.086-0.507,1.612-0.79c0.023-0.012,0.046-0.023,0.069-0.035
	c0.538-0.292,1.06-0.607,1.574-0.935c0.098-0.062,0.195-0.124,0.292-0.187c0.496-0.326,0.98-0.668,1.451-1.027
	c0.029-0.022,0.061-0.041,0.09-0.064V450.279z M425.987,426.089c0,8.564-6.968,15.531-15.531,15.531H89.544
	c-8.563,0-15.531-6.967-15.531-15.531V38.661h19.865c-0.089,0.581-0.149,1.171-0.149,1.777V66.54
	c0,6.494,5.283,11.777,11.776,11.777h141.046c6.493,0,11.776-5.283,11.776-11.777V40.438c0-0.605-0.06-1.196-0.149-1.777h167.809
	V426.089z M103.729,66.54V40.438c0-0.98,0.797-1.777,1.776-1.777h141.046c0.979,0,1.776,0.797,1.776,1.777V66.54
	c0,0.98-0.797,1.777-1.776,1.777H105.505C104.525,68.317,103.729,67.52,103.729,66.54z M425.987,28.661H246.551H105.505H74.013
	v-3.129C74.013,16.967,80.98,10,89.544,10h320.912c8.563,0,15.531,6.967,15.531,15.531V28.661z M26.637,495c0,2.761-2.238,5-5,5
	H15.5c-2.762,0-5-2.239-5-5s2.238-5,5-5h6.137C24.398,490,26.637,492.239,26.637,495z M489.5,495c0,2.761-2.238,5-5,5h-6.137
	c-2.762,0-5-2.239-5-5s2.238-5,5-5h6.137C487.262,490,489.5,492.239,489.5,495z M150.674,470.81c0,2.761-2.238,5-5,5H139
	c-2.762,0-5-2.239-5-5s2.238-5,5-5h6.674C148.436,465.81,150.674,468.049,150.674,470.81z M270.39,95.404c0-2.761,2.238-5,5-5h8.066
	c2.762,0,5,2.239,5,5s-2.238,5-5,5h-8.066C272.628,100.404,270.39,98.165,270.39,95.404z M257.855,90.404c2.762,0,5,2.239,5,5
	s-2.238,5-5,5h-70.085c-2.762,0-5-2.239-5-5s2.238-5,5-5H257.855z M155.974,95.404c0-2.761,2.238-5,5-5h10.039c2.762,0,5,2.239,5,5
	s-2.238,5-5,5h-10.039C158.212,100.404,155.974,98.165,155.974,95.404z M93.729,96.24c0-2.761,2.238-5,5-5h46.182
	c2.762,0,5,2.239,5,5s-2.238,5-5,5H98.729C95.967,101.24,93.729,99.001,93.729,96.24z M301.649,168.491
	c0-28.479-23.17-51.649-51.649-51.649s-51.649,23.17-51.649,51.649c0,17.151,8.41,32.367,21.316,41.766
	c-18.589,1.42-33.283,16.987-33.283,35.933v20.489c0,0.729-0.593,1.322-1.321,1.322h-22.996c0.984-2.153,1.547-4.538,1.547-7.056
	c0-9.404-7.651-17.055-17.056-17.055s-17.055,7.651-17.055,17.055c0,2.518,0.563,4.902,1.547,7.056h-0.517
	c-7.073,0-12.984,5.398-13.456,12.291c-0.252,3.683,0.987,7.197,3.488,9.896c2.467,2.661,5.962,4.203,9.608,4.231l27.199,0.099
	c3.666,0.013,7.293,0.364,10.858,1.043c0.038,0.008,0.076,0.017,0.115,0.024c3.482,0.671,6.905,1.654,10.243,2.952l25.441,9.894
	v18.785c0,2.761,2.238,5,5,5s5-2.239,5-5v-20.835v-1.371v-51.994c0-2.761-2.238-5-5-5s-5,2.239-5,5v44.685l-21.816-8.484
	c-2.596-1.01-5.239-1.841-7.913-2.527v-8.689h10.762c6.242,0,11.321-5.079,11.321-11.322V246.19c0-14.364,11.687-26.05,26.051-26.05
	h55.131c14.364,0,26.05,11.686,26.05,26.05v20.489c0,6.243,5.079,11.322,11.321,11.322h10.762v8.689
	c-2.674,0.686-5.317,1.518-7.913,2.527l-21.814,8.484v-44.684c0-2.761-2.238-5-5-5s-5,2.239-5,5v51.981
	c0,0.004-0.001,0.008-0.001,0.013v22.206c0,2.761,2.238,5,5,5s5-2.239,5-5v-18.785l25.44-9.894
	c3.338-1.298,6.761-2.281,10.243-2.952c0.039-0.008,0.076-0.016,0.114-0.024c3.565-0.68,7.194-1.03,10.86-1.043l27.218-0.099
	c3.627-0.028,7.122-1.57,9.589-4.231c2.501-2.699,3.74-6.213,3.488-9.896c-0.472-6.892-6.383-12.291-13.456-12.291h-0.517
	c0.984-2.153,1.547-4.538,1.547-7.056c0-9.404-7.65-17.055-17.055-17.055s-17.055,7.651-17.055,17.055
	c0,2.518,0.563,4.902,1.547,7.056h-22.997c-0.729,0-1.321-0.593-1.321-1.322V246.19c0-18.946-14.693-34.513-33.282-35.933
	C293.239,200.858,301.649,185.642,301.649,168.491z M146.558,253.89c3.891,0,7.056,3.165,7.056,7.055S150.448,268,146.558,268
	c-3.89,0-7.055-3.165-7.055-7.055S142.668,253.89,146.558,253.89z M164.301,284.894c-2.282-0.236-4.58-0.369-6.892-0.377
	l-27.179-0.099c-0.895-0.007-1.722-0.372-2.33-1.029c-0.353-0.379-0.93-1.198-0.847-2.415c0.112-1.64,1.673-2.974,3.479-2.974
	h33.768V284.894z M353.441,253.89c3.89,0,7.055,3.165,7.055,7.055S357.331,268,353.441,268s-7.055-3.165-7.055-7.055
	S349.552,253.89,353.441,253.89z M335.698,278.001h33.768c1.807,0,3.367,1.334,3.479,2.973c0.083,1.218-0.494,2.036-0.846,2.416
	c-0.609,0.657-1.437,1.022-2.312,1.029l-27.197,0.099c-2.313,0.008-4.61,0.141-6.893,0.377V278.001z M250,210.14
	c-22.966,0-41.649-18.684-41.649-41.649s18.684-41.649,41.649-41.649s41.649,18.684,41.649,41.649S272.966,210.14,250,210.14z
	 M103.381,388.688c0,2.761-2.238,5-5,5h-3.994c-2.762,0-5-2.239-5-5s2.238-5,5-5h3.994
	C101.143,383.688,103.381,385.927,103.381,388.688z M357.787,365.772v-3.29c0-15.393-12.523-27.916-27.916-27.916H170.129
	c-15.393,0-27.916,12.523-27.916,27.916v3.29c0,6.814,2.458,13.063,6.529,17.916h-32.804c-2.762,0-5,2.239-5,5s2.238,5,5,5h54.191
	h14.452h130.838h14.452h54.191c2.762,0,5-2.239,5-5s-2.238-5-5-5h-32.805C355.329,378.836,357.787,372.587,357.787,365.772z
	 M220.487,347.88c-2.762,0-5,2.239-5,5v30.808h-30.906h-14.452c-9.879,0-17.916-8.037-17.916-17.916v-3.29
	c0-9.879,8.037-17.916,17.916-17.916h104.384v14.56h-49.025v-6.247C225.487,350.119,223.249,347.88,220.487,347.88z
	 M347.787,365.772c0,9.878-8.037,17.916-17.916,17.916h-14.452h-89.932v-14.561h49.025v5.884c0,2.761,2.238,5,5,5s5-2.239,5-5
	v-30.444h45.358c9.879,0,17.916,8.037,17.916,17.916V365.772z M396.619,388.688c0-2.761,2.238-5,5-5h3.994c2.762,0,5,2.239,5,5
	s-2.238,5-5,5h-3.994C398.857,393.688,396.619,391.449,396.619,388.688z M149.459,175.641c2.762,0,5,2.239,5,5s-2.238,5-5,5h-5.975
	v5.975c0,2.761-2.238,5-5,5s-5-2.239-5-5v-5.975h-5.975c-2.762,0-5-2.239-5-5s2.238-5,5-5h5.975v-5.975c0-2.761,2.238-5,5-5
	s5,2.239,5,5v5.975H149.459z M345.541,180.641c0-2.761,2.238-5,5-5h5.975v-5.975c0-2.761,2.238-5,5-5s5,2.239,5,5v5.975h5.975
	c2.762,0,5,2.239,5,5s-2.238,5-5,5h-5.975v5.975c0,2.761-2.238,5-5,5s-5-2.239-5-5v-5.975h-5.975
	C347.779,185.641,345.541,183.402,345.541,180.641z"/>
</svg>
