<?xml version="1.0" encoding="utf-8"?>
<!-- Generator: Adobe Illustrator 22.0.0, SVG Export Plug-In . SVG Version: 6.00 Build 0)  -->
<svg version="1.1" id="Layer_1" xmlns="http://www.w3.org/2000/svg" xmlns:xlink="http://www.w3.org/1999/xlink" x="0px" y="0px"
	 viewBox="0 0 500 500" style="enable-background:new 0 0 500 500;" xml:space="preserve">
<style type="text/css">
	.st0{fill:#FDDF7F;}
	.st1{fill:#ECF4F7;}
	.st2{fill:#AAB1BA;}
	.st3{fill:#83E1E5;}
	.st4{fill:#1C1D21;}
</style>
<g>
	<path class="st0" d="M169.9,452.7h160.1c27.5-26.3,43.9-63,43.9-102.6l0,0c0-48.8-14.3-96.5-41.3-137.2l-33.4-50.5
		c-10.4-15.8-16-34.3-16-53.2V76.4h-66.6v32.7c0,18.9-5.6,37.5-16,53.2l-33.4,50.5c-26.9,40.7-41.3,88.4-41.3,137.2l0,0
		C126.1,389.6,142.5,426.4,169.9,452.7z"/>
</g>
<g>
	<path class="st1" d="M332.7,212.9l-14.4-21.8H181.7l-14.4,21.8c-26.9,40.7-41.3,88.4-41.3,137.2c0,18,3.4,35.4,9.7,51.5h228.5
		c6.3-16.1,9.7-33.5,9.7-51.5C373.9,301.3,359.6,253.6,332.7,212.9z"/>
</g>
<g>
	<path class="st0" d="M286.8,234h-73.6c-3,0-5.4-2.4-5.4-5.4v-11.3c0-3,2.4-5.4,5.4-5.4h73.6c3,0,5.4,2.4,5.4,5.4v11.3
		C292.2,231.5,289.8,234,286.8,234z"/>
</g>
<g>
	<path class="st2" d="M333.9,495H166.1c-9.4,0-17-7.6-17-17v-8.3c0-9.4,7.6-17,17-17h167.8c9.4,0,17,7.6,17,17v8.3
		C350.9,487.4,343.3,495,333.9,495z"/>
</g>
<g>
	<path class="st2" d="M292.4,76.4h-85.8c-7,0-12.6-5.6-12.6-12.6V17.6c0-7,5.6-12.6,12.6-12.6h85.8c7,0,12.6,5.6,12.6,12.6v46.2
		C305,70.8,299.3,76.4,292.4,76.4z"/>
</g>
<g>
	<circle class="st0" cx="250" cy="305.4" r="18.5"/>
</g>
<g>
	<path class="st3" d="M268,301.2l1.9-0.4c12.7-3,21.9-12.1,24.9-24.9l4.6-19.9l-19.9,4.6c-12.7,3-21.9,12.1-24.9,24.9l-0.4,1.9
		C261,289,266.4,294.3,268,301.2z"/>
</g>
<g>
	<path class="st3" d="M245.8,287.4l-0.4-1.9c-3-12.7-12.1-21.9-24.9-24.9l-19.9-4.6l4.6,19.9c3,12.7,12.1,21.9,24.9,24.9l1.9,0.4
		C233.6,294.3,239,289,245.8,287.4z"/>
</g>
<g>
	<path class="st3" d="M232,309.6l-1.9,0.4c-12.7,3-21.9,12.1-24.9,24.9l-4.6,19.9l19.9-4.6c12.7-3,21.9-12.1,24.9-24.9l0.4-1.9
		C239,321.8,233.6,316.4,232,309.6z"/>
</g>
<g>
	<path class="st3" d="M269.9,310l-1.9-0.4c-1.6,6.9-7,12.2-13.8,13.8l0.4,1.9c3,12.7,12.1,21.9,24.9,24.9l19.9,4.6l-4.6-19.9
		C291.8,322.1,282.6,312.9,269.9,310z"/>
</g>
<path class="st4" d="M332.8,129c0-2.8,2.2-5,5-5h6v-6c0-2.8,2.2-5,5-5s5,2.2,5,5v6h6c2.8,0,5,2.2,5,5c0,2.8-2.2,5-5,5h-6v6
	c0,2.8-2.2,5-5,5s-5-2.2-5-5v-6h-6C335,134,332.8,131.8,332.8,129z M140.3,47.8h6v6c0,2.8,2.2,5,5,5s5-2.2,5-5v-6h6c2.8,0,5-2.2,5-5
	s-2.2-5-5-5h-6v-6c0-2.8-2.2-5-5-5s-5,2.2-5,5v6h-6c-2.8,0-5,2.2-5,5S137.5,47.8,140.3,47.8z M393.9,495c0,2.8-2.2,5-5,5h-55H166.1
	h-55c-2.8,0-5-2.2-5-5s2.2-5,5-5h36.6c-2.3-3.5-3.6-7.6-3.6-12v-8.3c0-9.7,6.3-18,15.1-20.9c-11.9-13.2-21.3-28.4-27.8-44.8
	c-0.2-0.4-0.4-0.9-0.5-1.3c-6.4-16.6-9.8-34.5-9.8-52.5c0-49.9,14.6-98.3,42.1-140l33.4-50.5c9.9-15,15.2-32.5,15.2-50.5V96.1
	c0-2.8,2.2-5,5-5s5,2.2,5,5v13.1c0,20-5.8,39.3-16.8,56L191,186.1h118l-13.8-20.9c-11-16.7-16.8-36-16.8-56V96.1c0-2.8,2.2-5,5-5
	s5,2.2,5,5v13.1c0,18,5.2,35.5,15.2,50.5l19,28.7c0,0,0,0,0,0l14.4,21.8c27.5,41.6,42.1,90.1,42.1,140c0,18.1-3.4,35.9-9.8,52.5
	c-0.1,0.5-0.3,0.9-0.5,1.3c-6.5,16.4-15.9,31.7-27.8,44.8c8.8,2.9,15.1,11.2,15.1,20.9v8.3c0,4.4-1.3,8.6-3.6,12h36.6
	C391.7,490,393.9,492.2,393.9,495z M356.7,406.6H143.3c6.9,15.2,16.6,29.2,28.6,41.1H328C340.1,435.8,349.8,421.8,356.7,406.6z
	 M131.1,350.1c0,15.9,2.8,31.7,8.2,46.5h221.5c5.4-14.8,8.2-30.5,8.2-46.5c0-48-14-94.5-40.4-134.5l-12.9-19.5H184.4l-12.9,19.5
	C145,255.6,131.1,302.1,131.1,350.1z M333.9,490c6.6,0,12-5.4,12-12v-8.3c0-6.6-5.4-12-12-12h-3.8H169.9h-3.8c-6.6,0-12,5.4-12,12
	v8.3c0,6.6,5.4,12,12,12H333.9z M91.3,490H87c-2.8,0-5,2.2-5,5s2.2,5,5,5h4.3c2.8,0,5-2.2,5-5S94.1,490,91.3,490z M413,490h-4.3
	c-2.8,0-5,2.2-5,5s2.2,5,5,5h4.3c2.8,0,5-2.2,5-5S415.7,490,413,490z M189,63.8V17.6C189,7.9,196.8,0,206.5,0h85.8
	c9.7,0,17.6,7.9,17.6,17.6v46.2c0,9.7-7.9,17.6-17.6,17.6h-85.8C196.8,81.4,189,73.5,189,63.8z M244.5,10h-17.2v61.4h17.2V10z
	 M254.5,71.4h17.2V10h-17.2V71.4z M292.4,10h-10.7v61.4h10.7c4.2,0,7.6-3.4,7.6-7.6V17.6C300,13.4,296.6,10,292.4,10z M199,63.8
	c0,4.2,3.4,7.6,7.6,7.6h10.7V10h-10.7c-4.2,0-7.6,3.4-7.6,7.6V63.8z M226.5,305.8c0-0.1,0-0.3,0-0.4s0-0.3,0-0.4
	c-13.3-4-22.9-14.2-26.1-27.9l-4.6-19.9c-0.4-1.7,0.1-3.4,1.3-4.7c1.2-1.2,3-1.7,4.7-1.3l19.9,4.6c13.7,3.2,24,12.9,27.9,26.1
	c0.1,0,0.3,0,0.4,0c0.1,0,0.3,0,0.4,0c4-13.3,14.2-22.9,27.9-26.1l19.9-4.6c1.7-0.4,3.4,0.1,4.7,1.3c1.2,1.2,1.7,3,1.3,4.7
	l-4.6,19.9c-3.2,13.7-12.9,24-26.1,27.9c0,0.1,0,0.3,0,0.4s0,0.3,0,0.4c13.3,4,22.9,14.2,26.1,27.9l4.6,19.9
	c0.4,1.7-0.1,3.4-1.3,4.7c-0.9,0.9-2.2,1.5-3.5,1.5c-0.4,0-0.8,0-1.1-0.1l-19.9-4.6c-13.7-3.2-24-12.9-27.9-26.1c-0.1,0-0.3,0-0.4,0
	c-0.1,0-0.3,0-0.4,0c-4,13.3-14.2,22.9-27.9,26.1l-19.9,4.6c-0.4,0.1-0.8,0.1-1.1,0.1c-1.3,0-2.6-0.5-3.5-1.5
	c-1.2-1.2-1.7-3-1.3-4.7l4.6-19.9C203.6,320,213.3,309.8,226.5,305.8z M237.8,299.6C237.8,299.6,237.8,299.6,237.8,299.6
	c-0.4,0.9-0.7,1.8-0.9,2.7c0,0,0,0,0,0c-0.2,1-0.4,2-0.4,3s0.1,2,0.4,3c0,0,0,0,0,0c0.2,0.9,0.5,1.8,0.9,2.7c0,0,0,0,0,0
	c1.3,2.8,3.6,5.1,6.5,6.5c0,0,0,0,0,0c0.8,0.4,1.7,0.7,2.7,0.9c0,0,0,0,0,0c1,0.2,2,0.4,3,0.4c1,0,2.1-0.1,3-0.4c0,0,0,0,0,0
	c0.9-0.2,1.8-0.5,2.7-0.9c0,0,0,0,0,0c2.8-1.3,5.1-3.6,6.5-6.5c0,0,0,0,0,0c0.4-0.8,0.7-1.7,0.9-2.7c0,0,0,0,0,0c0.2-1,0.4-2,0.4-3
	s-0.1-2-0.4-3c0,0,0,0,0,0c-0.2-0.9-0.5-1.8-0.9-2.7c0,0,0,0,0,0c-1.3-2.8-3.6-5.1-6.5-6.5c0,0,0,0,0,0c-0.8-0.4-1.7-0.7-2.7-0.9
	c0,0,0,0,0,0c-1-0.2-2-0.4-3-0.4c-1,0-2.1,0.1-3,0.4c0,0,0,0,0,0c-0.9,0.2-1.8,0.5-2.7,0.9c0,0,0,0,0,0
	C241.4,294.5,239.1,296.8,237.8,299.6z M271.2,315.5c-2.3,4.8-6.2,8.7-11,11c3.1,9.6,10.4,16.3,20.5,18.7l12,2.8l-2.8-12
	C287.5,325.9,280.8,318.6,271.2,315.5z M260.2,284.2c4.8,2.3,8.7,6.2,11,11c9.6-3.1,16.3-10.4,18.7-20.5l2.8-12l-12,2.8
	C270.5,267.9,263.2,274.6,260.2,284.2z M228.8,295.2c2.3-4.8,6.2-8.7,11-11c-3.1-9.6-10.4-16.3-20.5-18.7l-12-2.8l2.8,12
	C212.5,284.8,219.2,292.2,228.8,295.2z M210.1,336l-2.8,12l12-2.8c10.1-2.3,17.4-9.1,20.5-18.7c-4.8-2.3-8.7-6.2-11-11
	C219.2,318.6,212.5,325.9,210.1,336z M322.3,383.1h4.8c2.8,0,5-2.2,5-5s-2.2-5-5-5h-4.8c-2.8,0-5,2.2-5,5S319.5,383.1,322.3,383.1z
	 M223.1,378.1c0,2.8,2.2,5,5,5h77.7c2.8,0,5-2.2,5-5s-2.2-5-5-5h-77.7C225.3,373.1,223.1,375.4,223.1,378.1z M210.2,373.1h-3.1
	c-2.8,0-5,2.2-5,5s2.2,5,5,5h3.1c2.8,0,5-2.2,5-5S213,373.1,210.2,373.1z M173,383.1h18.2c2.8,0,5-2.2,5-5s-2.2-5-5-5H173
	c-2.8,0-5,2.2-5,5S170.2,383.1,173,383.1z M202.8,228.6v-11.3c0-5.7,4.7-10.4,10.4-10.4h73.6c5.7,0,10.4,4.7,10.4,10.4v11.3
	c0,5.7-4.7,10.4-10.4,10.4h-73.6C207.5,239,202.8,234.3,202.8,228.6z M212.8,228.6c0,0.2,0.2,0.4,0.4,0.4h73.6
	c0.2,0,0.4-0.2,0.4-0.4v-11.3c0-0.2-0.2-0.4-0.4-0.4h-73.6c-0.2,0-0.4,0.2-0.4,0.4L212.8,228.6L212.8,228.6z"/>
</svg>
