<?xml version="1.0" encoding="utf-8"?>
<!-- Generator: Adobe Illustrator 22.0.0, SVG Export Plug-In . SVG Version: 6.00 Build 0)  -->
<svg version="1.1" id="Layer_1" xmlns="http://www.w3.org/2000/svg" xmlns:xlink="http://www.w3.org/1999/xlink" x="0px" y="0px"
	 viewBox="0 0 500 500" style="enable-background:new 0 0 500 500;" xml:space="preserve">
<style type="text/css">
	.st0{fill:#83E1E5;}
	.st1{fill:#ECF4F7;}
	.st2{fill:#FDDF7F;}
	.st3{fill:#AAB1BA;}
	.st4{fill:#1C1D21;}
</style>
<g>
	<path class="st0" d="M363.432,328.861V200.734c0-6.998-5.673-12.671-12.671-12.671H73.215c-6.998,0-12.671,5.673-12.671,12.671
		v128.127c0,6.998,5.672,12.67,12.67,12.671c-6.998,0-12.67,5.673-12.67,12.671V482.33c0,6.998,5.673,12.671,12.671,12.671h277.547
		c6.998,0,12.671-5.673,12.671-12.671V354.202c0-6.998-5.672-12.67-12.67-12.671C357.76,341.531,363.432,335.859,363.432,328.861z"
		/>
</g>
<g>
	<path class="st1" d="M202.655,69.366C193.89,61.86,183.02,57.208,171.6,56.008c-6.947,9.603-10.763,21.226-10.798,33.155
		c9.464,1.816,18.688,5.192,27.255,10.139C190.997,88.325,196.015,78.201,202.655,69.366z"/>
</g>
<g>
	<path class="st1" d="M297.174,89.163c-0.036-11.929-3.851-23.552-10.798-33.155c-11.42,1.2-22.29,5.852-31.055,13.358
		c6.641,8.835,11.659,18.96,14.598,29.936C278.486,94.355,287.71,90.979,297.174,89.163z"/>
</g>
<g>
	<path class="st2" d="M160.192,188.063h137.593c5.702-3.515,11.097-7.726,16.042-12.671c22.986-22.986,30.545-55.538,22.726-84.838
		c-22.205-5.925-46.272-3.011-66.633,8.748C263.837,76.59,248.879,57.511,228.988,46c-19.891,11.511-34.848,30.59-40.931,53.302
		c-20.361-11.759-44.428-14.673-66.633-8.748c-7.819,29.301-0.26,61.852,22.726,84.838
		C149.094,180.337,154.489,184.548,160.192,188.063z"/>
</g>
<path class="st3" d="M439.456,328.861V200.734c0-6.998-5.673-12.671-12.671-12.671h-76.024c6.998,0,12.671,5.673,12.671,12.671
	v128.127c0,6.998-5.673,12.671-12.671,12.671c6.998,0,12.671,5.673,12.671,12.671V482.33c0,6.998-5.673,12.671-12.671,12.671h76.024
	c6.998,0,12.671-5.673,12.671-12.671V354.202c0-6.998-5.673-12.67-12.671-12.67h0C433.783,341.532,439.456,335.859,439.456,328.861z
	"/>
<path class="st4" d="M185.345,152.972c-0.92-2.604,0.445-5.46,3.048-6.38c2.604-0.92,5.46,0.444,6.38,3.048
	c2.882,8.158,7.033,15.798,12.337,22.709c1.682,2.19,1.269,5.329-0.922,7.01c-0.908,0.697-1.978,1.034-3.041,1.034
	c-1.501,0-2.985-0.673-3.97-1.957C193.233,170.69,188.579,162.123,185.345,152.972z M190.907,133.892
	c-0.091-0.636-0.175-1.274-0.251-1.915c-0.327-2.742-2.816-4.698-5.557-4.373c-2.742,0.327-4.7,2.815-4.373,5.557
	c0.086,0.719,0.18,1.435,0.282,2.148c0.357,2.493,2.496,4.292,4.943,4.292c0.236,0,0.475-0.017,0.715-0.051
	C189.4,139.158,191.299,136.625,190.907,133.892z M140.614,178.929c-23.346-23.346-32.55-57.703-24.021-89.663
	c0.461-1.729,1.813-3.081,3.542-3.542c11.753-3.136,24.017-3.878,35.971-2.334c1.071-10.865,5.035-21.453,11.443-30.312
	c1.049-1.45,2.793-2.233,4.574-2.042c10.814,1.136,20.989,5.038,29.72,11.343c6.868-8.177,15.168-15.224,24.64-20.706
	c1.549-0.897,3.459-0.896,5.009,0c9.483,5.488,17.768,12.545,24.619,20.72c8.736-6.314,18.918-10.22,29.742-11.357
	c1.775-0.191,3.524,0.592,4.574,2.042c6.391,8.836,10.351,19.392,11.434,30.228c11.88-1.535,24.069-0.76,35.98,2.419
	c1.729,0.461,3.081,1.813,3.542,3.542c8.529,31.959-0.676,66.316-24.021,89.663c-0.977,0.976-2.256,1.464-3.536,1.464
	s-2.559-0.488-3.536-1.464c-1.953-1.953-1.953-5.119,0-7.071c20.142-20.142,28.485-49.474,22.134-77.177
	c-11.271-2.597-22.765-2.814-33.865-0.736c-0.249,0.072-0.504,0.123-0.767,0.156c-7.643,1.507-15.086,4.113-22.137,7.78
	c1.473,6.56,2.251,13.321,2.251,20.18c0,20.58-6.603,40.074-19.095,56.376c-0.984,1.284-2.47,1.959-3.972,1.959
	c-1.062,0-2.13-0.336-3.038-1.032c-2.191-1.68-2.607-4.818-0.927-7.01c11.143-14.541,17.033-31.932,17.033-50.293
	c0-28.484-14.84-55.124-38.92-70.223c-21.719,13.613-36.047,36.617-38.527,62.102c-0.268,2.748-2.711,4.764-5.461,4.492
	c-2.749-0.268-4.76-2.712-4.492-5.461c0.366-3.759,0.964-7.469,1.778-11.115c-17.306-8.954-37.651-11.536-56.734-7.173
	c-6.351,27.704,1.993,57.033,22.134,77.175c1.953,1.953,1.953,5.119,0,7.071c-0.977,0.976-2.256,1.464-3.536,1.464
	C142.87,180.393,141.591,179.905,140.614,178.929z M262.125,70.387c4.503,6.718,8.129,14.006,10.763,21.674
	c6.149-3.028,12.555-5.326,19.108-6.914c-0.697-8.411-3.469-16.655-8.017-23.777C276.059,62.653,268.619,65.73,262.125,70.387z
	 M165.974,85.221c6.579,1.576,12.984,3.865,19.079,6.846c2.634-7.687,6.267-14.979,10.778-21.695
	c-6.49-4.648-13.921-7.72-21.832-9.002C169.436,68.513,166.66,76.785,165.974,85.221z M218.371,20.833h5.833v5.833
	c0,2.761,2.239,5,5,5s5-2.239,5-5v-5.833h5.833c2.761,0,5-2.239,5-5s-2.239-5-5-5h-5.833V5c0-2.761-2.239-5-5-5s-5,2.239-5,5v5.833
	h-5.833c-2.761,0-5,2.239-5,5S215.61,20.833,218.371,20.833z M65.096,119.532h5.833v5.833c0,2.761,2.239,5,5,5s5-2.239,5-5v-5.833
	h5.833c2.761,0,5-2.239,5-5s-2.239-5-5-5h-5.833v-5.833c0-2.761-2.239-5-5-5s-5,2.239-5,5v5.833h-5.833c-2.761,0-5,2.239-5,5
	S62.334,119.532,65.096,119.532z M371.215,119.532h5.833v5.833c0,2.761,2.239,5,5,5s5-2.239,5-5v-5.833h5.833c2.761,0,5-2.239,5-5
	s-2.239-5-5-5h-5.833v-5.833c0-2.761-2.239-5-5-5s-5,2.239-5,5v5.833h-5.833c-2.761,0-5,2.239-5,5S368.454,119.532,371.215,119.532z
	 M120.677,336.532h-6c-2.761,0-5,2.239-5,5s2.239,5,5,5h6c2.761,0,5-2.239,5-5S123.438,336.532,120.677,336.532z M469.167,495
	c0,2.761-2.239,5-5,5h-37.381h-76.024H73.214H35.833c-2.761,0-5-2.239-5-5s2.239-5,5-5H57.32c-1.126-2.324-1.776-4.919-1.776-7.67
	V354.202c0-4.969,2.069-9.457,5.381-12.67c-3.312-3.214-5.381-7.702-5.381-12.67V200.734c0-9.744,7.927-17.67,17.67-17.67h277.547
	h76.024c9.744,0,17.67,7.927,17.67,17.67v128.127c0,4.969-2.069,9.457-5.381,12.67c3.312,3.214,5.381,7.702,5.381,12.67V482.33
	c0,2.751-0.65,5.347-1.776,7.67h21.487C466.928,490,469.167,492.239,469.167,495z M358.432,200.734c0-4.229-3.441-7.67-7.67-7.67
	H73.214c-4.229,0-7.67,3.441-7.67,7.67v128.127c0,4.229,3.441,7.67,7.67,7.67h21.462c2.761,0,5,2.239,5,5s-2.239,5-5,5H73.214
	c-4.229,0-7.67,3.441-7.67,7.67V482.33c0,4.229,3.441,7.67,7.67,7.67h277.547c4.229,0,7.67-3.441,7.67-7.67V354.202
	c0-4.229-3.441-7.67-7.67-7.67H141.343c-2.761,0-5-2.239-5-5s2.239-5,5-5h209.418c4.229,0,7.67-3.441,7.67-7.67V200.734H358.432z
	 M434.456,354.202c0-4.229-3.441-7.67-7.67-7.67H366.68c0.115,0.238,0.221,0.48,0.326,0.724c0.015,0.035,0.032,0.069,0.047,0.104
	c0.2,0.474,0.374,0.96,0.533,1.453c0.025,0.079,0.052,0.157,0.076,0.236c0.147,0.481,0.273,0.971,0.379,1.469
	c0.019,0.09,0.037,0.181,0.055,0.271c0.099,0.504,0.179,1.015,0.235,1.533c0.008,0.073,0.012,0.146,0.019,0.219
	c0.051,0.547,0.084,1.1,0.084,1.661V482.33c0,0.561-0.033,1.113-0.084,1.661c-0.007,0.073-0.011,0.146-0.019,0.219
	c-0.055,0.518-0.135,1.029-0.235,1.533c-0.018,0.091-0.036,0.181-0.055,0.271c-0.106,0.498-0.231,0.988-0.379,1.469
	c-0.024,0.079-0.051,0.157-0.076,0.236c-0.159,0.494-0.333,0.98-0.533,1.453c-0.015,0.035-0.032,0.069-0.047,0.104
	c-0.104,0.243-0.211,0.486-0.326,0.724h60.106c4.229,0,7.67-3.441,7.67-7.67V354.202z M434.456,200.734
	c0-4.229-3.441-7.67-7.67-7.67H366.68c0.115,0.238,0.221,0.48,0.326,0.724c0.015,0.035,0.032,0.069,0.047,0.104
	c0.2,0.474,0.374,0.96,0.533,1.453c0.025,0.079,0.052,0.157,0.076,0.236c0.147,0.481,0.273,0.971,0.379,1.469
	c0.019,0.09,0.037,0.181,0.055,0.271c0.099,0.504,0.179,1.015,0.235,1.533c0.008,0.073,0.012,0.146,0.019,0.219
	c0.051,0.547,0.084,1.1,0.084,1.661v128.127c0,0.561-0.033,1.113-0.084,1.661c-0.007,0.073-0.011,0.146-0.019,0.219
	c-0.055,0.518-0.135,1.029-0.235,1.533c-0.018,0.091-0.036,0.181-0.055,0.271c-0.106,0.498-0.231,0.988-0.379,1.469
	c-0.024,0.079-0.051,0.157-0.076,0.236c-0.159,0.494-0.333,0.98-0.533,1.453c-0.015,0.035-0.032,0.069-0.047,0.104
	c-0.104,0.243-0.211,0.486-0.326,0.724h60.106c4.229,0,7.67-3.441,7.67-7.67V200.734z M485.299,490H480.5c-2.761,0-5,2.239-5,5
	s2.239,5,5,5h4.799c2.761,0,5-2.239,5-5S488.061,490,485.299,490z M19.5,490h-4.799c-2.761,0-5,2.239-5,5s2.239,5,5,5H19.5
	c2.761,0,5-2.239,5-5S22.261,490,19.5,490z"/>
</svg>
