<?xml version="1.0" encoding="utf-8"?>
<!-- Generator: Adobe Illustrator 22.0.0, SVG Export Plug-In . SVG Version: 6.00 Build 0)  -->
<svg version="1.1" id="Layer_1" xmlns="http://www.w3.org/2000/svg" xmlns:xlink="http://www.w3.org/1999/xlink" x="0px" y="0px"
	 viewBox="0 0 500 500" style="enable-background:new 0 0 500 500;" xml:space="preserve">
<style type="text/css">
	.st0{fill:#FDDF7F;}
	.st1{fill:#ECF4F7;}
	.st2{fill:#83E1E5;}
	.st3{fill:#1C1D21;}
	.st4{fill:#AAB1BA;}
</style>
<g>
	<circle class="st0" cx="95.468" cy="250" r="51.028"/>
</g>
<g>
	<polygon class="st2" points="264.857,203.08 281.198,296.92 146.495,296.92 146.495,203.08 	"/>
</g>
<g>
	<path class="st4" d="M368.893,430.582l-46.186-201.004c-3.563-15.507-17.366-26.498-33.277-26.498h-24.573l16.341,93.839h-43.242
		l-30.712,133.663c-2.278,9.912,3.61,19.87,13.392,22.652c9.782,2.782,20.029-2.588,23.308-12.215l43.281-127.068l44.968,127.068
		c3.279,9.627,13.526,14.997,23.308,12.215C365.283,450.452,371.17,440.494,368.893,430.582z"/>
</g>
<g>
	<path class="st0" d="M364.613,411.955h-42.706l10.286,29.064c3.279,9.627,13.526,14.997,23.308,12.215
		c9.782-2.782,15.67-12.74,13.392-22.652L364.613,411.955z"/>
</g>
<g>
	<path class="st0" d="M211.524,411.955l-4.28,18.627c-2.278,9.912,3.61,19.87,13.392,22.652c9.782,2.782,20.029-2.588,23.308-12.215
		l9.9-29.064H211.524z"/>
</g>
<g>
	<path class="st0" d="M146.495,435.705c0,10.086,8.176,18.261,18.261,18.261l0,0c10.086,0,18.262-8.176,18.262-18.261V296.919
		h-36.523V435.705z"/>
</g>
<g>
	<path class="st0" d="M183.018,64.294c0-10.086-8.176-18.261-18.261-18.261l0,0c-10.086,0-18.262,8.176-18.262,18.261V203.08h36.523
		V64.294z"/>
</g>
<path class="st3" d="M208.847,95.016c0-2.762,2.238-5,5-5h5.975v-5.975c0-2.762,2.238-5,5-5s5,2.238,5,5v5.975h5.975
	c2.762,0,5,2.238,5,5s-2.238,5-5,5h-5.975v5.974c0,2.762-2.238,5-5,5s-5-2.238-5-5v-5.974h-5.975
	C211.085,100.016,208.847,97.777,208.847,95.016z M95.468,379.096c-2.762,0-5,2.238-5,5v5.975h-5.975c-2.762,0-5,2.238-5,5
	s2.238,5,5,5h5.975v5.975c0,2.762,2.238,5,5,5s5-2.238,5-5v-5.975h5.975c2.762,0,5-2.238,5-5s-2.238-5-5-5h-5.975v-5.975
	C100.468,381.334,98.229,379.096,95.468,379.096z M282.209,344.186l-33.532,98.446c-3.401,9.986-12.728,16.338-22.798,16.338
	c-2.187,0-4.407-0.3-6.611-0.926c-12.351-3.514-19.772-16.067-16.896-28.582l4.254-18.513c0-0.002,0.001-0.003,0.001-0.004
	l22.481-97.839c0.619-2.691,3.305-4.376,5.993-3.753c2.69,0.618,4.371,3.302,3.753,5.993l-21.049,91.609h32.461l22.478-65.994
	c0.891-2.613,3.73-4.01,6.346-3.121C281.701,338.73,283.099,341.571,282.209,344.186z M246.858,416.955h-31.352l-3.388,14.747
	c-1.683,7.322,2.659,14.668,9.887,16.723c7.22,2.058,14.784-1.905,17.206-9.017L246.858,416.955z M16.495,448.967H5
	c-2.762,0-5,2.238-5,5s2.238,5,5,5h11.495c2.762,0,5-2.238,5-5S19.257,448.967,16.495,448.967z M468.293,453.965
	c0,2.762-2.238,5-5,5H350.399c-0.047,0-0.095,0.005-0.142,0.005c-0.042,0-0.083-0.005-0.125-0.005h-0.101
	c-0.022,0-0.042-0.006-0.064-0.006c-9.958-0.122-19.139-6.436-22.509-16.327L277.664,301.92h-89.645v133.785
	c0,12.826-10.436,23.262-23.262,23.262H41.048c-2.762,0-5-2.238-5-5s2.238-5,5-5h104.614c-2.623-3.765-4.167-8.335-4.167-13.262
	V296.92v-14.995c-1.877,2.703-4.003,5.285-6.41,7.692c-10.922,10.923-25.27,16.384-39.617,16.384s-28.695-5.461-39.617-16.384
	c-21.846-21.845-21.846-57.39,0-79.234c21.844-21.846,57.391-21.846,79.234,0c2.407,2.407,4.533,4.989,6.41,7.692V203.08V64.294
	c0-12.826,10.436-23.261,23.262-23.261s23.262,10.435,23.262,23.261V198.08h59.751c2.762,0,5,2.238,5,5s-2.238,5-5,5h-64.751
	h-31.523v83.84h31.523h92.234l-15.322-87.982c-0.253-1.454,0.148-2.945,1.099-4.075s2.351-1.782,3.827-1.782h24.573
	c18.353,0,34.04,12.492,38.15,30.378l46.186,201.004v0.001c1.614,7.023-0.017,14.059-3.941,19.502h93.469
	C466.055,448.965,468.293,451.203,468.293,453.965z M128.015,217.453c-8.974-8.973-20.76-13.459-32.547-13.459
	s-23.573,4.486-32.547,13.459c-17.946,17.946-17.946,47.147,0,65.094c17.947,17.945,47.146,17.945,65.094,0
	C145.961,264.601,145.961,235.399,128.015,217.453z M270.803,208.08l15.249,87.568l39.39,111.307h32.892l-40.5-176.257
	c-3.061-13.317-14.74-22.618-28.404-22.618H270.803z M151.495,198.08h26.523V64.294c0-7.312-5.949-13.261-13.262-13.261
	s-13.262,5.949-13.262,13.261V198.08z M178.019,301.92h-26.523v133.785c0,7.313,5.949,13.262,13.262,13.262
	s13.262-5.949,13.262-13.262V301.92z M350.029,448.965c0.001,0,0.002,0,0.003,0h0.117c1.316,0.011,2.655-0.161,3.983-0.54
	c7.227-2.055,11.569-9.401,9.887-16.724l-3.388-14.746H328.98l7.926,22.396C338.885,445.162,344.229,448.868,350.029,448.965z
	 M495,448.967h-7.271c-2.762,0-5,2.238-5,5s2.238,5,5,5H495c2.762,0,5-2.238,5-5S497.762,448.967,495,448.967z"/>
</svg>
