<?xml version="1.0" encoding="iso-8859-1"?>
<!-- Generator: Adobe Illustrator 21.0.2, SVG Export Plug-In . SVG Version: 6.00 Build 0)  -->
<svg version="1.1" xmlns="http://www.w3.org/2000/svg" xmlns:xlink="http://www.w3.org/1999/xlink" x="0px" y="0px"
	 viewBox="0 0 64 64" style="enable-background:new 0 0 64 64;" xml:space="preserve">
<g id="crocus">
</g>
<g id="cactus">
</g>
<g id="anemone_1_">
</g>
<g id="twinflower">
</g>
<g id="_angelonia">
</g>
<g id="magnolia">
	<g>
		<path d="M62.2285,31.0205c-4.1655-0.9775-6.5102-3.5078-8.7778-5.9541c-0.7935-0.8574-1.6138-1.7324-2.4951-2.5273
			c0.8042-2.8662,0.5747-6.0157-0.8467-9.0557c-0.1099-0.2344-0.3062-0.417-0.5484-0.5098
			c-2.9077-1.1142-5.8828-1.1562-8.5712-0.3203c-0.6744-0.7119-1.3848-1.3974-2.0874-2.0556
			c-2.4322-2.2774-4.9468-4.6329-5.9283-8.8204C32.8677,1.3252,32.4644,1.0059,32,1.0059c-0.4644,0-0.8677,0.3193-0.9736,0.7714
			c-0.9829,4.1895-3.5005,6.5469-5.9351,8.8252c-0.727,0.6807-1.4619,1.3907-2.1567,2.1299
			c-2.6905-0.8349-5.669-0.791-8.5796,0.3233c-0.2417,0.0918-0.4385,0.2754-0.5484,0.5097
			c-1.4106,3.0176-1.6748,6.1534-0.8046,9.1231c-0.8404,0.7636-1.6373,1.584-2.3995,2.3974
			c-2.2822,2.4336-4.6416,4.9502-8.8315,5.9346C1.3193,31.127,1,31.5303,1,31.9941c0,0.4649,0.3198,0.8682,0.772,0.9737
			c4.1889,0.9804,6.5522,3.501,8.8379,5.9385c0.8066,0.8603,1.6401,1.7392,2.5366,2.5371
			c-0.8286,2.8877-0.6113,6.0683,0.8232,9.1396c0.1099,0.2354,0.3067,0.419,0.5489,0.5108
			c1.5952,0.6103,3.2114,0.9023,4.7895,0.9023c1.2959,0,2.5649-0.2002,3.7769-0.5781c0.6508,0.6816,1.3339,1.3398,2.0083,1.9716
			c2.4326,2.2803,4.9477,4.6377,5.9331,8.8331c0.1064,0.4521,0.5092,0.7714,0.9736,0.7714h0.0005
			c0.4643,0,0.8672-0.3203,0.9731-0.7724c0.9805-4.1875,3.4961-6.544,5.9287-8.8223c0.7041-0.6601,1.4161-1.3467,2.0918-2.0605
			c1.2095,0.3759,2.4766,0.5742,3.7701,0.5742c1.5815,0,3.2016-0.292,4.7998-0.9043c0.2422-0.0928,0.4389-0.2754,0.5483-0.5098
			c1.4356-3.0722,1.6504-6.2558,0.8154-9.1465c0.8633-0.7773,1.6802-1.6171,2.4615-2.4492c2.2841-2.4355,4.646-4.9541,8.8388-5.9355
			C62.6802,32.8623,63,32.459,63,31.9941C63,31.5303,62.6807,31.127,62.2285,31.0205z M48.4639,14.7021
			c2.3139,5.4014,0.2216,11.1563-5.062,14.2081c-0.4932-1.8204-1.4082-3.4639-2.6382-4.8252l3.3379-3.3496
			c0.3896-0.3916,0.3886-1.0245-0.0025-1.4141c-0.3911-0.3916-1.0244-0.3897-1.4145,0.0019l-3.3794,3.3916
			c-1.3169-1.039-2.8574-1.7988-4.5381-2.2041C37.3921,15.2725,43.0386,12.832,48.4639,14.7021z M32,41.8184
			c-5.417,0-9.8237-4.4073-9.8237-9.8243S26.583,22.1699,32,22.1699s9.8237,4.4072,9.8237,9.8242S37.417,41.8184,32,41.8184z
			 M26.458,12.0635c1.9712-1.8457,4.147-3.8828,5.542-6.9551c1.3931,3.0693,3.5659,5.1055,5.5347,6.9492
			c0.5088,0.4766,0.9931,0.9404,1.4619,1.4072c-2.6714,1.3584-4.9048,3.6709-6.2818,6.7413
			c-0.2377-0.0147-0.4736-0.0362-0.7148-0.0362c-0.2798,0-0.5542,0.0225-0.8291,0.042c-1.3716-3.0351-3.5908-5.3223-6.2451-6.6699
			C25.416,13.0508,25.9233,12.5635,26.458,12.0635z M15.4512,14.7842c5.4189-1.8643,11.0556,0.5517,13.6758,5.7539
			c-1.6294,0.4082-3.1246,1.1514-4.4078,2.1592l-3.4419-3.4541c-0.3896-0.3916-1.0229-0.3916-1.4145-0.002
			c-0.3911,0.3897-0.3921,1.0225-0.0024,1.4141l3.3959,3.4082c-1.2646,1.3926-2.1987,3.084-2.6865,4.958
			c-2.6025-1.4961-4.5171-3.6797-5.4516-6.2481C14.1855,20.209,14.3022,17.4561,15.4512,14.7842z M12.0688,37.5391
			c-1.8496-1.9737-3.892-4.1514-6.9658-5.5459c3.0728-1.3946,5.1114-3.5694,6.9585-5.5391c0.5762-0.6152,1.1392-1.1943,1.7085-1.749
			c1.3076,2.6719,3.5557,4.8867,6.4522,6.3857c-0.023,0.2998-0.0459,0.5987-0.0459,0.9033c0,0.3838,0.0215,0.7637,0.0576,1.1387
			c-2.9121,1.5235-5.0615,3.7285-6.3081,6.291C13.3047,38.8291,12.6938,38.2051,12.0688,37.5391z M15.6157,49.3652
			c-2.3105-5.3955-0.2402-11.1406,5.0098-14.1826c0.4907,1.7481,1.3725,3.3291,2.5469,4.6504l-3.3384,3.3525
			c-0.3897,0.3916-0.3887,1.0254,0.0029,1.4151c0.1953,0.1943,0.4502,0.291,0.7056,0.291c0.2568,0,0.5132-0.0986,0.7085-0.2939
			l3.3677-3.3819c1.3593,1.0908,2.9643,1.8828,4.7172,2.2881C26.6904,48.8613,21.1333,51.2764,15.6157,49.3652z M37.5352,51.9395
			c-1.9693,1.8447-4.1426,3.8808-5.5357,6.9501c-1.395-3.0751-3.5688-5.1132-5.5381-6.9589
			c-0.479-0.4493-0.937-0.8858-1.3808-1.3252c2.6899-1.3701,4.9389-3.7129,6.3208-6.8174c0.1992,0.0098,0.3965,0.0303,0.5986,0.0303
			c0.2402,0,0.4751-0.0215,0.7119-0.0362c1.3779,3.0713,3.6152,5.3887,6.2886,6.7461
			C38.5308,50.9961,38.0449,51.4619,37.5352,51.9395z M48.4668,49.2803c-5.4194,1.8681-11.0664-0.5703-13.6943-5.8037
			c1.6962-0.4102,3.2509-1.1807,4.5752-2.2354l3.3715,3.3838c0.1954,0.1963,0.4522,0.2939,0.7085,0.2939
			c0.2554,0,0.5108-0.0976,0.7061-0.2919c0.3911-0.3897,0.3921-1.0225,0.0024-1.4141l-3.3369-3.3486
			c1.2139-1.3555,2.1167-2.9883,2.6045-4.795C48.6875,38.123,50.7798,43.8789,48.4668,49.2803z M51.9302,37.5352
			c-0.6001,0.6396-1.1856,1.2392-1.7793,1.8134c-1.2578-2.583-3.4312-4.8066-6.3784-6.3418
			c0.0283-0.3339,0.0512-0.6709,0.0512-1.0127c0-0.3447-0.0224-0.6845-0.0517-1.0224c2.9717-1.5469,5.1538-3.7949,6.4062-6.4043
			c0.603,0.5869,1.1973,1.2021,1.8057,1.8584c1.8354,1.9805,3.8618,4.167,6.917,5.5644
			C55.8223,33.3848,53.7803,35.5625,51.9302,37.5352z"/>
		<path d="M32,24.9795c-3.8672,0-7.0137,3.1465-7.0137,7.0146c0,3.8672,3.1465,7.0127,7.0137,7.0127s7.0137-3.1455,7.0137-7.0127
			C39.0137,28.126,35.8672,24.9795,32,24.9795z M32,37.0068c-2.7646,0-5.0137-2.249-5.0137-5.0127
			c0-2.7646,2.2491-5.0146,5.0137-5.0146s5.0137,2.25,5.0137,5.0146C37.0137,34.7578,34.7646,37.0068,32,37.0068z"/>
	</g>
</g>
<g id="rosella">
</g>
<g id="amaryllis">
</g>
<g id="lily_calla">
</g>
<g id="cleome">
</g>
<g id="euphorbia">
</g>
<g id="rafflesia">
</g>
<g id="krisan">
</g>
<g id="orchid">
</g>
<g id="anemone">
</g>
<g id="gaura">
</g>
<g id="poppy">
</g>
<g id="bluestar">
</g>
<g id="hydrangea">
</g>
<g id="leadwort">
</g>
<g id="anthurium">
</g>
<g id="blossom">
</g>
<g id="lily">
</g>
<g id="tulip">
</g>
<g id="sunflower">
</g>
<g id="jasmine">
</g>
<g id="bell">
</g>
<g id="rose">
</g>
<g id="zinnia">
</g>
<g id="buttercup">
</g>
</svg>
