<?xml version="1.0" encoding="iso-8859-1"?>
<!-- Generator: Adobe Illustrator 21.0.2, SVG Export Plug-In . SVG Version: 6.00 Build 0)  -->
<svg version="1.1" xmlns="http://www.w3.org/2000/svg" xmlns:xlink="http://www.w3.org/1999/xlink" x="0px" y="0px"
	 viewBox="0 0 64 64" style="enable-background:new 0 0 64 64;" xml:space="preserve">
<g id="crocus">
</g>
<g id="cactus">
</g>
<g id="anemone_1_">
</g>
<g id="twinflower">
</g>
<g id="_angelonia">
</g>
<g id="magnolia">
</g>
<g id="rosella">
</g>
<g id="amaryllis">
</g>
<g id="lily_calla">
</g>
<g id="cleome">
</g>
<g id="euphorbia">
</g>
<g id="rafflesia">
</g>
<g id="krisan">
</g>
<g id="orchid">
</g>
<g id="anemone">
</g>
<g id="gaura">
</g>
<g id="poppy">
</g>
<g id="bluestar">
</g>
<g id="hydrangea">
</g>
<g id="leadwort">
</g>
<g id="anthurium">
</g>
<g id="blossom">
</g>
<g id="lily">
</g>
<g id="tulip">
</g>
<g id="sunflower">
</g>
<g id="jasmine">
	<g>
		<path d="M62.3076,31.043c-2.1055-0.6802-3.8769-1.376-5.5908-2.0489c-2.1943-0.8623-4.1914-1.6377-6.3936-2.1884
			c0.9014-0.44,1.6836-0.8706,2.3233-1.294C58.0938,21.0981,59.1377,13.1191,57,7.9551c-0.0986-0.2398-0.2881-0.4317-0.5254-0.5352
			c-5.1318-2.2265-13.1269-1.3188-17.6855,4.1299c-0.4746,0.6904-0.9678,1.5635-1.4815,2.6108
			c-0.5556-2.4067-1.3857-4.541-2.3086-6.892c-0.6719-1.71-1.3662-3.4776-2.0459-5.5762C32.8203,1.2817,32.4395,1.0029,32.0088,1
			c-0.419-0.0205-0.8164,0.271-0.9541,0.6792c-0.6592,1.9473-1.3145,3.6138-1.9483,5.2256
			c-0.9755,2.4795-1.8505,4.7261-2.4238,7.2412c-0.5244-1.063-1.0312-1.9551-1.5263-2.6729
			c-4.5059-5.3745-12.503-6.2802-17.627-4.0527C7.291,7.5234,7.1025,7.7153,7.0039,7.9551
			c-2.1387,5.166-1.0947,13.1455,4.4316,17.6152c0.6065,0.3994,1.3604,0.8115,2.2334,1.2359
			c-2.2021,0.5507-4.1982,1.3271-6.3935,2.1894c-1.7119,0.6729-3.4824,1.3682-5.583,2.0474C1.2822,31.1758,1.0029,31.5566,1,31.9878
			c-0.0029,0.4311,0.2705,0.8154,0.6787,0.9541c1.9453,0.6587,3.6104,1.314,5.2197,1.9473
			c2.3291,0.9165,4.4444,1.7407,6.7637,2.3129c-0.8935,0.4371-1.6699,0.8648-2.3057,1.2857
			C5.9072,42.8975,4.8643,50.876,7.0039,56.042c0.0986,0.2392,0.2871,0.4307,0.5244,0.5342
			c1.6973,0.7383,3.708,1.1328,5.8057,1.1328c4.2373,0,8.8271-1.6123,11.8799-5.2588c0.4707-0.6856,0.9599-1.5527,1.4697-2.5918
			c0.5742,2.5103,1.4473,4.7544,2.4209,7.2295c0.6348,1.6138,1.291,3.2827,1.9502,5.2324C31.1924,62.7271,31.5732,63,32.002,63
			c0.0019,0,0.0048,0,0.0068,0c0.4307-0.0029,0.8115-0.2817,0.9443-0.6924c0.6807-2.1025,1.375-3.8725,2.0479-5.5845
			c0.9228-2.351,1.7529-4.4858,2.3076-6.8925c0.5273,1.0708,1.0381,1.9702,1.5381,2.6958
			c3.0078,3.5898,7.5722,5.1855,11.8008,5.1855c2.1035,0,4.124-0.395,5.8271-1.1357c0.2383-0.1035,0.4268-0.295,0.5254-0.5342
			c2.1387-5.1641,1.0947-13.1421-4.4326-17.6113c-0.6016-0.3975-1.3506-0.8086-2.2178-1.231
			c2.3125-0.5723,4.4229-1.394,6.7461-2.3086c1.6113-0.6338,3.2773-1.2895,5.2256-1.9492c0.4082-0.1387,0.6816-0.523,0.6787-0.9541
			C62.9971,31.5562,62.7178,31.1758,62.3076,31.043z M40.3799,12.7578c3.7402-4.4639,10.539-5.3467,14.9199-3.6577
			c1.6133,4.4082,0.6162,11.1885-3.834,14.7998c-1.6904,1.1147-4.5898,2.3569-8.8105,3.7832
			c-0.4551-1.1196-1.0782-2.1528-1.8438-3.0654l8.9033-8.8872c0.3916-0.3902,0.3916-1.023,0.002-1.4141
			c-0.3906-0.3916-1.0254-0.3916-1.4141-0.001l-8.9043,8.8877c-0.8671-0.7304-1.8408-1.3379-2.8974-1.789
			C37.998,17.2256,39.2871,14.3564,40.3799,12.7578z M32.002,41.501c-5.2403,0-9.503-4.2632-9.503-9.503
			c0-5.2392,4.2627-9.5019,9.503-9.5019c5.2392,0,9.5009,4.2627,9.5009,9.5019C41.5029,37.2378,37.2412,41.501,32.002,41.501z
			 M30.9678,7.6367c0.334-0.8501,0.6738-1.7153,1.0185-2.6304C32.374,6.0566,32.7588,7.0371,33.1367,8
			c1.2461,3.1724,2.3223,5.9268,2.71,9.4854c-0.4033,1.0043-0.8194,2.1093-1.251,3.3168c-0.835-0.1938-1.7002-0.3061-2.5937-0.3061
			c-0.8946,0-1.7618,0.1128-2.5977,0.3066c-0.4326-1.2109-0.8506-2.3198-1.2559-3.3281
			C28.5352,13.8354,29.6094,11.0889,30.9678,7.6367z M8.7041,9.1001c4.3779-1.689,11.1748-0.8081,14.8613,3.582
			C24.707,14.3437,26,17.2183,27.5,21.4155c-1.0566,0.4507-2.0293,1.0572-2.8955,1.7871l-8.9063-8.8877
			c-0.3906-0.3896-1.0234-0.3891-1.414,0.0015c-0.3897,0.3911-0.3897,1.0244,0.0019,1.4146l8.9053,8.8862
			c-0.7656,0.9126-1.3896,1.9453-1.8447,3.0654c-4.2158-1.4248-7.1104-2.6631-8.7324-3.7246
			C8.0889,20.292,7.0898,13.5093,8.7041,9.1001z M7.6309,33.0283c-0.8487-0.334-1.712-0.6738-2.625-1.0176
			c1.0527-0.3881,2.0361-0.7744,3.0009-1.1533c3.0186-1.1865,5.6397-2.2099,8.9248-2.6416
			c1.1358,0.4429,2.4161,0.9024,3.8243,1.3779c-0.1661,0.7759-0.2569,1.5792-0.2569,2.4043c0,0.8252,0.0918,1.6294,0.2578,2.4058
			c-1.4091,0.4761-2.6914,0.936-3.83,1.3814C13.5439,35.3481,10.7969,34.2734,7.6309,33.0283z M23.623,51.2417
			c-3.7441,4.4668-10.54,5.3481-14.9189,3.6553c-1.6162-4.4092-0.6191-11.1885,3.832-14.7969
			c1.6924-1.1167,4.5928-2.3594,8.8106-3.7856c0.456,1.1201,1.0791,2.1533,1.8447,3.0654l-8.9053,8.8862
			c-0.3916,0.3901-0.3916,1.0235-0.0019,1.4146c0.1953,0.1953,0.4521,0.2934,0.708,0.2934c0.2558,0,0.5107-0.0971,0.706-0.292
			l8.9073-8.8872c0.8662,0.7295,1.8388,1.336,2.8945,1.7866C26.001,46.7759,24.7129,49.647,23.623,51.2417z M33.1396,55.9922
			c-0.3789,0.9643-0.7656,1.9473-1.1533,3c-0.3447-0.917-0.6855-1.7842-1.0205-2.6362c-1.3574-3.4502-2.4306-6.1954-2.8174-9.8316
			c0.4043-1.0078,0.8223-2.1172,1.2559-3.3306c0.8359,0.1944,1.7031,0.3072,2.5977,0.3072c0.8935,0,1.7587-0.1123,2.5947-0.3062
			c0.4297,1.2056,0.8467,2.3101,1.251,3.3155C35.459,50.0669,34.3848,52.8203,33.1396,55.9922z M55.3008,54.897
			c-4.3809,1.6914-11.1778,0.8134-14.8623-3.5782c-1.1475-1.6743-2.4414-4.5493-3.9375-8.7358
			c1.0566-0.4512,2.0303-1.0586,2.8974-1.7891l8.9043,8.8882c0.1944,0.1949,0.4502,0.292,0.7061,0.292
			c0.2558,0,0.5127-0.0976,0.708-0.2934c0.3896-0.3911,0.3896-1.024-0.002-1.4146l-8.9033-8.8867
			c0.7647-0.9126,1.3887-1.9453,1.8438-3.0654c4.2217,1.4272,7.1162,2.6665,8.7324,3.7285
			C55.915,43.7085,56.9141,50.4893,55.3008,54.897z M56.3633,33.0303c-3.1621,1.2436-5.9063,2.3174-9.2842,2.7544
			c-1.1377-0.4439-2.4209-0.9048-3.833-1.3814c0.165-0.7763,0.2568-1.5801,0.2568-2.4053c0-0.8247-0.0908-1.6279-0.2568-2.4038
			c1.4062-0.4751,2.6855-0.934,3.8223-1.3784c3.2832,0.4336,5.9013,1.4561,8.917,2.6402c0.9667,0.3794,1.9521,0.7661,3.0068,1.1547
			C58.0781,32.3555,57.2129,32.6958,56.3633,33.0303z"/>
		<path d="M32.002,25.2661c-3.712,0-6.7325,3.02-6.7325,6.7319c0,3.7124,3.0205,6.733,6.7325,6.733
			c3.7119,0,6.7314-3.0206,6.7314-6.733C38.7334,28.2861,35.7139,25.2661,32.002,25.2661z M32.002,36.731
			c-2.6094,0-4.7325-2.1231-4.7325-4.733c0-2.6093,2.1231-4.7319,4.7325-4.7319c2.6093,0,4.7314,2.1226,4.7314,4.7319
			C36.7334,34.6079,34.6113,36.731,32.002,36.731z"/>
	</g>
</g>
<g id="bell">
</g>
<g id="rose">
</g>
<g id="zinnia">
</g>
<g id="buttercup">
</g>
</svg>
