<?xml version="1.0" encoding="utf-8"?>
<!-- Generator: Adobe Illustrator 22.0.0, SVG Export Plug-In . SVG Version: 6.00 Build 0)  -->
<svg version="1.1" id="Layer_1" xmlns="http://www.w3.org/2000/svg" xmlns:xlink="http://www.w3.org/1999/xlink" x="0px" y="0px"
	 viewBox="0 0 500 500" style="enable-background:new 0 0 500 500;" xml:space="preserve">
<style type="text/css">
	.st0{fill:#AAB1BA;}
	.st1{fill:#FDDF7F;}
	.st2{fill:#83E1E5;}
	.st3{fill:#1C1D21;}
</style>
<g>
	<path class="st0" d="M345.923,495H154.077c-15.199,0-27.521-12.322-27.521-27.521v-3.951c0-15.199,12.322-27.521,27.521-27.521
		h191.845c15.199,0,27.521,12.322,27.521,27.521v3.951C373.444,482.678,361.122,495,345.923,495z"/>
</g>
<g>
	<path class="st1" d="M403.644,365.229c-0.357-5.224-4.933-9.166-10.17-9.166h-65.488c-4.193,0-7.592-3.399-7.592-7.592v-24.607
		c0-14.813-8.639-27.605-21.152-33.622l-0.039-0.022c-0.58-0.278-1.169-0.539-1.764-0.787c-0.154-0.064-0.312-0.122-0.468-0.185
		c-0.444-0.178-0.891-0.352-1.343-0.513c-0.206-0.073-0.414-0.14-0.622-0.21c-0.408-0.137-0.818-0.271-1.232-0.394
		c-0.234-0.07-0.469-0.135-0.705-0.2c-0.396-0.11-0.794-0.213-1.196-0.31c-0.249-0.06-0.499-0.118-0.749-0.173
		c-0.397-0.087-0.797-0.166-1.199-0.24c-0.256-0.047-0.511-0.095-0.769-0.137c-0.41-0.067-0.824-0.123-1.239-0.177
		c-0.251-0.032-0.5-0.068-0.752-0.096c-0.452-0.049-0.907-0.083-1.363-0.116c-0.219-0.016-0.436-0.038-0.655-0.05
		c-0.67-0.036-1.344-0.057-2.023-0.057c-0.006,0-0.011,0-0.017,0h-5.334v20.248c0,15.337-12.433,27.771-27.771,27.771
		c-4.314,0-8.398-0.984-12.04-2.739c3.642,1.754,7.725,2.738,12.038,2.738c15.337,0,27.771-12.433,27.771-27.771v-20.248h-24.475
		v-0.104c29.406-1.707,52.728-26.086,52.728-55.92c0-30.941-25.083-56.024-56.024-56.024s-56.024,25.083-56.024,56.024
		c0,29.709,23.129,54.004,52.361,55.892v0.132h-24.108v0.001h-5.332c-0.008,0-0.015,0-0.023,0c-0.677,0-1.349,0.021-2.018,0.057
		c-0.221,0.012-0.44,0.034-0.66,0.05c-0.454,0.033-0.908,0.067-1.358,0.116c-0.254,0.028-0.505,0.064-0.757,0.096
		c-0.413,0.053-0.825,0.109-1.234,0.176c-0.26,0.042-0.517,0.091-0.775,0.138c-0.399,0.074-0.798,0.152-1.193,0.239
		c-0.253,0.055-0.504,0.114-0.755,0.174c-0.399,0.096-0.796,0.2-1.19,0.309c-0.238,0.066-0.475,0.131-0.71,0.202
		c-0.412,0.123-0.82,0.255-1.225,0.392c-0.209,0.071-0.42,0.138-0.628,0.212c-0.45,0.16-0.894,0.333-1.335,0.51
		c-0.158,0.063-0.318,0.122-0.475,0.187c-0.595,0.248-1.184,0.509-1.763,0.787l-0.039,0.021
		c-12.513,6.017-21.153,18.809-21.153,33.622v24.607c0,4.193-3.399,7.592-7.592,7.592h-65.488c-5.236,0-9.813,3.941-10.17,9.166
		c-0.392,5.729,4.115,10.509,9.76,10.552l32.664,0.118c9.455,0.034,18.823,1.809,27.635,5.236l34.382,13.371v36.323v5.18h13.759V495
		h70.888v-58.992h13.759v-41.502l34.382-13.371c8.812-3.427,18.18-5.202,27.635-5.236l32.664-0.118
		C399.529,375.738,404.036,370.958,403.644,365.229z"/>
</g>
<g>
	<path class="st2" d="M299.203,344.432v-54.211c-0.58-0.278-1.169-0.539-1.764-0.787c-0.154-0.064-0.312-0.122-0.468-0.185
		c-0.444-0.178-0.891-0.352-1.343-0.513c-0.206-0.073-0.414-0.14-0.622-0.21c-0.408-0.137-0.818-0.271-1.232-0.394
		c-0.234-0.07-0.469-0.135-0.705-0.2c-0.396-0.11-0.794-0.213-1.196-0.31c-0.249-0.06-0.499-0.118-0.749-0.173
		c-0.397-0.087-0.797-0.166-1.199-0.24c-0.256-0.047-0.511-0.095-0.769-0.137c-0.41-0.067-0.824-0.123-1.239-0.177
		c-0.251-0.032-0.5-0.068-0.752-0.096c-0.452-0.049-0.907-0.083-1.363-0.116c-0.219-0.016-0.436-0.038-0.655-0.05
		c-0.67-0.036-1.344-0.057-2.023-0.057c-0.006,0-0.011,0-0.017,0h-5.334v20.248c0,15.337-12.433,27.771-27.771,27.771l0,0
		c-15.337,0-27.771-12.433-27.771-27.771v-20.248h-5.334c-0.008,0-0.015,0-0.023,0c-0.677,0-1.349,0.021-2.018,0.057
		c-0.221,0.012-0.44,0.034-0.66,0.05c-0.454,0.033-0.908,0.067-1.358,0.116c-0.254,0.028-0.505,0.064-0.757,0.096
		c-0.413,0.053-0.825,0.109-1.234,0.176c-0.26,0.042-0.517,0.091-0.775,0.138c-0.399,0.074-0.798,0.152-1.193,0.239
		c-0.253,0.055-0.504,0.114-0.755,0.174c-0.399,0.096-0.796,0.2-1.19,0.309c-0.238,0.066-0.475,0.131-0.71,0.202
		c-0.412,0.123-0.82,0.255-1.225,0.392c-0.209,0.071-0.42,0.138-0.628,0.212c-0.45,0.16-0.894,0.333-1.335,0.51
		c-0.158,0.063-0.318,0.122-0.475,0.187c-0.595,0.248-1.184,0.509-1.763,0.787v54.211c0,11.825,9.586,21.412,21.412,21.412h55.584
		C289.617,365.844,299.203,356.257,299.203,344.432z"/>
</g>
<g>
	<path class="st1" d="M290.393,98.637c-0.155-5.43-1.399-10.894-3.834-16.06L250,5l-36.559,77.577
		c-2.435,5.166-3.679,10.63-3.834,16.06c-15.501-5.571-42.75-15.363-42.75-15.363l20.159,56.095
		c4.509,12.547,17.216,20.195,30.414,18.307c10.588-1.515,19.227-8.863,22.595-18.71c6.542,1.664,13.409,1.664,19.951,0
		c3.368,9.847,12.006,17.195,22.595,18.71c13.198,1.888,25.905-5.761,30.414-18.307l20.159-56.095
		C333.143,83.274,305.895,93.067,290.393,98.637z"/>
</g>
<g>
	<path class="st2" d="M274.243,132.143c10.778-8.08,16.515-20.699,16.15-33.506c-4.839,1.739-13.345,4.796-13.345,4.796
		c-12.547,4.509-20.195,17.216-18.307,30.414l0,0c0.253,1.767,0.673,3.477,1.235,5.12
		C265.026,137.682,269.883,135.412,274.243,132.143L274.243,132.143z"/>
</g>
<g>
	<path class="st2" d="M241.259,133.847c1.888-13.198-5.761-25.905-18.307-30.414c0,0-8.506-3.057-13.345-4.796
		c-0.365,12.807,5.373,25.426,16.15,33.506l0,0c4.36,3.269,9.217,5.539,14.267,6.824
		C240.586,137.324,241.007,135.614,241.259,133.847L241.259,133.847z"/>
</g>
<g>
	<path class="st1" d="M109.784,182.972c-5.43,0.155-10.894,1.399-16.06,3.834l-77.577,36.559l77.577,36.559
		c5.166,2.435,10.63,3.679,16.06,3.834c-5.571,15.501-15.363,42.75-15.363,42.75l56.095-20.159
		c12.547-4.509,20.195-17.216,18.307-30.414c-1.515-10.588-8.863-19.227-18.71-22.595c1.664-6.542,1.664-13.409,0-19.951
		c9.847-3.368,17.195-12.006,18.71-22.595c1.888-13.198-5.761-25.905-18.307-30.414L94.42,140.222
		C94.42,140.222,104.213,167.47,109.784,182.972z"/>
</g>
<g>
	<path class="st2" d="M143.289,199.122c-8.08-10.778-20.699-16.515-33.506-16.15c1.739,4.839,4.796,13.345,4.796,13.345
		c4.509,12.547,17.216,20.195,30.414,18.307l0,0c1.767-0.253,3.477-0.673,5.12-1.235
		C148.828,208.339,146.558,203.482,143.289,199.122L143.289,199.122z"/>
</g>
<g>
	<path class="st2" d="M144.993,232.106c-13.198-1.888-25.905,5.761-30.414,18.307c0,0-3.057,8.506-4.796,13.345
		c12.807,0.365,25.426-5.373,33.506-16.15l0,0c3.269-4.36,5.539-9.217,6.824-14.267C148.47,232.779,146.76,232.358,144.993,232.106
		L144.993,232.106z"/>
</g>
<g>
	<path class="st1" d="M390.216,182.972c5.43,0.155,10.894,1.399,16.06,3.834l77.577,36.559l-77.577,36.559
		c-5.166,2.435-10.63,3.679-16.06,3.834c5.571,15.501,15.363,42.75,15.363,42.75l-56.095-20.159
		c-12.547-4.509-20.195-17.216-18.307-30.414c1.515-10.588,8.863-19.227,18.71-22.595c-1.664-6.542-1.664-13.409,0-19.951
		c-9.847-3.368-17.195-12.006-18.71-22.595c-1.888-13.198,5.761-25.905,18.307-30.414l56.095-20.159
		C405.58,140.222,395.787,167.47,390.216,182.972z"/>
</g>
<g>
	<path class="st2" d="M356.711,199.122c8.08-10.778,20.699-16.515,33.506-16.15c-1.739,4.839-4.796,13.345-4.796,13.345
		c-4.509,12.547-17.216,20.195-30.414,18.307l0,0c-1.767-0.253-3.477-0.673-5.12-1.235
		C351.172,208.339,353.442,203.482,356.711,199.122L356.711,199.122z"/>
</g>
<g>
	<path class="st2" d="M355.007,232.106c13.198-1.888,25.905,5.761,30.414,18.307c0,0,3.057,8.506,4.796,13.345
		c-12.807,0.365-25.426-5.373-33.506-16.15l0,0c-3.269-4.36-5.539-9.217-6.824-14.267
		C351.53,232.779,353.24,232.358,355.007,232.106L355.007,232.106z"/>
</g>
<path class="st3" d="M182.311,141.06c4.754,13.23,17.42,21.897,31.179,21.897c1.539,0,3.092-0.108,4.648-0.331
	c10.89-1.558,20.122-8.492,24.901-17.997c2.306,0.353,4.633,0.533,6.961,0.533s4.655-0.18,6.961-0.533
	c4.78,9.504,14.011,16.439,24.901,17.997c1.558,0.224,3.108,0.331,4.648,0.331c13.758,0,26.425-8.668,31.179-21.896l20.159-56.095
	c0.655-1.822,0.199-3.858-1.17-5.227c-1.368-1.369-3.402-1.825-5.227-1.17l-36.766,13.212c-0.684-3.857-1.876-7.668-3.604-11.336
	l-36.56-77.577C253.697,1.117,251.936,0,250,0s-3.697,1.117-4.522,2.868l-36.561,77.577c-1.729,3.668-2.92,7.48-3.604,11.336
	l-36.765-13.212c-1.824-0.655-3.858-0.199-5.227,1.17c-1.369,1.368-1.825,3.404-1.17,5.227L182.311,141.06z M236.375,132.475
	c-2.673-1.106-5.237-2.547-7.62-4.333c-7.378-5.531-12.061-13.564-13.591-22.194l6.096,2.19
	C231.314,111.752,237.573,121.914,236.375,132.475z M278.739,108.139l6.095-2.19c-1.529,8.63-6.212,16.664-13.59,22.194
	c-2.382,1.786-4.946,3.227-7.62,4.333C262.427,121.914,268.686,111.752,278.739,108.139z M308.279,137.679
	c-3.688,10.265-14.209,16.592-25.001,15.049c-6.907-0.989-12.858-5.077-16.39-10.794c3.639-1.446,7.127-3.37,10.354-5.789
	c11.014-8.257,17.347-20.86,18.063-33.959l29.544-10.617L308.279,137.679z M217.963,84.709L250,16.729l32.036,67.98
	c1.598,3.391,2.605,6.94,3.063,10.518l-9.743,3.501c-14.709,5.286-23.779,20.354-21.565,35.826c0.019,0.131,0.052,0.257,0.072,0.387
	c-2.568,0.278-5.157,0.278-7.726,0c0.02-0.13,0.053-0.256,0.072-0.387c2.214-15.473-6.856-30.54-21.565-35.826l-9.744-3.501
	C215.357,91.649,216.365,88.1,217.963,84.709z M204.695,102.186c0.716,13.099,7.049,25.702,18.063,33.959
	c3.227,2.419,6.715,4.343,10.354,5.789c-3.532,5.717-9.483,9.805-16.39,10.794c-10.793,1.54-21.313-4.784-25.001-15.05
	l-16.57-46.109L204.695,102.186z M102.931,268.042l-13.216,36.775c-0.655,1.822-0.199,3.858,1.17,5.227
	c0.954,0.954,2.232,1.465,3.536,1.465c0.566,0,1.138-0.097,1.69-0.295l56.096-20.159c14.709-5.286,23.779-20.354,21.565-35.826
	c-1.558-10.89-8.492-20.122-17.997-24.901c0.706-4.611,0.706-9.312,0-13.923c9.505-4.78,16.439-14.011,17.997-24.901
	c2.214-15.474-6.856-30.541-21.565-35.827l-56.096-20.159c-1.824-0.654-3.858-0.199-5.227,1.17c-1.369,1.368-1.825,3.404-1.17,5.227
	l13.213,36.766c-3.856,0.684-7.668,1.876-11.336,3.604l-77.577,36.56c-1.751,0.825-2.868,2.587-2.868,4.522s1.117,3.697,2.868,4.522
	l77.576,36.559C95.26,266.176,99.074,267.358,102.931,268.042z M163.874,256.644c1.544,10.797-4.785,21.311-15.05,25l-46.11,16.57
	l10.615-29.537c13.099-0.715,25.704-7.055,33.961-18.069c2.419-3.228,4.343-6.715,5.789-10.354
	C158.796,243.785,162.885,249.736,163.874,256.644z M117.094,258.199l2.19-6.095c3.317-9.231,12.156-15.279,21.757-15.279
	c0.855,0,1.718,0.062,2.582,0.16c-1.106,2.676-2.548,5.241-4.335,7.625C133.758,251.987,125.724,256.669,117.094,258.199z
	 M148.824,165.086c10.265,3.689,16.594,14.203,15.05,25.001c-0.989,6.907-5.078,12.858-10.795,16.39
	c-1.446-3.639-3.37-7.126-5.789-10.354c-8.256-11.013-20.86-17.347-33.959-18.063l-10.617-29.544L148.824,165.086z M143.621,209.74
	c-10.56,1.198-20.723-5.061-24.336-15.115l-2.189-6.093c8.629,1.53,16.663,6.211,22.193,13.589
	C141.074,204.503,142.515,207.067,143.621,209.74z M95.855,191.328c3.391-1.597,6.939-2.604,10.518-3.062l3.5,9.74
	c4.754,13.231,17.419,21.898,31.177,21.898c1.539,0,3.094-0.109,4.65-0.332c0.13-0.019,0.256-0.052,0.386-0.072
	c0.278,2.569,0.278,5.158,0,7.727c-0.13-0.02-0.255-0.053-0.386-0.072c-15.476-2.223-30.541,6.856-35.827,21.565l-3.501,9.742
	c-3.578-0.458-7.127-1.465-10.519-3.063l-67.979-32.036L95.855,191.328z M485.985,218.843l-77.577-36.56
	c-3.668-1.729-7.479-2.921-11.335-3.605l13.212-36.765c0.655-1.822,0.199-3.858-1.17-5.227c-1.369-1.369-3.402-1.824-5.227-1.17
	l-56.096,20.159c-14.709,5.286-23.779,20.354-21.565,35.827c1.558,10.89,8.492,20.121,17.997,24.901
	c-0.706,4.611-0.706,9.312,0,13.923c-9.505,4.78-16.439,14.012-17.997,24.901c-2.214,15.473,6.856,30.54,21.565,35.826
	l56.096,20.159c0.553,0.198,1.124,0.295,1.69,0.295c1.304,0,2.582-0.511,3.536-1.465c1.369-1.368,1.825-3.404,1.17-5.227
	l-13.216-36.775c3.857-0.684,7.671-1.866,11.34-3.595l77.576-36.559c1.751-0.825,2.868-2.587,2.868-4.522
	S487.736,219.668,485.985,218.843z M336.126,190.087c-1.544-10.798,4.785-21.312,15.05-25.001l46.11-16.57l-10.617,29.543
	c-13.099,0.715-25.702,7.05-33.959,18.065c-2.419,3.227-4.343,6.715-5.789,10.354C341.204,202.945,337.115,196.994,336.126,190.087z
	 M382.908,188.527l-2.192,6.099c-3.614,10.053-13.777,16.309-24.336,15.114c1.106-2.674,2.546-5.237,4.333-7.619
	C366.243,194.742,374.277,190.056,382.908,188.527z M351.176,281.644c-10.265-3.689-16.594-14.203-15.05-25
	c0.989-6.908,5.078-12.859,10.795-16.391c1.446,3.639,3.37,7.127,5.789,10.354c8.258,11.015,20.862,17.354,33.961,18.069
	l10.615,29.537L351.176,281.644z M356.377,236.984c0.864-0.098,1.726-0.16,2.582-0.16c9.6,0,18.439,6.049,21.757,15.28l2.19,6.095
	c-8.63-1.53-16.664-6.213-22.194-13.591C358.925,242.226,357.483,239.66,356.377,236.984z M404.146,255.401
	c-3.391,1.598-6.94,2.606-10.518,3.064l-3.501-9.743c-5.286-14.711-20.352-23.78-35.827-21.566c-0.13,0.019-0.256,0.052-0.386,0.072
	c-0.278-2.569-0.278-5.158,0-7.727c0.13,0.02,0.255,0.053,0.386,0.072c1.558,0.224,3.109,0.332,4.65,0.332
	c13.756,0,26.423-8.669,31.177-21.897l3.499-9.736c3.579,0.458,7.128,1.458,10.52,3.056l67.98,32.037L404.146,255.401z
	 M72.948,442.5v-5.975h-5.975c-2.762,0-5-2.238-5-5s2.238-5,5-5h5.975v-5.975c0-2.762,2.238-5,5-5s5,2.238,5,5v5.975h5.975
	c2.762,0,5,2.238,5,5s-2.238,5-5,5h-5.975v5.975c0,2.762-2.238,5-5,5S72.948,445.262,72.948,442.5z M427.052,420.551v5.975h5.975
	c2.762,0,5,2.238,5,5s-2.238,5-5,5h-5.975v5.975c0,2.762-2.238,5-5,5s-5-2.238-5-5v-5.975h-5.975c-2.762,0-5-2.238-5-5s2.238-5,5-5
	h5.975v-5.975c0-2.762,2.238-5,5-5S427.052,417.789,427.052,420.551z M49.205,495c0,2.762-2.238,5-5,5h-7.097c-2.762,0-5-2.238-5-5
	s2.238-5,5-5h7.097C46.967,490,49.205,492.238,49.205,495z M438.055,490H369.35c5.625-5.849,9.093-13.785,9.093-22.521v-3.951
	c0-17.932-14.589-32.521-32.521-32.521H154.077c-17.932,0-32.521,14.589-32.521,32.521v3.951c0,8.736,3.469,16.672,9.093,22.521
	H61.945c-2.762,0-5,2.238-5,5s2.238,5,5,5h92.132h1.896h188.055h1.896h92.132c2.762,0,5-2.238,5-5S440.816,490,438.055,490z
	 M154.077,490c-12.418,0-22.521-10.103-22.521-22.521v-3.951c0-12.418,10.103-22.521,22.521-22.521h126.367v19.496h-60.889v-8.508
	c0-2.762-2.238-5-5-5s-5,2.238-5,5V490h-53.583H154.077z M344.027,490H219.556v-19.496h60.889v8.071c0,2.762,2.238,5,5,5
	s5-2.238,5-5v-37.567h55.479c12.418,0,22.521,10.103,22.521,22.521v3.951c0,12.418-10.103,22.521-22.521,22.521L344.027,490
	L344.027,490z M467.892,495c0,2.762-2.238,5-5,5h-7.097c-2.762,0-5-2.238-5-5s2.238-5,5-5h7.097
	C465.653,490,467.892,492.238,467.892,495z M301.514,285.786c-0.05-0.025-0.101-0.051-0.15-0.075
	c-0.657-0.314-1.326-0.611-1.996-0.891c-0.132-0.055-0.265-0.107-0.397-0.158l-0.132-0.052c-0.507-0.204-1.017-0.4-1.535-0.585
	c-0.167-0.06-0.335-0.116-0.503-0.172l-0.205-0.069c-0.459-0.153-0.92-0.303-1.396-0.445c-0.268-0.079-0.538-0.155-0.799-0.228
	c-0.449-0.124-0.9-0.241-1.341-0.348c-0.288-0.07-0.578-0.138-0.866-0.2c-0.45-0.099-0.904-0.188-1.369-0.274
	c-0.287-0.054-0.574-0.106-0.87-0.154c-0.462-0.075-0.929-0.14-1.397-0.2l-0.204-0.026c-0.215-0.029-0.431-0.058-0.649-0.081
	c-0.509-0.056-1.023-0.095-1.545-0.133l-0.208-0.017c-0.171-0.014-0.343-0.027-0.534-0.039c-0.659-0.035-1.329-0.05-2.012-0.056
	c16.618-10.914,27.621-29.708,27.621-51.033c0-33.649-27.375-61.024-61.024-61.024s-61.024,27.375-61.024,61.024
	c0,21.324,11.002,40.118,27.62,51.032c-0.675,0.006-1.346,0.022-2.029,0.058c-0.172,0.011-0.344,0.023-0.515,0.038l-0.223,0.018
	c-0.514,0.037-1.026,0.077-1.528,0.131c-0.235,0.025-0.468,0.057-0.701,0.088l-0.153,0.021c-0.47,0.061-0.938,0.125-1.402,0.2
	c-0.302,0.049-0.604,0.104-0.875,0.156c-0.454,0.083-0.907,0.173-1.365,0.273c-0.288,0.063-0.573,0.129-0.857,0.198
	c-0.452,0.109-0.902,0.226-1.343,0.348c-0.271,0.075-0.543,0.151-0.812,0.231c-0.469,0.14-0.933,0.289-1.383,0.441l-0.161,0.054
	c-0.189,0.063-0.379,0.126-0.563,0.191c-0.509,0.183-1.012,0.377-1.523,0.582l-0.524,0.207c-0.676,0.282-1.344,0.579-2.001,0.894
	c-0.039,0.019-0.086,0.043-0.134,0.067c-14.521,7.023-23.897,21.962-23.897,38.086v24.607c0,1.429-1.163,2.592-2.593,2.592h-32.423
	c0.476-1.437,0.743-2.968,0.743-4.563c0-8.029-6.532-14.562-14.562-14.562s-14.562,6.532-14.562,14.562
	c0,1.594,0.267,3.125,0.743,4.563h-5.426c-7.971,0-14.628,6.072-15.157,13.823c-0.284,4.144,1.109,8.098,3.923,11.134
	c2.775,2.994,6.707,4.729,10.808,4.761l32.663,0.117c4.471,0.016,8.895,0.445,13.244,1.275c0.044,0.01,0.087,0.02,0.132,0.028
	c4.237,0.817,8.403,2.014,12.465,3.594l31.194,12.131v20.967c0,2.762,2.238,5,5,5s5-2.238,5-5v-24.387v-29.403
	c4.511,3.589,10.212,5.741,16.411,5.741h55.585c6.199,0,11.9-2.152,16.411-5.741v29.403v24.387c0,2.762,2.238,5,5,5s5-2.238,5-5
	v-20.967l31.194-12.131c4.062-1.58,8.227-2.776,12.464-3.593c0.045-0.009,0.09-0.019,0.135-0.029
	c4.347-0.83,8.771-1.258,13.241-1.274l32.685-0.117c4.08-0.031,8.012-1.766,10.786-4.76c2.814-3.036,4.208-6.99,3.925-11.135
	c-0.53-7.751-7.188-13.823-15.158-13.823h-5.426c0.476-1.437,0.743-2.968,0.743-4.563c0-8.029-6.532-14.562-14.562-14.562
	s-14.562,6.532-14.562,14.562c0,1.594,0.267,3.125,0.743,4.563h-32.424c-1.429,0-2.592-1.163-2.592-2.592v-24.607
	C325.395,307.746,316.025,292.813,301.514,285.786z M125.77,341.939c2.516,0,4.562,2.046,4.562,4.562s-2.046,4.562-4.562,4.562
	s-4.562-2.046-4.562-4.562S123.254,341.939,125.77,341.939z M374.229,341.939c2.516,0,4.562,2.046,4.562,4.562
	s-2.046,4.562-4.562,4.562s-4.562-2.046-4.562-4.562S371.714,341.939,374.229,341.939z M198.976,230.55
	c0-28.135,22.89-51.024,51.024-51.024s51.024,22.89,51.024,51.024s-22.89,51.024-51.024,51.024S198.976,258.685,198.976,230.55z
	 M250,291.574c8.048,0,15.729-1.581,22.771-4.424v19.672c0,12.556-10.215,22.771-22.771,22.771c-2.747,0-5.381-0.489-7.821-1.384
	c-8.715-3.197-14.949-11.578-14.949-21.387V287.15C234.27,289.993,241.952,291.574,250,291.574z M106.153,370.781
	c-1.354-0.01-2.606-0.563-3.528-1.558c-0.92-0.992-1.375-2.29-1.281-3.654c0.17-2.484,2.493-4.506,5.181-4.506h41.559v10.414
	c-3.072-0.36-6.167-0.568-9.286-0.579L106.153,370.781z M168.227,376.475c-3.325-1.292-6.711-2.35-10.144-3.196v-12.215h13.929
	c6.943,0,12.593-5.648,12.593-12.592v-24.607c0-9.444,4.224-18.344,11.191-24.405v44.972v42.765L168.227,376.475z M277.792,360.844
	h-22.793v-8.067c0-2.762-2.238-5-5-5s-5,2.238-5,5v8.067h-22.792c-9.049,0-16.411-7.362-16.411-16.412v-50.889
	c0.087-0.032,0.172-0.068,0.261-0.1l0.539-0.182c0.35-0.117,0.702-0.231,1.059-0.338c0.201-0.061,0.404-0.117,0.614-0.175
	c0.342-0.095,0.685-0.184,1.031-0.268c0.216-0.052,0.435-0.103,0.643-0.148c0.341-0.074,0.685-0.143,1.059-0.211
	c0.215-0.041,0.429-0.081,0.645-0.116c0.354-0.058,0.71-0.106,1.087-0.154l0.203-0.027c0.146-0.02,0.29-0.039,0.44-0.056
	c0.392-0.043,0.787-0.071,1.171-0.1l0.576-0.044c0.582-0.032,1.167-0.05,1.771-0.051h0.334v15.247v0.001
	c0,13.552,8.27,25.209,20.027,30.191c3.919,1.66,8.227,2.579,12.744,2.579c18.069,0,32.771-14.701,32.771-32.771v-15.248h0.345
	c0.591,0.001,1.178,0.019,1.742,0.049l0.58,0.045c0.397,0.029,0.795,0.059,1.188,0.101c0.135,0.015,0.269,0.033,0.402,0.051
	l0.247,0.033c0.363,0.047,0.725,0.096,1.078,0.152c0.212,0.035,0.422,0.074,0.663,0.12c0.349,0.064,0.695,0.133,1.044,0.209
	c0.21,0.046,0.42,0.094,0.643,0.148c0.348,0.083,0.693,0.174,1.047,0.271c0.2,0.056,0.402,0.111,0.591,0.168
	c0.362,0.108,0.722,0.225,1.059,0.338l0.551,0.187c0.085,0.031,0.169,0.065,0.254,0.097v50.888
	C294.203,353.481,286.841,360.844,277.792,360.844z M398.656,365.569c0.093,1.364-0.362,2.662-1.282,3.654
	c-0.921,0.994-2.175,1.548-3.508,1.558l-32.665,0.117c-3.118,0.011-6.214,0.219-9.285,0.579v-10.414h41.559
	C396.162,361.063,398.486,363.085,398.656,365.569z M327.986,361.063h13.93v12.215c-3.432,0.845-6.819,1.903-10.144,3.196
	l-27.569,10.722v-42.765v-44.972c6.968,6.061,11.191,14.961,11.191,24.405v24.607C315.395,355.415,321.043,361.063,327.986,361.063z
	 M250,407.226c2.762,0,5,2.238,5,5v3.343c0,2.762-2.238,5-5,5s-5-2.238-5-5v-3.343C245,409.464,247.238,407.226,250,407.226z"/>
</svg>
