<?xml version="1.0" encoding="utf-8"?>
<!-- Generator: Adobe Illustrator 22.0.0, SVG Export Plug-In . SVG Version: 6.00 Build 0)  -->
<svg version="1.1" id="Layer_1" xmlns="http://www.w3.org/2000/svg" xmlns:xlink="http://www.w3.org/1999/xlink" x="0px" y="0px"
	 viewBox="0 0 500 500" style="enable-background:new 0 0 500 500;" xml:space="preserve">
<style type="text/css">
	.st0{fill:#FDDF7F;}
	.st1{fill:#ECF4F7;}
	.st2{fill:#83E1E5;}
	.st3{fill:#1C1D21;}
	.st4{fill:#AAB1BA;}
</style>
<g>
	<path class="st1" d="M348.314,495H151.686c-15.578,0-28.207-12.629-28.207-28.207v-4.049c0-15.578,12.629-28.207,28.207-28.207
		h196.628c15.578,0,28.207,12.629,28.207,28.207v4.049C376.521,482.371,363.893,495,348.314,495z"/>
</g>
<g>
	<path class="st0" d="M273.356,281.378h-46.711c-29.259,0-52.978,23.719-52.978,52.978v100.181h40.005V495h72.656v-60.463h40.005
		V334.356C326.333,305.097,302.614,281.378,273.356,281.378z"/>
</g>
<g>
	<path class="st1" d="M411.858,223.957c0-88.756-71.438-160.826-159.952-161.847c-88.544-1.022-161.987,70.047-163.732,158.58
		c-1.162,58.946,29.199,110.882,75.363,140.111l0,0l5.4,3.263c1.427,0.863,3.063,1.318,4.731,1.318V360.8v-26.445
		c0-5.158,0.751-10.137,2.125-14.851c-28.021-21.794-46.21-55.632-46.766-93.747c-0.971-66.521,52.721-121.847,119.243-122.776
		c67.613-0.945,122.718,53.58,122.718,120.975c0,38.848-18.317,73.41-46.778,95.547c-6.421-22.028-26.753-38.125-50.854-38.125
		h-9.022v54.039c0,19.376-15.707,35.083-35.083,35.083H205V397c0,3.866,3.134,7,7,7h76c3.866,0,7-3.134,7-7v-65h31.274l0.06,2.356
		V360.8v4.581c1.668,0,3.304-0.456,4.731-1.318l5.4-3.263l0,0C381.772,332.112,411.858,281.551,411.858,223.957z"/>
</g>
<g>
	<path class="st4" d="M266.25,155.847c1.449-2.641,2.276-5.671,2.276-8.896c0-10.231-8.294-18.525-18.525-18.525
		s-18.525,8.294-18.525,18.525c0,3.225,0.827,6.255,2.276,8.896c-23.796,7.011-41.171,29.007-41.171,55.074v13.036h11.967
		c3.208,0,6.006-2.177,6.795-5.286l1.976-7.787c1.774-6.99,8.065-11.884,15.276-11.884H250h21.406
		c7.211,0,13.502,4.894,15.276,11.884l1.976,7.787c0.789,3.109,3.588,5.286,6.795,5.286h11.967v-13.036
		C307.421,184.854,290.046,162.858,266.25,155.847z"/>
</g>
<g>
	<path class="st0" d="M288.658,218.67l-1.976-7.787c-1.774-6.99-8.065-11.884-15.276-11.884H250h-21.406
		c-7.211,0-13.502,4.894-15.276,11.884l-1.976,7.787c-0.789,3.109-3.588,5.286-6.795,5.286h-11.967
		c0,31.713,25.708,57.421,57.421,57.421s57.421-25.708,57.421-57.421h-11.967C292.246,223.957,289.448,221.78,288.658,218.67z"/>
</g>
<g>
	<path class="st2" d="M370.987,223.957c0-66.82-54.168-120.987-120.987-120.987s-120.987,54.168-120.987,120.987
		c0,38.849,18.318,73.412,46.779,95.548l0,0c6.423-22.027,26.751-38.127,50.852-38.127H250c-31.713,0-57.421-25.708-57.421-57.421
		v-13.036c0-26.067,17.375-48.063,41.171-55.074c-1.449-2.641-2.276-5.671-2.276-8.896c0-10.231,8.294-18.525,18.525-18.525
		s18.525,8.294,18.525,18.525c0,3.225-0.827,6.255-2.276,8.896c23.796,7.011,41.171,29.007,41.171,55.074v13.036
		c0,31.713-25.708,57.421-57.421,57.421h23.356c24.101,0,44.429,16.1,50.852,38.127l0,0
		C352.669,297.369,370.987,262.806,370.987,223.957z"/>
</g>
<path class="st3" d="M333.884,304.029c20.702-21.676,32.103-50.113,32.103-80.072c0-31.288-12.271-60.62-34.551-82.59
	c-22.276-21.966-51.777-33.813-83.098-33.385c-37.476,0.524-72.628,19.474-94.034,50.692c-1.561,2.278-4.674,2.858-6.951,1.296
	c-2.277-1.562-2.858-4.674-1.296-6.951c23.239-33.893,61.423-54.467,102.142-55.036c33.983-0.484,66.062,12.403,90.259,36.264
	c24.201,23.865,37.529,55.725,37.529,89.711c0,32.544-12.384,63.434-34.872,86.979c-0.982,1.028-2.298,1.546-3.616,1.546
	c-1.242,0-2.484-0.459-3.453-1.384C332.05,309.191,331.977,306.026,333.884,304.029z M138.152,177.742
	c0.684,0.319,1.402,0.47,2.11,0.47c1.883,0,3.687-1.068,4.535-2.888c0.478-1.024,0.97-2.04,1.477-3.048
	c1.24-2.467,0.246-5.473-2.221-6.713c-2.467-1.24-5.472-0.246-6.713,2.221c-0.551,1.096-1.085,2.2-1.604,3.313
	C134.566,173.6,135.649,176.575,138.152,177.742z M129.509,187.28c-3.83,12.472-5.674,25.442-5.482,38.551
	c0.463,31.707,12.758,61.843,34.62,84.857c0.983,1.035,2.303,1.556,3.626,1.556c1.236,0,2.475-0.456,3.443-1.375
	c2.002-1.902,2.083-5.066,0.181-7.068c-20.126-21.187-31.444-48.929-31.871-78.116c-0.176-12.063,1.521-23.997,5.043-35.469
	c0.811-2.64-0.672-5.437-3.312-6.248C133.116,183.159,130.32,184.641,129.509,187.28z M152.134,359.105
	c2.235,1.621,5.361,1.125,6.983-1.112c1.622-2.235,1.124-5.362-1.112-6.983c-41.608-30.18-65.845-78.861-64.832-130.222
	c1.689-85.729,72.852-154.672,158.675-153.679c85.473,0.986,155.01,71.348,155.01,156.848c0,50.743-24.755,98.596-66.22,128.009
	c-2.252,1.598-2.783,4.719-1.186,6.971c0.975,1.375,2.517,2.108,4.083,2.108c1,0,2.01-0.299,2.888-0.922
	c44.104-31.284,70.435-82.187,70.435-136.165c0-44.228-17.128-85.899-48.229-117.34c-31.076-31.416-72.508-48.998-116.666-49.507
	c-0.652-0.008-1.291-0.011-1.94-0.011c-90.397,0-165.063,72.947-166.848,163.492C82.098,275.223,107.877,327.004,152.134,359.105z
	 M365.44,402.517c2.761,0,5-2.239,5-5v-5.975h5.974c2.761,0,5-2.239,5-5s-2.239-5-5-5h-5.974v-5.975c0-2.761-2.239-5-5-5
	s-5,2.239-5,5v5.975h-5.975c-2.761,0-5,2.239-5,5s2.239,5,5,5h5.975v5.975C360.44,400.278,362.679,402.517,365.44,402.517z
	 M134.56,402.517c2.761,0,5-2.239,5-5v-5.975h5.975c2.761,0,5-2.239,5-5s-2.239-5-5-5h-5.975v-5.975c0-2.761-2.239-5-5-5
	s-5,2.239-5,5v5.975h-5.974c-2.761,0-5,2.239-5,5s2.239,5,5,5h5.974v5.975C129.56,400.278,131.799,402.517,134.56,402.517z
	 M239.025,20.975H245v5.975c0,2.761,2.239,5,5,5s5-2.239,5-5v-5.975h5.975c2.761,0,5-2.239,5-5s-2.239-5-5-5H255V5
	c0-2.761-2.239-5-5-5s-5,2.239-5,5v5.975h-5.975c-2.761,0-5,2.239-5,5S236.264,20.975,239.025,20.975z M53.968,490h-6.76
	c-2.761,0-5,2.239-5,5s2.239,5,5,5h6.76c2.761,0,5-2.239,5-5S56.729,490,53.968,490z M434.133,495c0,2.761-2.239,5-5,5h-80.818
	h-8.748H160.434h-8.748H70.867c-2.761,0-5-2.239-5-5s2.239-5,5-5h57.098c-5.863-5.991-9.486-14.182-9.486-23.207v-4.049
	c0-18.311,14.896-33.207,33.207-33.207h77.613c-1.782-3.016-2.824-6.519-2.824-10.268c0-3.75,1.042-7.253,2.824-10.269H212
	c-6.617,0-12-5.383-12-12v-79.25c0-2.761,2.239-5,5-5s5,2.239,5,5v47.75h19.25c16.588,0,30.083-13.496,30.083-30.083v-49.039
	h-32.689c-26.455,0-47.978,21.522-47.978,47.978v84.978c0,2.761-2.239,5-5,5s-5-2.239-5-5v-84.978
	c0-28.805,21.119-52.762,48.685-57.223c-7.945-4.896-14.706-11.526-19.773-19.352V268c0,2.761-2.239,5-5,5s-5-2.239-5-5v-44.043
	c0-0.002,0-0.003,0-0.005v-13.031c0-25.669,16.05-48.838,39.638-58.113c-0.49-1.908-0.742-3.877-0.742-5.857
	c0-12.972,10.553-23.525,23.525-23.525s23.525,10.553,23.525,23.525c0,1.979-0.252,3.95-0.742,5.857
	c23.587,9.275,39.638,32.443,39.638,58.113v13.036c0,0,0,0,0,0c0,0,0,0,0,0V268c0,2.761-2.239,5-5,5s-5-2.239-5-5v-10.219
	c-5.067,7.826-11.828,14.456-19.773,19.352c26.809,4.339,47.508,27.12,48.625,54.865c0,0.001,0,0.002,0,0.002c0,0,0,0.001,0,0.001
	c0.031,0.782,0.06,1.565,0.06,2.354v84.978c0,2.761-2.239,5-5,5s-5-2.239-5-5V337H300v60c0,6.617-5.383,12-12,12h-29.888h-11.369
	c-5.662,0-10.269,4.606-10.269,10.269c0,5.662,4.606,10.268,10.269,10.268h11.369h90.203c18.311,0,33.207,14.896,33.207,33.207
	v4.049c0,9.025-3.624,17.216-9.486,23.207h57.098C431.894,490,434.133,492.239,434.133,495z M236.475,146.951
	c0,1,0.13,1.991,0.348,2.961c8.669-1.864,17.686-1.864,26.355,0c0.218-0.97,0.348-1.961,0.348-2.961
	c0-7.458-6.067-13.525-13.525-13.525S236.475,139.493,236.475,146.951z M197.579,218.957h6.967c0.921,0,1.723-0.624,1.949-1.516
	l1.976-7.787C210.81,200.437,219.084,194,228.594,194H245v-7.167c0-2.761,2.239-5,5-5s5,2.239,5,5V194h16.407
	c9.508,0,17.783,6.437,20.122,15.653l1.976,7.787c0.227,0.893,1.028,1.516,1.949,1.516h6.967v-8.036
	c0-23.083-15.455-43.758-37.584-50.277c-9.654-2.845-20.02-2.844-29.673,0c-22.129,6.52-37.584,27.194-37.584,50.277V218.957z
	 M250,276.378c27.219,0,49.659-20.853,52.185-47.421h-6.731c-5.501,0-10.289-3.724-11.642-9.056l-1.976-7.787
	c-1.212-4.777-5.501-8.113-10.43-8.113h-42.813c-4.929,0-9.217,3.336-10.43,8.113l-1.976,7.788
	c-1.353,5.332-6.14,9.056-11.642,9.056h-6.731C200.342,255.525,222.782,276.378,250,276.378z M212,399h34.743h11.369H288
	c1.103,0,2-0.897,2-2v-79.25c0-2.761,2.239-5,5-5s5,2.239,5,5V327h20.769c-3.55-22.976-23.459-40.622-47.413-40.622h-4.022v49.039
	c0,22.102-17.981,40.083-40.083,40.083H210V397C210,398.103,210.897,399,212,399z M160.434,490h48.238v-39.076c0-2.761,2.239-5,5-5
	s5,2.239,5,5v8.844h62.656v-20.232h-23.216h-11.369h-95.058c-12.796,0-23.207,10.411-23.207,23.207v4.049
	c0,12.796,10.411,23.207,23.207,23.207H160.434z M348.314,490c12.796,0,23.207-10.411,23.207-23.207v-4.049
	c0-12.796-10.411-23.207-23.207-23.207h-56.986v38.629c0,2.761-2.239,5-5,5s-5-2.239-5-5v-8.397h-62.656V490h120.895H348.314z
	 M452.792,490h-6.76c-2.761,0-5,2.239-5,5s2.239,5,5,5h6.76c2.761,0,5-2.239,5-5S455.553,490,452.792,490z M250,176.5
	c2.761,0,5-2.239,5-5v-1.47c0-2.761-2.239-5-5-5s-5,2.239-5,5v1.47C245,174.261,247.239,176.5,250,176.5z M255,219.348v-1.47
	c0-2.761-2.239-5-5-5s-5,2.239-5,5v1.47c0,2.761,2.239,5,5,5S255,222.109,255,219.348z"/>
</svg>
