<?xml version="1.0" encoding="utf-8"?>
<!-- Generator: Adobe Illustrator 22.0.0, SVG Export Plug-In . SVG Version: 6.00 Build 0)  -->
<svg version="1.1" id="Layer_1" xmlns="http://www.w3.org/2000/svg" xmlns:xlink="http://www.w3.org/1999/xlink" x="0px" y="0px"
	 viewBox="0 0 500 500" style="enable-background:new 0 0 500 500;" xml:space="preserve">
<style type="text/css">
	.st0{fill:#FDDF7F;}
	.st1{fill:#ECF4F7;}
	.st2{fill:#83E1E5;}
	.st3{fill:#1C1D21;}
	.st4{fill:#AAB1BA;}
</style>
<g>
	<path class="st0" d="M177.849,353.019v-4.458v-27.479c-29.637-22.052-48.837-57.345-48.837-97.125
		c0-66.82,54.168-120.987,120.987-120.987s120.987,54.168,120.987,120.987c0,39.78-19.2,75.073-48.837,97.125v27.479v4.458
		c0,4.298,3.484,7.781,7.781,7.781h6.531c45.309-28.688,75.395-79.249,75.395-136.844c0-89.392-72.466-161.858-161.858-161.858
		S88.142,134.565,88.142,223.957c0,57.594,30.086,108.156,75.395,136.844h6.531C174.365,360.8,177.849,357.317,177.849,353.019z"/>
</g>
<g>
	<path class="st2" d="M370.987,223.957c0-66.82-54.168-120.987-120.987-120.987s-120.987,54.168-120.987,120.987
		c0,39.78,19.2,75.073,48.837,97.125v-8.473c0-17.248,13.982-31.23,31.231-31.23H250c-31.713,0-57.421-25.708-57.421-57.421
		s25.708-57.421,57.421-57.421s57.421,25.708,57.421,57.421S281.713,281.378,250,281.378h40.92c17.248,0,31.23,13.982,31.23,31.23
		v8.474C351.787,299.03,370.987,263.736,370.987,223.957z"/>
</g>
<g>
	<path class="st1" d="M366.89,360.8h-36.958c-4.298,0-7.781-3.484-7.781-7.781v-4.458v-35.952c0-17.248-13.982-31.23-31.23-31.23
		H209.08c-17.248,0-31.231,13.982-31.231,31.231v35.952v4.458c0,4.298-3.484,7.781-7.781,7.781H133.11
		c-9.62,0-17.898,7.393-18.351,17.003c-0.483,10.26,7.692,18.731,17.846,18.731h68.728v38.003h97.333v-38.003h68.728
		c10.154,0,18.329-8.47,17.846-18.731C384.789,368.194,376.51,360.8,366.89,360.8z"/>
</g>
<g>
	<circle class="st0" cx="250" cy="223.957" r="57.421"/>
</g>
<g>
	<path class="st0" d="M132.605,360.801c-9.867,0-17.867,7.999-17.867,17.867c0,9.867,7.999,17.867,17.867,17.867h16.369v-35.733
		H132.605z"/>
</g>
<g>
	<path class="st0" d="M385.262,378.667c0-9.867-7.999-17.867-17.867-17.867h-16.369v35.733h16.369
		C377.262,396.534,385.262,388.535,385.262,378.667z"/>
</g>
<g>
	<path class="st4" d="M348.314,495H151.686c-15.578,0-28.207-12.629-28.207-28.207v-4.049c0-15.578,12.629-28.207,28.207-28.207
		h196.628c15.578,0,28.207,12.629,28.207,28.207v4.049C376.521,482.371,363.893,495,348.314,495z"/>
</g>
<g>
	<rect x="213.672" y="434.537" class="st0" width="72.656" height="60.463"/>
</g>
<g>
	<circle class="st0" cx="250" cy="327.646" r="15.867"/>
</g>
<g>
	<circle class="st1" cx="250" cy="223.957" r="15.867"/>
</g>
<g>
	<circle class="st2" cx="250" cy="381.073" r="15.867"/>
</g>
<path class="st3" d="M68.467,391.543c-2.761,0-5-2.239-5-5s2.239-5,5-5h5.975v-5.975c0-2.761,2.239-5,5-5s5,2.239,5,5v5.975h5.975
	c2.761,0,5,2.239,5,5s-2.239,5-5,5h-5.975v5.974c0,2.761-2.239,5-5,5s-5-2.239-5-5v-5.974H68.467z M431.533,381.543h-5.975v-5.975
	c0-2.761-2.239-5-5-5s-5,2.239-5,5v5.975h-5.975c-2.761,0-5,2.239-5,5s2.239,5,5,5h5.975v5.974c0,2.761,2.239,5,5,5s5-2.239,5-5
	v-5.974h5.975c2.761,0,5-2.239,5-5S434.294,381.543,431.533,381.543z M239.025,20.975H245v5.974c0,2.761,2.239,5,5,5s5-2.239,5-5
	v-5.974h5.975c2.761,0,5-2.239,5-5s-2.239-5-5-5H255V5c0-2.761-2.239-5-5-5s-5,2.239-5,5v5.975h-5.975c-2.761,0-5,2.239-5,5
	S236.264,20.975,239.025,20.975z M340.597,304.288c0.929,0.758,2.047,1.127,3.16,1.127c1.45,0,2.888-0.627,3.876-1.838
	c18.285-22.393,28.355-50.669,28.355-79.621c0-69.47-56.518-125.987-125.987-125.987c-39.837,0-77.759,19.162-101.441,51.258
	c-1.64,2.222-1.167,5.352,1.055,6.992c2.222,1.639,5.352,1.167,6.992-1.055c21.805-29.552,56.719-47.195,93.395-47.195
	c63.956,0,115.987,52.032,115.987,115.987c0,26.653-9.27,52.683-26.101,73.296C338.14,299.392,338.458,302.541,340.597,304.288z
	 M136.644,181.28c0.638,0.271,1.301,0.399,1.953,0.399c1.946,0,3.795-1.143,4.604-3.046c1.028-2.42,2.155-4.838,3.35-7.187
	c1.252-2.461,0.272-5.471-2.189-6.724c-2.463-1.252-5.471-0.272-6.724,2.189c-1.298,2.552-2.523,5.18-3.641,7.811
	C132.917,177.264,134.103,180.2,136.644,181.28z M126.142,200.776c-1.413,7.592-2.129,15.391-2.129,23.18
	c0,28.407,9.231,55.224,26.694,77.551c0.986,1.261,2.457,1.92,3.942,1.92c1.077,0,2.163-0.347,3.077-1.062
	c2.175-1.701,2.559-4.844,0.858-7.019c-16.075-20.552-24.571-45.238-24.571-71.39c0-7.177,0.66-14.361,1.96-21.351
	c0.505-2.715-1.286-5.325-4.001-5.83C129.259,196.269,126.646,198.062,126.142,200.776z M140.233,342.922
	c1.934-1.971,1.903-5.137-0.068-7.071c-30.324-29.75-47.024-69.488-47.024-111.894c0-86.492,70.366-156.858,156.858-156.858
	s156.858,70.366,156.858,156.858c0,43.389-17.343,83.765-48.833,113.691c-2.001,1.902-2.083,5.067-0.18,7.069
	c0.983,1.034,2.303,1.556,3.625,1.556c1.237,0,2.476-0.456,3.443-1.375c33.497-31.832,51.945-74.782,51.945-120.94
	c0-92.006-74.853-166.858-166.858-166.858S83.142,131.951,83.142,223.957c0,45.114,17.765,87.387,50.021,119.032
	C135.133,344.924,138.299,344.893,140.233,342.922z M270.867,327.646c0,11.506-9.361,20.867-20.867,20.867
	s-20.867-9.361-20.867-20.867s9.361-20.867,20.867-20.867S270.867,316.14,270.867,327.646z M260.867,327.646
	c0-5.992-4.875-10.867-10.867-10.867s-10.867,4.875-10.867,10.867c0,5.992,4.875,10.867,10.867,10.867
	S260.867,333.638,260.867,327.646z M270.867,223.957c0,11.506-9.361,20.867-20.867,20.867s-20.867-9.361-20.867-20.867
	S238.494,203.09,250,203.09S270.867,212.451,270.867,223.957z M260.867,223.957c0-5.992-4.875-10.867-10.867-10.867
	s-10.867,4.875-10.867,10.867s4.875,10.867,10.867,10.867S260.867,229.949,260.867,223.957z M270.867,381.073
	c0,11.506-9.361,20.867-20.867,20.867s-20.867-9.361-20.867-20.867s9.361-20.867,20.867-20.867S270.867,369.567,270.867,381.073z
	 M260.867,381.073c0-5.992-4.875-10.867-10.867-10.867s-10.867,4.875-10.867,10.867S244.008,391.94,250,391.94
	S260.867,387.065,260.867,381.073z M293.667,396.534c0-2.761,2.239-5,5-5h47.359v-25.734h-16.094
	c-7.047,0-12.781-5.734-12.781-12.781v-40.411c0-14.463-11.767-26.23-26.23-26.23H209.08c-14.463,0-26.23,11.767-26.23,26.23v40.411
	c0,7.048-5.734,12.781-12.781,12.781h-16.094v25.734h47.359c2.761,0,5,2.239,5,5v20.6c0,2.761-2.239,5-5,5s-5-2.239-5-5v-15.6
	h-63.729c-6.312,0-12.188-2.516-16.547-7.084c-4.356-4.566-6.591-10.562-6.294-16.882c0.575-12.206,10.83-21.768,23.346-21.768
	h36.958c1.534,0,2.781-1.248,2.781-2.781v-40.411c0-19.978,16.253-36.23,36.23-36.23h7.096
	c-17.19-11.13-28.597-30.462-28.597-52.421c0-34.419,28.002-62.421,62.421-62.421s62.421,28.002,62.421,62.421
	c0,21.959-11.407,41.291-28.597,52.421h7.096c19.978,0,36.23,16.253,36.23,36.23v40.411c0,1.534,1.248,2.781,2.781,2.781h36.958
	c12.516,0,22.771,9.562,23.346,21.768c0.297,6.32-1.938,12.315-6.294,16.881c-4.358,4.569-10.235,7.084-16.547,7.084h-63.729v15.6
	c0,2.761-2.239,5-5,5s-5-2.239-5-5V396.534z M143.974,365.801H133.11c-7.047,0-13.039,5.49-13.356,12.238
	c-0.168,3.563,1.089,6.939,3.54,9.509c2.453,2.571,5.76,3.987,9.312,3.987h11.369V365.801z M250,276.378
	c28.905,0,52.421-23.516,52.421-52.421S278.905,171.536,250,171.536s-52.421,23.516-52.421,52.421S221.095,276.378,250,276.378z
	 M356.026,391.534h11.369c3.552,0,6.858-1.416,9.312-3.987c2.451-2.569,3.708-5.946,3.54-9.508
	c-0.318-6.748-6.31-12.238-13.356-12.238h-10.864V391.534z M196.333,315.017v55.925c0,2.761,2.239,5,5,5s5-2.239,5-5v-55.925
	c0-2.761-2.239-5-5-5S196.333,312.255,196.333,315.017z M298.667,375.941c2.761,0,5-2.239,5-5v-55.925c0-2.761-2.239-5-5-5
	s-5,2.239-5,5v55.925C293.667,373.703,295.905,375.941,298.667,375.941z M53.968,490h-6.76c-2.761,0-5,2.239-5,5s2.239,5,5,5h6.76
	c2.761,0,5-2.239,5-5S56.729,490,53.968,490z M434.133,495c0,2.761-2.239,5-5,5h-80.818h-8.748H160.434h-8.748H70.867
	c-2.761,0-5-2.239-5-5s2.239-5,5-5h57.098c-5.863-5.991-9.486-14.182-9.486-23.207v-4.049c0-18.311,14.896-33.207,33.207-33.207
	h196.629c18.311,0,33.207,14.897,33.207,33.207v4.049c0,9.025-3.624,17.216-9.486,23.207h57.098
	C431.894,490,434.133,492.239,434.133,495z M160.434,490h48.238v-39.076c0-2.761,2.239-5,5-5s5,2.239,5,5v8.844h62.656v-20.232
	H151.686c-12.796,0-23.207,10.411-23.207,23.207v4.049c0,12.796,10.411,23.207,23.207,23.207H160.434z M348.314,490
	c12.796,0,23.207-10.411,23.207-23.207v-4.049c0-12.797-10.411-23.207-23.207-23.207h-56.986v38.629c0,2.761-2.239,5-5,5
	s-5-2.239-5-5v-8.397h-62.656V490h120.895H348.314z M452.792,490h-6.76c-2.761,0-5,2.239-5,5s2.239,5,5,5h6.76c2.761,0,5-2.239,5-5
	S455.553,490,452.792,490z"/>
</svg>
