<svg xmlns="http://www.w3.org/2000/svg" width="48" height="48.001" viewBox="0 0 48 48.001">
  <path d="M47.787,5.849a.728.728,0,0,0-.515-1.242H44.421l3.365-3.363A.728.728,0,1,0,46.757.215L43.394,3.58V.728A.727.727,0,0,0,42.152.214L37.875,4.491A23.766,23.766,0,0,0,24,0,24,24,0,1,0,48,24a23.765,23.765,0,0,0-4.493-13.873ZM41.939,2.484V5.336a.729.729,0,0,0,.728.727h2.85L40.183,11.4H36.606V7.819ZM46.545,24a22.648,22.648,0,1,1-9.7-18.479L35.365,7a.728.728,0,0,0-.214.514v4.3l-1.58,1.58a14.222,14.222,0,0,0-8.843-3.666V7.517a.728.728,0,1,0-1.456,0V9.736A14.3,14.3,0,0,0,9.733,23.275H7.515a.727.727,0,1,0,0,1.454H9.733A14.3,14.3,0,0,0,23.272,38.268v2.219a.728.728,0,0,0,1.456,0V38.268A14.3,14.3,0,0,0,38.266,24.729h2.219a.727.727,0,1,0,0-1.454H38.266A14.226,14.226,0,0,0,34.6,14.431l1.581-1.58h4.3A.736.736,0,0,0,41,12.638l1.463-1.463A22.292,22.292,0,0,1,46.545,24Zm-11.878.726h2.145A12.843,12.843,0,0,1,24.728,36.812V34.667a.728.728,0,0,0-1.456,0v2.145A12.842,12.842,0,0,1,11.188,24.728h2.145a.727.727,0,1,0,0-1.454H11.188A12.846,12.846,0,0,1,23.272,11.188v2.146a.728.728,0,0,0,1.456,0V11.188a12.783,12.783,0,0,1,7.814,3.242l-5.85,5.85a4.644,4.644,0,1,0,1.028,1.029l5.85-5.852a12.784,12.784,0,0,1,3.241,7.816H34.666a.728.728,0,1,0,0,1.455Zm-11.182-.213a.728.728,0,0,0,1.029,0l2.161-2.16A3.118,3.118,0,0,1,27.152,24,3.151,3.151,0,1,1,24,20.849a3.118,3.118,0,0,1,1.646.477l-2.161,2.162A.725.725,0,0,0,23.485,24.515Z" fill="#1a171b"/>
</svg>
