<?xml version="1.0" encoding="utf-8"?>
<!-- Generator: Adobe Illustrator 24.0.0, SVG Export Plug-In . SVG Version: 6.00 Build 0)  -->
<svg version="1.1" xmlns="http://www.w3.org/2000/svg" xmlns:xlink="http://www.w3.org/1999/xlink" x="0px" y="0px"
	 viewBox="0 0 256 256" enable-background="new 0 0 256 256" xml:space="preserve">
<g id="Layer_2">
</g>
<g id="Layer_1">
	<g>
	</g>
	<g>
		<path fill="#FFB69F" d="M127.996,57.178L127.996,57.178c-9.094,0-16.466-7.372-16.466-16.466V26.97h32.933v13.742
			C144.462,49.805,137.09,57.178,127.996,57.178z"/>
		<path fill="#7C7B7A" d="M147.361,6.473l-7.104,3.708c-1.825,0.953-3.854,1.45-5.912,1.45h-15.217
			c-5.282,0-9.309,4.728-8.468,9.942l0.87,5.396h32.933v0c5.1-5.434,6.319-13.45,3.065-20.155L147.361,6.473z"/>
		<path fill="#F0C020" d="M166.92,77.177v7.263H89.08v-7.263c0-11.04,8.95-20,20-20h37.84
			C157.97,57.177,166.92,66.137,166.92,77.177z"/>
		<rect x="89.08" y="77.437" fill="#E8A61E" width="77.84" height="7.003"/>
		<path fill="#EFEFEF" d="M248.11,94.44L248.1,220.5c0,5.52-4.48,10-10,10h-20.91v-12.37c-4.65,2.31-9.89,3.6-15.43,3.6
			s-10.78-1.29-15.43-3.6v12.37H17.9c-5.52,0-10-4.48-10-10L7.89,94.44c0-5.52,4.48-10,10-10h39.25v3.71c0,2.76,2.24,5,5,5h11.05
			c2.76,0,5-2.24,5-5v-3.71h99.62v3.71c0,2.76,2.24,5,5,5h11.05c2.76,0,5-2.24,5-5v-3.71h39.25
			C243.63,84.44,248.11,88.92,248.11,94.44z"/>
		<path fill="#AFAFAF" d="M241.61,186.88c0,14.22-7.36,27.06-19.42,34.22v9.4h-5v-12.37c-4.65,2.31-9.89,3.6-15.43,3.6
			s-10.78-1.29-15.43-3.6v12.37h-5v-9.41c-3.48-2.09-6.57-4.65-9.21-7.59h7.16c-7.56-6.39-12.36-15.94-12.36-26.62
			c0-19.24,15.6-34.84,34.84-34.84c12.32,0,23.14,6.39,29.34,16.03v-8.15C237.64,167.03,241.61,176.52,241.61,186.88z"/>
		<path fill="#F0C020" d="M236.61,186.88c0,13.71-7.91,25.57-19.42,31.25c-4.65,2.31-9.89,3.6-15.43,3.6s-10.78-1.29-15.43-3.6
			c-2.54-1.26-4.9-2.82-7.05-4.63c-7.56-6.39-12.36-15.94-12.36-26.62c0-19.24,15.6-34.84,34.84-34.84
			c12.32,0,23.14,6.39,29.34,16.03C234.59,173.5,236.61,179.95,236.61,186.88z"/>
		<path fill="#13BF6D" d="M231.11,128.69l-0.01,31.22v8.16c-6.2-9.64-17.02-16.03-29.34-16.03c-19.24,0-34.84,15.6-34.84,34.84
			c0,10.68,4.8,20.23,12.36,26.62H52.14c-2.57,0-4.74-1.95-4.97-4.51c-0.84-9.25-8.44-16.94-17.77-17.78
			c-2.56-0.22-4.5-2.4-4.5-4.96l-0.01-57.56c0-2.57,1.95-4.75,4.51-4.97c9.32-0.83,16.93-8.51,17.77-17.77
			c0.23-2.56,2.4-4.51,4.97-4.51h151.72c2.57,0,4.74,1.95,4.97,4.51c0.84,9.25,8.43,16.94,17.77,17.77
			C229.16,123.94,231.11,126.12,231.11,128.69z"/>
		<path fill="#139C6E" d="M201.76,147.04c-21.97,0-39.84,17.87-39.84,39.84c0,10.01,3.73,19.43,10.2,26.62h7.16
			c-7.56-6.39-12.36-15.94-12.36-26.62c0-19.24,15.6-34.84,34.84-34.84c12.32,0,23.14,6.39,29.34,16.03v-8.15
			C223.85,152.02,213.42,147.04,201.76,147.04z"/>
		<path fill="#FFB69F" d="M78.19,80.73v7.42c0,2.76-2.24,5-5,5H62.14c-2.76,0-5-2.24-5-5v-7.42c0-2.76,2.24-5,5-5h11.05
			C75.95,75.73,78.19,77.97,78.19,80.73z"/>
		<path fill="#FFB69F" d="M198.86,80.73v7.42c0,2.76-2.24,5-5,5h-11.05c-2.76,0-5-2.24-5-5v-7.42c0-2.76,2.24-5,5-5h11.05
			C196.62,75.73,198.86,77.97,198.86,80.73z"/>
		<circle fill="#EFEFEF" cx="201.763" cy="186.883" r="23.375"/>
		<path fill="#FC5D3D" d="M201.76,221.73v17.77l-15.43,10v-31.37C190.98,220.44,196.22,221.73,201.76,221.73z"/>
		<path fill="#72C2E9" d="M217.19,218.13v31.37l-15.43-10v-17.77C207.3,221.73,212.54,220.44,217.19,218.13z"/>
		<g>
			<g>
				<path fill="#76FFBB" d="M156.833,206h-4c-1.381,0-2.5-1.119-2.5-2.5s1.119-2.5,2.5-2.5h4c1.381,0,2.5,1.119,2.5,2.5
					S158.214,206,156.833,206z M142.833,206H56.334c-1.14,0-2.135-0.771-2.42-1.874c-2.454-9.489-10.164-17.204-19.642-19.655
					c-1.104-0.285-1.874-1.28-1.874-2.42l-0.007-49.169c0-1.14,0.771-2.136,1.875-2.421c9.481-2.448,17.193-10.161,19.647-19.647
					c0.345-1.337,1.708-2.145,3.046-1.794c1.337,0.346,2.14,1.709,1.794,3.046c-2.738,10.588-11.015,19.306-21.362,22.688
					l0.007,45.425c9.727,3.183,17.623,11.084,20.808,20.821h84.627c1.381,0,2.5,1.119,2.5,2.5S144.214,206,142.833,206z"/>
			</g>
			<g>
				<g>
					<g>
						<path fill="#76FFBB" d="M156.833,206h-4c-1.381,0-2.5-1.119-2.5-2.5s1.119-2.5,2.5-2.5h4c1.381,0,2.5,1.119,2.5,2.5
							S158.214,206,156.833,206z M142.833,206H56.334c-1.14,0-2.135-0.771-2.42-1.874c-2.454-9.489-10.164-17.204-19.642-19.655
							c-1.104-0.285-1.874-1.28-1.874-2.42l-0.007-49.169c0-1.14,0.771-2.136,1.875-2.421c9.481-2.448,17.193-10.161,19.647-19.647
							c0.345-1.337,1.708-2.145,3.046-1.794c1.337,0.346,2.14,1.709,1.794,3.046c-2.738,10.588-11.015,19.306-21.362,22.688
							l0.007,45.425c9.727,3.183,17.623,11.084,20.808,20.821h84.627c1.381,0,2.5,1.119,2.5,2.5S144.214,206,142.833,206z"/>
					</g>
				</g>
			</g>
			<path d="M128,49.71c5.213,0,9.453-4.24,9.453-9.453c0-1.381-1.119-2.5-2.5-2.5s-2.5,1.119-2.5,2.5
				c0,2.455-1.998,4.453-4.453,4.453s-4.453-1.998-4.453-4.453c0-1.381-1.119-2.5-2.5-2.5s-2.5,1.119-2.5,2.5
				C118.547,45.47,122.787,49.71,128,49.71z"/>
			<path d="M160.95,59.59c-1.051-0.84-2.681-0.66-3.511,0.39c-0.862,1.068-0.708,2.622,0.391,3.511c0,0,0,0.01,0.01,0.01
				c1.049,0.833,2.616,0.704,3.5-0.4C162.214,62.018,162.014,60.43,160.95,59.59z"/>
			<path d="M155.226,127.137c1.381,0,2.5-1.119,2.5-2.5s-1.119-2.5-2.5-2.5h-54.451c-1.381,0-2.5,1.119-2.5,2.5s1.119,2.5,2.5,2.5
				H155.226z"/>
			<path d="M175,138.356c0-1.381-1.119-2.5-2.5-2.5h-89c-1.381,0-2.5,1.119-2.5,2.5s1.119,2.5,2.5,2.5h89
				C173.881,140.856,175,139.737,175,138.356z"/>
			<path d="M61.807,180h34.997c1.381,0,2.5-1.119,2.5-2.5s-1.119-2.5-2.5-2.5H61.807c-1.381,0-2.5,1.119-2.5,2.5
				S60.426,180,61.807,180z"/>
			<path d="M61.807,192.804h52.271c1.381,0,2.5-1.119,2.5-2.5s-1.119-2.5-2.5-2.5H61.807c-1.381,0-2.5,1.119-2.5,2.5
				S60.426,192.804,61.807,192.804z"/>
			<path d="M7.899,176.54c1.37,0,2.49-1.12,2.49-2.5s-1.12-2.5-2.5-2.5c-1.37,0-2.49,1.12-2.49,2.5S6.52,176.54,7.899,176.54z"/>
			<path d="M5.39,94.439l0.01,69.601c0,1.38,1.12,2.5,2.49,2.5c1.38,0,2.5-1.12,2.5-2.5V94.439c0.01-4.13,3.37-7.489,7.5-7.5h36.75
				v1.207v0.003c0,4.141,3.37,7.5,7.5,7.5h11.05c4.131,0,7.501-3.361,7.501-7.503v-1.207h94.619c0,0.515,0,0.693,0,1.21
				c0,4.141,3.37,7.5,7.5,7.5h11.05c4.132,0,7.501-3.362,7.501-7.503v-1.207h36.749c4.131,0.011,7.49,3.37,7.5,7.5L245.6,220.5
				c-0.01,4.13-3.37,7.49-7.5,7.5h-18.41v-8.377c12.012-6.557,19.421-18.951,19.421-32.743c0-6.915-1.915-13.631-5.511-19.492
				V156.37c0-1.365-1.093-2.5-2.5-2.5c-1.38,0-2.5,1.12-2.5,2.5v4.543c-6.967-7.216-16.572-11.374-26.84-11.374
				c-20.589,0-37.34,16.751-37.34,37.34c0,8.916,3.165,17.425,8.836,24.12H52.14c-1.28,0-2.37-0.98-2.479-2.23
				c-0.973-10.518-9.508-19.08-20.04-20.05c-1.25-0.1-2.221-1.189-2.221-2.47l-0.01-57.561c0-1.29,0.98-2.38,2.23-2.479
				c10.49-0.966,19.062-9.466,20.04-20.04c0.109-1.25,1.199-2.23,2.479-2.23h151.72c1.28,0,2.37,0.98,2.48,2.24
				c0.47,5.08,2.75,9.9,6.41,13.58c3.68,3.69,8.52,5.98,13.64,6.45c1.24,0.1,2.22,1.189,2.22,2.479v7.681c0,1.386,1.114,2.5,2.5,2.5
				c1.37,0,2.49-1.12,2.5-2.5v-7.681c0-3.909-2.92-7.12-6.79-7.46c-7.989-0.68-14.8-7.489-15.5-15.51
				c-0.359-3.86-3.569-6.78-7.46-6.78H52.14c-3.89,0-7.1,2.91-7.46,6.78c-0.7,8.01-7.51,14.82-15.51,15.51
				c-3.86,0.351-6.78,3.551-6.78,7.46l0.01,57.561c0,3.899,2.91,7.1,6.78,7.45c7.99,0.689,14.8,7.5,15.5,15.52
				c0.36,3.86,3.561,6.78,7.46,6.78h126.272c1.708,1.368,3.521,2.583,5.419,3.627V228H17.899c-4.13-0.01-7.489-3.37-7.5-7.5v-36.46
				c-0.01-1.38-1.13-2.5-2.5-2.5c-1.38,0-2.5,1.12-2.5,2.5v36.46c0,6.89,5.61,12.5,12.5,12.5H183.83v16.5
				c0,1.987,2.209,3.169,3.859,2.098l14.07-9.119l14.07,9.119c1.648,1.07,3.859-0.109,3.859-2.098V233h18.41
				c6.891,0,12.5-5.61,12.5-12.5l0.01-126.061c0-6.89-5.609-12.5-12.5-12.5H201.36v-1.213c0-4.136-3.364-7.5-7.5-7.5H182.81
				c-4.136,0-7.5,3.364-7.5,7.5v1.213h-5.89c0-5.156,0.297-8.61-1.75-13.479c-0.53-1.24-2.03-1.86-3.28-1.34
				c-1.299,0.554-1.854,2.031-1.33,3.279c1.632,3.881,1.36,6.596,1.36,11.54H91.58v-4.76c0.02-9.64,7.87-17.49,17.5-17.5h37.84
				c1.02,0,2.03,0.08,3.02,0.26c1.36,0.24,2.66-0.699,2.891-2.04c0.248-1.363-0.692-2.666-2.03-2.89c-1.26-0.22-2.57-0.33-3.88-0.33
				h-6.14c3.788-3.47,6.182-8.439,6.182-13.969v-12.81c4.989-5.895,6.529-14.505,2.649-22.517c-0.611-1.26-2.146-1.782-3.406-1.127
				c-7.533,3.931-8.692,4.874-11.86,4.874h-15.218c-6.822,0-12.02,6.111-10.936,12.841l0.838,5.197v13.543
				c0,5.53,2.393,10.499,6.181,13.969h-6.13c-12.41,0-22.5,10.09-22.5,22.5v4.76h-5.89v-1.213c0-4.136-3.364-7.5-7.5-7.5H62.14
				c-4.136,0-7.5,3.364-7.5,7.5v1.213H17.89C11,81.939,5.39,87.55,5.39,94.439z M201.76,154.54c11.063,0,21.245,5.563,27.237,14.882
				c3.345,5.205,5.113,11.241,5.113,17.458c0,18.209-14.727,32.35-32.351,32.35c-17.853,0-32.34-14.493-32.34-32.35
				C169.42,169.048,183.928,154.54,201.76,154.54z M188.83,221.933c3.366,1.244,7.045,1.997,10.43,2.217v13.992l-10.43,6.759
				C188.83,236.839,188.83,230.371,188.83,221.933z M214.689,244.9l-10.43-6.759v-13.992c3.566-0.232,7.383-1.083,10.43-2.217
				C214.689,230.374,214.689,236.835,214.689,244.9z M180.31,80.727c0-1.379,1.121-2.5,2.5-2.5h11.051c1.379,0,2.5,1.121,2.5,2.5
				c0,7.941-0.001-0.418-0.001,7.423c0,1.376-1.12,2.497-2.499,2.497H182.81c-1.387,0-2.5-1.133-2.5-2.5
				C180.31,85.462,180.31,83.416,180.31,80.727z M119.127,14.131h15.218c4.522,0,7.025-1.711,11.749-4.176
				c1.569,4.948,0.546,10.463-2.764,14.515h-29.672l-0.531-3.294C112.533,17.48,115.387,14.131,119.127,14.131z M114.029,40.711
				V29.47h27.933v11.241c0,7.701-6.266,13.967-13.967,13.967S114.029,48.412,114.029,40.711z M59.64,80.727
				c0-1.379,1.121-2.5,2.5-2.5H73.19c1.379,0,2.5,1.121,2.5,2.5c0,5.326-0.001,1.377-0.001,7.423c0,1.378-1.122,2.497-2.499,2.497
				H62.14c-1.379,0-2.5-1.121-2.5-2.5C59.64,85.462,59.64,83.416,59.64,80.727z"/>
			<circle cx="231.1" cy="146.37" r="2.5"/>
			<path d="M201.764,212.758c14.268,0,25.875-11.607,25.875-25.875s-11.607-25.875-25.875-25.875s-25.875,11.607-25.875,25.875
				S187.496,212.758,201.764,212.758z M201.764,166.008c11.511,0,20.875,9.364,20.875,20.875s-9.364,20.875-20.875,20.875
				s-20.875-9.364-20.875-20.875S190.253,166.008,201.764,166.008z"/>
			<path d="M190.577,193.342c0.691,1.198,2.224,1.604,3.415,0.915l5.271-3.044v6.087c0,1.381,1.119,2.5,2.5,2.5s2.5-1.119,2.5-2.5
				v-6.086l5.271,3.043c1.191,0.688,2.723,0.283,3.415-0.915c0.69-1.195,0.28-2.725-0.915-3.415l-5.271-3.043l5.271-3.043
				c1.195-0.69,1.605-2.22,0.915-3.415c-0.691-1.196-2.222-1.605-3.415-0.915l-5.271,3.043v-6.086c0-1.381-1.119-2.5-2.5-2.5
				s-2.5,1.119-2.5,2.5v6.087l-5.271-3.044c-1.194-0.69-2.725-0.281-3.415,0.915c-0.69,1.195-0.28,2.725,0.915,3.415l5.271,3.043
				l-5.271,3.043C190.297,190.617,189.887,192.146,190.577,193.342z"/>
		</g>
	</g>
</g>
</svg>
