<?xml version="1.0" encoding="utf-8"?>
<!-- Generator: Adobe Illustrator 22.0.0, SVG Export Plug-In . SVG Version: 6.00 Build 0)  -->
<svg version="1.1" id="Layer_1" xmlns="http://www.w3.org/2000/svg" xmlns:xlink="http://www.w3.org/1999/xlink" x="0px" y="0px"
	 viewBox="0 0 500 500" style="enable-background:new 0 0 500 500;" xml:space="preserve">
<style type="text/css">
	.st0{fill:#FDDF7F;}
	.st1{fill:#ECF4F7;}
	.st2{fill:#83E1E5;}
	.st3{fill:#1C1D21;}
	.st4{fill:#AAB1BA;}
</style>
<g>
	<path class="st2" d="M461.081,368.389c-15.207-15.913-40.027-28.027-69.651-33.438c-20.343,26.985-47.776,47.202-78.577,58.907
		c-38.538,14.646-82.332,15.982-124.057,0.618c-33.138-12.202-60.437-33.27-80.208-59.528
		c-29.632,5.409-54.458,17.525-69.668,33.441c15.806,16.541,41.995,28.984,73.173,34.055c0.001-0.001,0.002-0.002,0.003-0.003
		c-16.152,16.944-20.154,36.971-12.012,55.448c31.174,5.038,65.02,2.4,93.377-7.922c8.167,19.197,28.882,35.339,56.541,45.033
		c27.658-9.693,48.373-25.836,56.54-45.033c28.357,10.321,62.203,12.96,93.377,7.922c8.141-18.476,4.14-38.502-12.009-55.445
		C419.086,397.372,445.275,384.93,461.081,368.389z"/>
</g>
<g>
	<path class="st1" d="M416.218,289.463c-18.438,50.074-57.116,86.819-103.365,104.395c11.925-9.692,21.492-22.602,27.187-38.068
		c16.901-45.9-6.607-96.81-52.507-113.711L250,228.258l-37.533-13.82c-45.9-16.901-69.408-67.811-52.507-113.711
		c5.695-15.466,15.262-28.376,27.187-38.068c38.538-14.645,82.332-15.982,124.057-0.618
		C403.004,95.843,450.02,197.663,416.218,289.463z"/>
</g>
<g>
	<path class="st4" d="M83.782,167.054c18.438-50.074,57.116-86.819,103.365-104.395c-11.925,9.692-21.492,22.602-27.187,38.068
		c-16.901,45.9,6.607,96.81,52.507,113.711L250,228.258l37.533,13.82c45.9,16.901,69.408,67.811,52.507,113.711
		c-5.695,15.466-15.262,28.376-27.187,38.068c-38.538,14.645-82.332,15.982-124.057,0.618
		C96.996,360.674,49.98,258.853,83.782,167.054z"/>
</g>
<g>
	<circle class="st4" cx="250" cy="133.248" r="29.25"/>
</g>
<g>
	<circle class="st1" cx="250" cy="323.269" r="29.25"/>
</g>
<path class="st3" d="M233.666,16.334c0-2.761,2.239-5,5-5H245V5c0-2.761,2.239-5,5-5s5,2.239,5,5v6.334h6.334c2.761,0,5,2.239,5,5
	s-2.239,5-5,5H255v6.334c0,2.761-2.239,5-5,5s-5-2.239-5-5v-6.334h-6.334C235.905,21.334,233.666,19.095,233.666,16.334z
	 M45,322.334h6.334v6.334c0,2.761,2.239,5,5,5s5-2.239,5-5v-6.334h6.334c2.761,0,5-2.239,5-5s-2.239-5-5-5h-6.334V306
	c0-2.761-2.239-5-5-5s-5,2.239-5,5v6.334H45c-2.761,0-5,2.239-5,5S42.238,322.334,45,322.334z M427.333,317.334c0,2.761,2.239,5,5,5
	h6.334v6.334c0,2.761,2.239,5,5,5s5-2.239,5-5v-6.334H455c2.761,0,5-2.239,5-5s-2.239-5-5-5h-6.334V306c0-2.761-2.239-5-5-5
	s-5,2.239-5,5v6.334h-6.334C429.571,312.334,427.333,314.573,427.333,317.334z M464.696,364.934
	c-12.695-13.285-31.305-23.828-53.817-30.488c-2.646-0.784-5.43,0.728-6.213,3.376c-0.784,2.648,0.728,5.43,3.376,6.213
	c18.804,5.563,34.554,13.935,45.895,24.351c-14.991,13.725-38.022,24.005-64.319,28.676c-1.518-1.491-3.113-2.952-4.759-4.346
	l-0.146-0.122c-0.767-0.648-1.55-1.291-2.347-1.92l-0.325-0.251c-0.739-0.58-1.488-1.157-2.258-1.726
	c-0.146-0.109-0.297-0.216-0.448-0.324l-0.234-0.167c-0.665-0.484-1.332-0.968-2.019-1.444c-0.298-0.206-0.604-0.409-0.91-0.612
	l-0.765-0.513c-0.384-0.26-0.769-0.52-1.163-0.775c-0.97-0.628-1.959-1.249-2.972-1.862c-2.363-1.431-5.437-0.674-6.867,1.688
	c-1.43,2.362-0.674,5.437,1.688,6.867c0.925,0.56,1.83,1.128,2.719,1.704c0.336,0.217,0.662,0.438,0.989,0.66l0.843,0.565
	c0.25,0.166,0.501,0.332,0.746,0.501c0.622,0.431,1.225,0.869,1.828,1.308l0.616,0.442c0.692,0.512,1.366,1.031,2.03,1.553
	l0.292,0.224c0.718,0.568,1.418,1.142,2.09,1.71l0.108,0.09c2.121,1.798,4.118,3.676,5.936,5.583
	c13.872,14.553,18.102,31.318,12.068,47.484c-28.139,4.105-58.08,1.76-83.376-6.483c3.729-12.069,2.951-25.103-2.308-36.489
	c-1.158-2.507-4.128-3.601-6.636-2.442c-2.507,1.158-3.601,4.128-2.442,6.636c4.746,10.276,4.875,22.766,0.345,33.411
	c-7.308,17.178-26.187,32.308-51.939,41.681c-25.754-9.374-44.633-24.504-51.94-41.681c-2.453-5.77-3.573-11.809-3.329-17.951
	c0.231-5.831,1.957-11.021,3.788-15.761c0.995-2.576-0.287-5.471-2.863-6.465c-2.576-0.997-5.471,0.286-6.465,2.863
	c-2.039,5.278-4.162,11.659-4.452,18.967c-0.228,5.766,0.563,11.632,2.289,17.229c-25.297,8.244-55.242,10.591-83.385,6.486
	c-6.034-16.167-1.803-32.934,12.071-47.487c1.815-1.905,3.811-3.782,5.916-5.566c0.023-0.019,0.095-0.078,0.117-0.097
	c0.684-0.577,1.382-1.15,2.099-1.718c0.002-0.001,0.081-0.062,0.083-0.063l0.207-0.159c0.664-0.521,1.338-1.041,2.03-1.553
	l0.618-0.443c0.602-0.438,1.205-0.876,1.828-1.308c0.243-0.168,0.494-0.334,0.745-0.5l0.843-0.565
	c0.327-0.221,0.652-0.442,0.991-0.661c0.887-0.575,1.792-1.143,2.718-1.703c2.362-1.431,3.117-4.505,1.687-6.867
	c-1.431-2.361-4.503-3.117-6.867-1.687c-1.011,0.613-2,1.234-2.969,1.86c-0.396,0.256-0.78,0.516-1.165,0.776l-0.765,0.513
	c-0.306,0.203-0.612,0.406-0.909,0.612c-0.688,0.476-1.355,0.96-2.019,1.443l-0.235,0.168c-0.151,0.107-0.302,0.215-0.448,0.323
	c-0.77,0.57-1.519,1.146-2.334,1.785l-0.243,0.188c-0.801,0.634-1.582,1.274-2.325,1.902c-0.025,0.021-0.11,0.09-0.135,0.111
	c-1.674,1.419-3.277,2.887-4.797,4.38c-26.298-4.671-49.329-14.951-64.32-28.677c11.237-10.321,26.807-18.643,45.372-24.208
	c2.645-0.793,4.146-3.58,3.354-6.226c-0.793-2.645-3.577-4.147-6.226-3.354c-22.251,6.671-40.668,17.161-53.259,30.336
	c-1.847,1.933-1.847,4.976,0,6.909c15.383,16.098,39.106,27.993,67.422,33.94c-12.495,16.735-15.178,36.061-7.22,54.122
	c0.684,1.55,2.105,2.649,3.778,2.92c10.461,1.691,21.195,2.523,31.9,2.523c20.746,0,41.378-3.132,59.692-9.198
	c9.655,18.326,30.293,34.045,57.47,43.569c0.535,0.188,1.095,0.281,1.654,0.281s1.119-0.094,1.654-0.281
	c27.176-9.524,47.814-25.243,57.469-43.569c18.315,6.066,38.944,9.198,59.692,9.198c10.703,0,21.44-0.833,31.9-2.523
	c1.672-0.271,3.094-1.37,3.778-2.92c7.958-18.061,5.276-37.387-7.219-54.122c28.316-5.946,52.039-17.842,67.422-33.94
	C466.543,369.911,466.543,366.867,464.696,364.934z M187.068,399.168c20.326,7.485,41.611,11.258,62.948,11.258
	c13.075,0,26.171-1.417,39.075-4.266c2.697-0.595,4.4-3.264,3.805-5.96c-0.596-2.697-3.264-4.4-5.96-3.805
	c-32.092,7.083-65.43,4.797-96.413-6.611C101.458,356.988,55.679,257.847,88.474,168.782c14.319-38.887,42.053-71.008,77.806-90.912
	c-0.201,0.289-0.392,0.585-0.589,0.876c-0.264,0.388-0.528,0.776-0.786,1.168c-0.302,0.459-0.597,0.924-0.891,1.389
	c-0.25,0.395-0.501,0.79-0.746,1.189c-0.29,0.474-0.571,0.953-0.853,1.432c-0.234,0.398-0.47,0.795-0.699,1.197
	c-0.279,0.492-0.548,0.989-0.819,1.486c-0.217,0.398-0.437,0.794-0.648,1.195c-0.27,0.514-0.528,1.034-0.789,1.553
	c-0.197,0.393-0.399,0.782-0.591,1.178c-0.267,0.55-0.52,1.107-0.776,1.663c-0.171,0.371-0.348,0.739-0.514,1.113
	c-0.279,0.627-0.543,1.262-0.808,1.896c-0.13,0.31-0.266,0.616-0.393,0.927c-0.385,0.949-0.756,1.905-1.111,2.868
	c-8.636,23.452-7.622,48.864,2.855,71.554c10.477,22.689,29.163,39.941,52.615,48.577l75.066,27.641
	c20.946,7.713,37.634,23.121,46.992,43.385s10.263,42.96,2.55,63.906c-5.181,14.07-14.05,26.489-25.648,35.916
	c-0.253,0.206-0.478,0.435-0.68,0.677c-0.073,0.087-0.128,0.182-0.194,0.272c-0.118,0.162-0.235,0.325-0.332,0.498
	c-0.063,0.113-0.111,0.231-0.165,0.347c-0.075,0.164-0.148,0.327-0.205,0.497c-0.042,0.124-0.072,0.25-0.104,0.377
	c-0.043,0.172-0.08,0.343-0.104,0.518c-0.018,0.129-0.03,0.258-0.038,0.388c-0.011,0.176-0.012,0.351-0.004,0.528
	c0.006,0.132,0.014,0.262,0.031,0.393c0.021,0.174,0.057,0.345,0.097,0.517c0.031,0.133,0.06,0.264,0.102,0.394
	c0.054,0.168,0.125,0.33,0.198,0.493c0.056,0.126,0.106,0.253,0.174,0.376c0.018,0.033,0.028,0.068,0.046,0.1
	c0.127,0.221,0.272,0.426,0.427,0.62c0.009,0.012,0.015,0.025,0.024,0.037c0.023,0.029,0.052,0.049,0.076,0.076
	c0.17,0.2,0.354,0.384,0.55,0.553c0.051,0.043,0.099,0.089,0.151,0.13c0.222,0.176,0.457,0.333,0.703,0.468
	c0.059,0.032,0.12,0.058,0.18,0.088c0.209,0.104,0.424,0.193,0.646,0.266c0.063,0.021,0.125,0.045,0.188,0.063
	c0.27,0.078,0.545,0.134,0.826,0.166c0.052,0.006,0.105,0.006,0.157,0.01c0.135,0.011,0.269,0.026,0.405,0.026
	c0.08,0,0.16-0.018,0.24-0.022c0.137-0.007,0.271-0.019,0.408-0.037c0.168-0.022,0.334-0.054,0.501-0.094
	c0.144-0.034,0.285-0.072,0.427-0.119c0.066-0.022,0.133-0.03,0.198-0.055c49.326-18.745,88.064-57.87,106.281-107.341
	c34.701-94.24-13.737-199.141-107.978-233.841c-33.769-12.435-70.05-14.624-104.918-6.329c-2.687,0.639-4.346,3.335-3.707,6.021
	c0.639,2.687,3.335,4.343,6.021,3.707c32.947-7.837,67.232-5.769,99.148,5.984c43.145,15.887,77.521,47.625,96.795,89.366
	s21.14,88.491,5.253,131.636c-14.319,38.888-42.053,71.008-77.806,90.912c0.201-0.289,0.391-0.585,0.589-0.876
	c0.263-0.387,0.526-0.773,0.783-1.164c0.307-0.467,0.607-0.94,0.906-1.413c0.244-0.386,0.489-0.77,0.728-1.16
	c0.298-0.486,0.586-0.978,0.875-1.47c0.226-0.386,0.456-0.77,0.677-1.159c0.289-0.508,0.567-1.023,0.846-1.536
	c0.207-0.381,0.418-0.759,0.62-1.143c0.281-0.536,0.551-1.078,0.823-1.619c0.186-0.371,0.377-0.74,0.558-1.114
	c0.276-0.57,0.539-1.147,0.804-1.723c0.162-0.353,0.331-0.703,0.489-1.059c0.285-0.64,0.555-1.288,0.825-1.935
	c0.124-0.298,0.256-0.591,0.377-0.89c0.385-0.95,0.757-1.906,1.112-2.87c8.636-23.452,7.622-48.864-2.855-71.553
	c-10.477-22.69-29.163-39.941-52.615-48.577l-75.066-27.641c-20.946-7.713-37.634-23.121-46.992-43.385s-10.263-42.96-2.55-63.906
	c1.619-4.397,3.598-8.632,5.908-12.665c5.082-8.874,11.766-16.769,19.741-23.251c0.009-0.007,0.014-0.016,0.023-0.023
	c0.243-0.2,0.461-0.42,0.657-0.654c0.073-0.088,0.13-0.184,0.196-0.275c0.118-0.162,0.234-0.323,0.33-0.496
	c0.063-0.112,0.11-0.229,0.164-0.345c0.076-0.165,0.149-0.329,0.206-0.5c0.041-0.124,0.072-0.249,0.103-0.375
	c0.043-0.173,0.08-0.345,0.105-0.521c0.018-0.128,0.029-0.255,0.037-0.384c0.011-0.178,0.012-0.355,0.004-0.533
	c-0.006-0.13-0.014-0.258-0.03-0.388c-0.022-0.176-0.057-0.349-0.098-0.523c-0.031-0.13-0.059-0.259-0.1-0.388
	c-0.055-0.17-0.127-0.335-0.201-0.5c-0.055-0.124-0.105-0.249-0.171-0.37c-0.018-0.033-0.028-0.069-0.047-0.102
	c-0.092-0.159-0.205-0.297-0.311-0.442c-0.051-0.07-0.086-0.147-0.141-0.214c-0.01-0.012-0.023-0.021-0.033-0.033
	c-0.206-0.248-0.429-0.477-0.673-0.677c-0.04-0.033-0.085-0.055-0.126-0.086c-0.205-0.158-0.418-0.305-0.644-0.429
	c-0.104-0.057-0.214-0.098-0.321-0.147c-0.173-0.079-0.345-0.157-0.525-0.217c-0.119-0.039-0.239-0.064-0.36-0.094
	c-0.178-0.044-0.356-0.084-0.539-0.108c-0.125-0.017-0.249-0.024-0.374-0.031c-0.18-0.01-0.359-0.013-0.541-0.004
	c-0.133,0.007-0.264,0.02-0.396,0.037c-0.17,0.022-0.337,0.054-0.506,0.095c-0.142,0.034-0.281,0.071-0.42,0.118
	c-0.065,0.022-0.132,0.031-0.198,0.055C136.044,76.73,97.307,115.855,79.09,165.327C44.389,259.566,92.828,364.467,187.068,399.168z
	 M250,167.498c-18.886,0-34.25-15.364-34.25-34.25s15.364-34.25,34.25-34.25s34.25,15.364,34.25,34.25S268.886,167.498,250,167.498z
	 M250,157.498c13.372,0,24.25-10.878,24.25-24.25s-10.878-24.25-24.25-24.25s-24.25,10.878-24.25,24.25S236.628,157.498,250,157.498
	z M250,289.019c18.886,0,34.25,15.364,34.25,34.25c0,18.886-15.364,34.25-34.25,34.25s-34.25-15.364-34.25-34.25
	C215.75,304.383,231.114,289.019,250,289.019z M250,299.019c-13.372,0-24.25,10.878-24.25,24.25c0,13.372,10.878,24.25,24.25,24.25
	s24.25-10.878,24.25-24.25C274.25,309.897,263.372,299.019,250,299.019z"/>
</svg>
