<svg id="visual" viewBox="0 0 900 600" width="900" height="600" xmlns="http://www.w3.org/2000/svg" xmlns:xlink="http://www.w3.org/1999/xlink" version="1.1"><rect width="900" height="600" fill="#F3F0FF"></rect><g><g transform="translate(94 427)"><path d="M78.1 -57.3C101.9 -32.4 122.4 0.1 118.4 30.8C114.4 61.4 85.8 90.2 52.6 104.3C19.4 118.4 -18.6 117.8 -45.7 102C-72.8 86.2 -89.2 55.2 -94.6 23.8C-100 -7.5 -94.4 -39.2 -76.8 -62.6C-59.2 -86.1 -29.6 -101.4 -1.2 -100.4C27.1 -99.5 54.3 -82.2 78.1 -57.3Z" fill="none" stroke="#B5A9F2" stroke-width="8"></path></g><g transform="translate(76 66)"><path d="M87.1 -70.6C108.8 -42.3 119.4 -6.3 109.9 21.1C100.5 48.4 70.9 67.2 41.5 78.4C12 89.6 -17.3 93.3 -46.9 84.1C-76.4 75 -106.2 53 -115.3 23.4C-124.4 -6.2 -112.8 -43.5 -90.1 -72C-67.5 -100.6 -33.7 -120.6 -0.5 -120.2C32.7 -119.8 65.4 -99 87.1 -70.6Z" fill="none" stroke="#B5A9F2" stroke-width="8"></path></g><g transform="translate(657 573)"><path d="M56.5 -45.1C69.9 -28.3 75.2 -5 71.4 18.2C67.6 41.3 54.8 64.3 34.5 75.5C14.3 86.6 -13.4 86.1 -32.5 74.3C-51.6 62.5 -62 39.5 -67.7 15.3C-73.4 -9 -74.4 -34.5 -62.3 -51.1C-50.2 -67.6 -25.1 -75.1 -1.8 -73.7C21.6 -72.3 43.1 -61.9 56.5 -45.1Z" stroke="#B5A9F2" fill="none" stroke-width="8"></path></g></g></svg>