<svg id="visual" viewBox="0 0 1440 200" width="1440" height="200" xmlns="http://www.w3.org/2000/svg" xmlns:xlink="http://www.w3.org/1999/xlink" version="1.1"><rect width="1440" height="200" fill="#F3F0FF"></rect><g><g transform="translate(1381 127)"><path d="M36.7 -10.5C41.8 3.8 36.3 23.1 23.7 32.2C11 41.3 -8.7 40.2 -21.2 30.8C-33.7 21.3 -39 3.5 -34.3 -10.4C-29.5 -24.3 -14.8 -34.1 0.5 -34.3C15.8 -34.5 31.6 -24.9 36.7 -10.5Z" stroke="#B5A9F2" fill="none" stroke-width="10"></path></g><g transform="translate(336 98)"><path d="M22 -7.6C25.4 3.3 22.8 15.6 15.2 21.2C7.6 26.9 -5.2 25.8 -13.6 19.4C-22.1 13.1 -26.3 1.6 -23.3 -8.7C-20.3 -18.9 -10.2 -28 -0.4 -27.8C9.3 -27.7 18.6 -18.4 22 -7.6Z" stroke="#B5A9F2" fill="none" stroke-width="10"></path></g><g transform="translate(1058 118)"><path d="M31.2 -9.1C35.1 2 29.4 17.2 18.7 24.7C8 32.2 -7.5 32 -17.4 24.6C-27.3 17.3 -31.6 2.8 -27.7 -8.2C-23.9 -19.1 -11.9 -26.6 0.8 -26.9C13.6 -27.2 27.2 -20.2 31.2 -9.1Z" stroke="#B5A9F2" fill="none" stroke-width="10"></path></g><g transform="translate(889 94)"><path d="M25.3 -8.5C28.1 0.4 22.4 11.8 13.5 18.2C4.5 24.6 -7.8 26.2 -16.3 20.5C-24.7 14.8 -29.3 1.9 -25.9 -7.8C-22.6 -17.5 -11.3 -24 0 -24C11.2 -24 22.5 -17.5 25.3 -8.5Z" stroke="#B5A9F2" fill="none" stroke-width="10"></path></g></g></svg>