<?xml version="1.0" encoding="UTF-8" standalone="no" ?>
<!DOCTYPE svg PUBLIC "-//W3C//DTD SVG 1.1//EN" "http://www.w3.org/Graphics/SVG/1.1/DTD/svg11.dtd">
<svg xmlns="http://www.w3.org/2000/svg" xmlns:xlink="http://www.w3.org/1999/xlink" version="1.1" width="1080" height="200" viewBox="0 0 1080 200" xml:space="preserve">
<desc>Created with Fabric.js 5.2.4</desc>
<defs>
</defs>
<rect x="0" y="0" width="100%" height="100%" fill="transparent"></rect>
<g transform="matrix(1 0 0 1 540 100)" id="2382b4eb-50a6-4935-94eb-8e954581798e"  >
<rect style="stroke: none; stroke-width: 1; stroke-dasharray: none; stroke-linecap: butt; stroke-dashoffset: 0; stroke-linejoin: miter; stroke-miterlimit: 4; fill: rgb(255,255,255); fill-rule: nonzero; opacity: 1; visibility: hidden;" vector-effect="non-scaling-stroke"  x="-540" y="-100" rx="0" ry="0" width="1080" height="200" />
</g>
<g transform="matrix(Infinity NaN NaN Infinity 0 0)" id="201d9c21-b0dc-4b35-9e25-6a8f479581e7"  >
</g>
<g transform="matrix(0.5 0 0 0.5 307.47 100)"  >
<g style="" vector-effect="non-scaling-stroke"   >
		<g transform="matrix(9.38 0 0 9.38 -1148.44 0)"  >
<rect style="stroke: none; stroke-width: 1; stroke-dasharray: none; stroke-linecap: butt; stroke-dashoffset: 0; stroke-linejoin: miter; stroke-miterlimit: 4; fill: rgb(111,85,242); fill-rule: nonzero; opacity: 1;" vector-effect="non-scaling-stroke"  x="-37.5" y="-37.5" rx="10" ry="10" width="75" height="75" />
</g>
		<g transform="matrix(8.48 0 0 8.48 -1151.04 -4.97)"  >
<path style="stroke: none; stroke-width: 1; stroke-dasharray: none; stroke-linecap: butt; stroke-dashoffset: 0; stroke-linejoin: miter; stroke-miterlimit: 4; fill: rgb(255,255,255); fill-rule: nonzero; opacity: 1;" vector-effect="non-scaling-stroke"  transform=" translate(-24.5, -38.8)" d="M 45.476 34.253 C 45.86688 35.9061 46.00475 37.5744 45.99075 39.2123 C 45.950086 42.4957 45.173429999999996 45.6719 43.781549999999996 48.5681 C 43.09262999999999 50.0197 42.200849999999996 51.3831 41.19604999999999 52.658 C 40.177249999999994 53.9285 38.97404999999999 55.0687 37.66664999999999 56.074200000000005 C 36.33384999999999 57.06570000000001 34.89804999999999 57.8545 33.42164999999999 58.484300000000005 C 31.933749999999993 59.07985000000001 30.407149999999994 59.5063 28.865249999999993 59.76370000000001 C 27.32014999999999 59.991220000000006 25.76684999999999 60.080220000000004 24.22244999999999 59.98109000000001 C 22.679249999999993 59.862260000000006 21.14624999999999 59.61886000000001 19.65594999999999 59.160590000000006 C 16.68784999999999 58.270790000000005 13.84044999999999 56.612590000000004 11.66934999999999 54.332190000000004 C 10.59644999999999 53.20149000000001 9.650749999999992 51.97299 8.91794999999999 50.64779 C 8.171729999999991 49.33149 7.56604999999999 47.95169 7.15924999999999 46.51849 C 6.73467999999999 45.09289 6.465829999999991 43.62539 6.39334999999999 42.13939 C 6.32790199999999 41.40145 6.36985399999999 40.65089 6.38573299999999 39.90979 C 6.42575199999999 39.525240000000004 6.4588009999999905 39.141310000000004 6.50327299999999 38.75869 C 6.01899299999999 38.63283 5.56265299999999 38.4765 5.15077299999999 38.27886 C 4.38235299999999 37.919740000000004 3.74037299999999 37.3935 3.3781729999999905 36.818960000000004 C 3.0209829999999904 36.25582000000001 2.9008629999999904 35.591660000000005 3.0896529999999904 34.911660000000005 C 3.2282329999999906 34.40447 3.39920299999999 33.94686000000001 3.5632129999999904 33.46696000000001 L 3.8199729999999903 32.75956000000001 L 4.10978299999999 32.111920000000005 L 4.71482299999999 30.837020000000006 L 5.38604299999999 29.674620000000004 L 5.72922299999999 29.100050000000003 L 6.095322999999991 28.56743 L 6.839562999999991 27.514930000000003 C 7.366442999999991 26.86351 7.882562999999991 26.194230000000005 8.44946299999999 25.59803 C 9.01319299999999 24.99677 9.57946299999999 24.40063 10.194762999999991 23.86223 C 10.78650299999999 23.30037 11.430962999999991 22.78873 12.078662999999992 22.28603 C 12.719942999999992 21.77884 13.432462999999991 21.32633 14.121462999999991 20.86623 C 14.872722999999992 20.44037 15.559162999999991 19.99293 16.382862999999993 19.62553 C 17.922862999999992 18.843790000000002 19.741262999999993 18.22913 21.733162999999994 17.847830000000002 C 22.257522999999996 17.768378000000002 22.783162999999995 17.69976 23.308162999999993 17.642580000000002 C 23.824262999999995 17.592365 24.260902999999992 17.604436000000003 24.740162999999992 17.592365 C 25.211142999999993 17.57713 25.67448299999999 17.600627 26.135962999999993 17.640060000000002 C 26.596092999999993 17.682658000000004 27.065122999999993 17.696017 27.512562999999993 17.778640000000003 C 31.152462999999994 18.29538 34.432362999999995 19.738740000000004 37.16836299999999 21.751040000000003 C 38.551362999999995 22.745060000000002 39.780562999999994 23.919640000000005 40.88766299999999 25.196440000000003 C 42.00056299999999 26.46824 42.94626299999999 27.897640000000003 43.72986299999999 29.422940000000004 C 44.52750299999999 30.941940000000002 45.107762999999984 32.60844 45.476362999999985 34.25334 z M 32.824 43.742000000000004 C 33.2975 42.369800000000005 33.480039999999995 40.871900000000004 33.32492 39.49210000000001 C 33.24482 38.80570000000001 33.11832 38.13890000000001 32.883179999999996 37.544700000000006 C 32.661989999999996 36.937740000000005 32.40586999999999 36.405800000000006 32.04174 35.90240000000001 C 31.355339999999998 34.88100000000001 30.34604 33.971500000000006 29.239539999999998 33.36140000000001 C 28.13564 32.73728000000001 26.941339999999997 32.44172000000001 25.94344 32.45000000000001 C 25.81571 32.43095700000001 25.69746 32.47226500000001 25.5767 32.47162100000001 C 25.45594 32.47414050000001 25.33711 32.481113000000015 25.2259 32.51351500000001 C 25.12418 32.54082000000001 24.974819999999998 32.54082000000001 24.91383 32.572578000000014 C 24.863615 32.60814400000002 24.814044 32.631641000000016 24.76254 32.644356000000016 C 24.491780000000002 32.79242600000001 24.078660000000003 32.93351600000002 23.58414 33.296436000000014 C 22.606620000000003 33.906576000000015 21.52174 34.99343600000002 20.72594 36.08663600000001 C 19.89908 37.17283600000001 19.46244 38.42113600000001 19.443340000000003 38.93973600000001 C 19.487813000000003 39.00454200000001 19.241840000000003 38.99311500000001 18.77596 38.98866200000001 C 18.318990000000003 38.97465800000001 17.69226 38.92825400000001 16.88766 38.946064000000014 C 16.15362 38.951806200000014 15.29556 38.996279000000015 14.37776 39.04456000000001 C 14.352975 39.392190000000014 14.36569 39.74686000000001 14.356139 40.09446000000001 C 14.405709 40.51774000000001 14.409518 40.936560000000014 14.501689 41.355460000000015 C 14.627549 42.192520000000016 14.876049 43.01626000000002 15.203989 43.79416000000001 C 15.844009 45.35766000000001 16.858389 46.73436000000001 18.046289 47.715660000000014 C 19.218889 48.69636000000001 20.615289 49.304560000000016 22.151389 49.59566000000002 C 22.914709000000002 49.74502000000002 23.710389000000003 49.769160000000014 24.493489 49.75134000000001 C 25.281589 49.71448400000001 26.057589 49.57274000000001 26.804989 49.38460000000001 C 27.547309 49.16786000000001 28.247089 48.876770000000015 28.895388999999998 48.53608000000001 C 29.524009 48.164890000000014 30.099788999999998 47.75494000000001 30.592388999999997 47.29158000000001 C 31.072278999999998 46.802850000000014 31.524129 46.28288000000001 31.897888999999996 45.68048000000001 C 32.258238999999996 45.07034000000001 32.595088999999994 44.43608000000001 32.82392899999999 43.74198000000001 z" stroke-linecap="round" />
</g>
		<g transform="matrix(10.46 0 0 10.46 458.33 0.29)"  >
<path style="stroke: none; stroke-width: 1; stroke-dasharray: none; stroke-linecap: butt; stroke-dashoffset: 0; stroke-linejoin: miter; stroke-miterlimit: 4; fill: rgb(111,85,242); fill-rule: nonzero; opacity: 1;" vector-effect="non-scaling-stroke"  transform=" translate(-101.17, -29.7)" d="M 11.894 19.412 C 17.5704 19.412 22.188000000000002 24.0296 22.188000000000002 29.706 C 22.188000000000002 35.382400000000004 17.570400000000003 40 11.894000000000002 40 C 6.217600000000001 40 1.6000000000000014 35.3824 1.6000000000000014 29.706 C 1.6000000000000014 24.029600000000002 6.217600000000002 19.412 11.894000000000002 19.412 z M 11.894 35.608 C 15.1483 35.608 17.796 32.9604 17.796 29.705999999999996 C 17.796 26.451599999999992 15.148399999999999 23.803999999999995 11.893999999999998 23.803999999999995 C 8.639599999999998 23.803999999999995 5.991999999999998 26.451599999999996 5.991999999999998 29.705999999999996 C 5.991999999999998 32.96039999999999 8.639599999999998 35.608 11.893999999999998 35.608 z M 31.8444 19.412 C 36.2448 19.412 39.8244 22.9922 39.8244 27.3924 L 39.8244 37.8044 C 39.8244 39.0172 38.84112 40.0004 37.6284 40.0004 C 36.41568 40.0004 35.4324 39.01712 35.4324 37.8044 L 35.4324 27.392400000000002 C 35.4324 25.414 33.823 23.8043 31.8443 23.8043 C 29.8656 23.8043 28.2562 25.413700000000002 28.2562 27.392400000000002 L 28.2562 37.8044 C 28.2562 39.0172 27.27292 40.0004 26.0602 40.0004 C 24.847479999999997 40.0004 23.864199999999997 39.01712 23.864199999999997 37.8044 L 23.864199999999997 21.6084 C 23.864199999999997 20.395599999999998 24.847479999999997 19.412399999999998 26.0602 19.412399999999998 C 26.84612 19.412399999999998 27.533499999999997 19.8266 27.921699999999998 20.4473 C 29.080899999999996 19.789859999999997 30.419199999999996 19.412399999999998 31.844399999999997 19.412399999999998 z M 60.25 19.412 C 61.4628 19.412 62.4462 20.39528 62.4462 21.608 L 62.4462 36.946 C 62.4462 42.7128 57.7542 47.405 51.9872 47.405 C 50.7744 47.405 49.7912 46.42172 49.7912 45.209 C 49.7912 43.996280000000006 50.774480000000004 43.013000000000005 51.9872 43.013000000000005 C 54.9247 43.013000000000005 57.3808 40.9138 57.9356 38.13700000000001 C 56.245400000000004 39.31020000000001 54.1957 40.000400000000006 51.9868 40.000400000000006 C 46.22 40.000400000000006 41.5278 35.308400000000006 41.5278 29.541400000000007 L 41.5278 21.608100000000007 C 41.5278 20.395300000000006 42.51108 19.412100000000006 43.7238 19.412100000000006 C 44.936519999999994 19.412100000000006 45.919799999999995 20.395380000000007 45.919799999999995 21.608100000000007 L 45.919799999999995 29.541400000000007 C 45.919799999999995 32.88660000000001 48.641299999999994 35.608200000000004 51.986599999999996 35.608200000000004 C 55.3319 35.608200000000004 58.053399999999996 32.886700000000005 58.053399999999996 29.541400000000003 L 58.053399999999996 21.608100000000004 C 58.053399999999996 20.395300000000002 59.03668 19.412100000000002 60.249399999999994 19.412100000000002 z M 77.512 29.706 L 84.0572 36.2508 C 84.91476 37.10836 84.91476 38.498799999999996 84.0572 39.3564 C 83.6284 39.7852 83.06648 39.99956 82.5043 39.99956 C 81.94212 39.99956 81.3802 39.785180000000004 80.9514 39.3564 L 74.40620000000001 32.8112 L 67.86100000000002 39.3564 C 67.43220000000002 39.7852 66.87028000000002 39.99956 66.30810000000002 39.99956 C 65.74592000000003 39.99956 65.18400000000003 39.785180000000004 64.75520000000003 39.3564 C 63.89764000000003 38.49884 63.89764000000003 37.1084 64.75520000000003 36.2508 L 71.30040000000002 29.705599999999997 L 64.75520000000003 23.160399999999996 C 63.89764000000003 22.302839999999996 63.89764000000003 20.912399999999995 64.75520000000003 20.054799999999997 C 65.61304000000003 19.197239999999997 67.00320000000004 19.197239999999997 67.86100000000003 20.054799999999997 L 74.40620000000003 26.599999999999998 L 80.95140000000002 20.0552 C 81.80924000000002 19.19764 83.19940000000003 19.19764 84.05720000000002 20.0552 C 84.91476000000003 20.91276 84.91476000000003 22.3032 84.05720000000002 23.1608 z M 96.835 27.509999999999998 C 98.0478 27.509999999999998 99.03099999999999 28.493319999999997 99.03099999999999 29.7061 C 99.03099999999999 30.91888 98.04772 31.9021 96.835 31.9021 L 90.7684 31.9021 L 90.7684 37.8041 C 90.7684 39.0169 89.78512 40.000099999999996 88.5724 40.000099999999996 C 87.35968 40.000099999999996 86.3764 39.016819999999996 86.3764 37.8041 L 86.3764 22.4591 C 86.3764 16.6923 91.0684 12.0001 96.8354 12.0001 C 98.04820000000001 12.0001 99.0314 12.98338 99.0314 14.1961 C 99.0314 15.408819999999999 98.04812000000001 16.3921 96.8354 16.3921 C 93.4902 16.3921 90.7686 19.113599999999998 90.7686 22.4589 L 90.7686 27.509900000000002 L 96.8352 27.509900000000002 z M 102.91600000000001 19.412 C 104.12880000000001 19.412 105.11200000000001 20.39528 105.11200000000001 21.608 L 105.11200000000001 37.804 C 105.11200000000001 39.0168 104.12872000000002 40 102.91600000000001 40 C 101.70328 40 100.72000000000001 39.01672 100.72000000000001 37.804 L 100.72000000000001 21.608 C 100.72000000000001 20.3952 101.70328 19.412 102.91600000000001 19.412 z M 100.8874 15.036000000000001 C 100.832516 14.904240000000001 100.791344 14.7642 100.76388 14.624200000000002 C 100.733685 14.484200000000001 100.719972 14.338690000000001 100.719972 14.195960000000001 C 100.719972 14.053230000000001 100.733683 13.907720000000001 100.76388 13.76772 C 100.791341 13.62772 100.832512 13.487720000000001 100.8874 13.355960000000001 C 100.942288 13.224200000000002 101.01092 13.095180000000001 101.09052 12.97713 C 101.17012799999999 12.85635 101.26071999999999 12.74381 101.36228 12.64225 C 101.46384 12.540690000000001 101.57638 12.4501 101.69716 12.37049 C 101.81521 12.290882 101.94422999999999 12.22225 102.07598999999999 12.16737 C 102.20774999999999 12.11249 102.34774999999999 12.071314 102.48774999999999 12.04385 C 103.20146999999999 11.898340000000001 103.95915 12.134438000000001 104.46974999999999 12.642290000000001 C 104.56857799999999 12.74385 104.66189999999999 12.856390000000001 104.74150999999999 12.977170000000001 C 104.82111799999998 13.095220000000001 104.88974999999999 13.224240000000002 104.94462999999999 13.356000000000002 C 104.99950999999999 13.487760000000002 105.040686 13.627760000000002 105.06814999999999 13.76776 C 105.098345 13.907760000000001 105.11205799999999 14.053270000000001 105.11205799999999 14.196000000000002 C 105.11205799999999 14.338730000000002 105.09834699999999 14.484240000000002 105.06814999999999 14.624240000000002 C 105.04068899999999 14.764240000000003 104.999518 14.904240000000001 104.94462999999999 15.036000000000001 C 104.88974199999998 15.167760000000001 104.82110999999999 15.296780000000002 104.74150999999999 15.414830000000002 C 104.661902 15.535610000000002 104.56858 15.648150000000003 104.46974999999999 15.749710000000002 C 104.36818999999998 15.851270000000001 104.25564999999999 15.941860000000002 104.13486999999999 16.02147 C 104.01682 16.101078 103.8878 16.169710000000002 103.75604 16.22459 C 103.62428 16.279469999999996 103.48428 16.320646 103.34428 16.34811 C 103.20428 16.378304999999997 103.05877 16.392017999999997 102.91604 16.392017999999997 C 102.77331 16.392017999999997 102.6278 16.378306999999996 102.4878 16.34811 C 102.34779999999999 16.320649 102.20779999999999 16.279477999999997 102.07603999999999 16.22459 C 101.94427999999999 16.169702 101.81526 16.10107 101.69721 16.02147 C 101.57643 15.941862 101.46388999999999 15.851270000000001 101.36233 15.74971 C 101.26077000000001 15.64815 101.17018 15.53561 101.09057 15.41483 C 101.010962 15.29678 100.94233 15.16776 100.88745 15.036 z M 117.283 35.608 C 118.4958 35.608 119.4791 36.591319999999996 119.4791 37.8041 C 119.4791 39.01688 118.49582000000001 40.000099999999996 117.2831 40.000099999999996 C 111.5163 40.000099999999996 106.8241 35.308099999999996 106.8241 29.541099999999997 L 106.8241 14.196099999999996 C 106.8241 12.983299999999996 107.80738 12.000099999999996 109.0201 12.000099999999996 C 110.23282 12.000099999999996 111.2161 12.983379999999997 111.2161 14.196099999999996 L 111.2161 19.417799999999996 L 117.28269999999999 19.417799999999996 C 118.49549999999999 19.417799999999996 119.47869999999999 20.401079999999997 119.47869999999999 21.613799999999998 C 119.47869999999999 22.82652 118.49542 23.8098 117.28269999999999 23.8098 L 111.2161 23.8098 L 111.2161 29.541 C 111.2161 32.8862 113.9376 35.6078 117.2829 35.6078 z M 129.1484 19.412 C 133.5488 19.412 137.1284 22.9922 137.1284 27.3924 L 137.1284 37.8044 C 137.1284 39.0172 136.14512 40.0004 134.9324 40.0004 C 133.71968 40.0004 132.7364 39.01712 132.7364 37.8044 L 132.7364 27.392400000000002 C 132.7364 25.414 131.127 23.8043 129.1483 23.8043 C 127.1696 23.8043 125.56020000000001 25.413700000000002 125.56020000000001 27.392400000000002 L 125.56020000000001 37.8044 C 125.56020000000001 39.0172 124.57692000000002 40.0004 123.36420000000001 40.0004 C 122.15148 40.0004 121.16820000000001 39.01712 121.16820000000001 37.8044 L 121.16820000000001 21.6084 C 121.16820000000001 20.395599999999998 122.15148 19.412399999999998 123.36420000000001 19.412399999999998 C 124.15012000000002 19.412399999999998 124.8375 19.8266 125.22570000000002 20.4473 C 126.38490000000002 19.789859999999997 127.72320000000002 19.412399999999998 129.1484 19.412399999999998 z M 149.126 19.412 C 154.8024 19.412 159.42000000000002 24.0296 159.42000000000002 29.706 C 159.42000000000002 30.9188 158.43672 31.902 157.22400000000002 31.902 L 143.64800000000002 31.902 C 144.52092000000002 34.072 146.64750000000004 35.6079 149.12640000000002 35.6079 C 150.70290000000003 35.6079 152.18500000000003 34.9941 153.29960000000003 33.8793 C 154.15744000000004 33.02174 155.54760000000002 33.02198 156.40540000000001 33.8793 C 157.26324000000002 34.737140000000004 157.26296000000002 36.1275 156.40540000000001 36.9851 C 154.4608 38.9294 151.87580000000003 40 149.1262 40 C 143.4498 40 138.8322 35.3824 138.8322 29.706 C 138.8322 24.029600000000002 143.4498 19.412 149.1262 19.412 z M 143.6476 27.509999999999998 L 154.6046 27.509999999999998 C 153.73168 25.339999999999996 151.6051 23.8041 149.1262 23.8041 C 146.64730000000003 23.8041 144.5206 25.34 143.64780000000002 27.509999999999998 z M 175.03900000000002 27.509999999999998 C 178.4824 27.509999999999998 181.28420000000003 30.3116 181.28420000000003 33.755199999999995 C 181.28420000000003 37.19879999999999 178.48260000000002 40.00039999999999 175.03900000000002 40.00039999999999 L 166.941 40.00039999999999 C 165.72820000000002 40.00039999999999 164.745 39.01711999999999 164.745 37.804399999999994 C 164.745 36.59168 165.72828 35.608399999999996 166.941 35.608399999999996 L 175.03900000000002 35.608399999999996 C 176.06070000000003 35.608399999999996 176.89190000000002 34.77719999999999 176.89190000000002 33.7555 C 176.89190000000002 32.7338 176.06070000000003 31.9026 175.03900000000002 31.9026 L 166.941 31.9026 C 163.4976 31.9026 160.6958 29.101 160.6958 25.6574 C 160.6958 22.2138 163.4974 19.4122 166.941 19.4122 L 175.03900000000002 19.4122 C 176.2518 19.4122 177.235 20.39548 177.235 21.6082 C 177.235 22.82092 176.25172 23.8042 175.03900000000002 23.8042 L 166.941 23.8042 C 165.9193 23.8042 165.0881 24.6354 165.0881 25.6571 C 165.0881 26.6788 165.9193 27.509999999999998 166.941 27.509999999999998 L 175.03900000000002 27.509999999999998 z M 194.50300000000001 27.509999999999998 C 197.9464 27.509999999999998 200.74820000000003 30.3116 200.74820000000003 33.755199999999995 C 200.74820000000003 37.19879999999999 197.94660000000002 40.00039999999999 194.50300000000001 40.00039999999999 L 186.405 40.00039999999999 C 185.1922 40.00039999999999 184.209 39.01711999999999 184.209 37.804399999999994 C 184.209 36.59168 185.19228 35.608399999999996 186.405 35.608399999999996 L 194.50300000000001 35.608399999999996 C 195.52470000000002 35.608399999999996 196.35590000000002 34.77719999999999 196.35590000000002 33.7555 C 196.35590000000002 32.7338 195.52470000000002 31.9026 194.50300000000001 31.9026 L 186.405 31.9026 C 182.9616 31.9026 180.1598 29.101 180.1598 25.6574 C 180.1598 22.2138 182.9614 19.4122 186.405 19.4122 L 194.50300000000001 19.4122 C 195.7158 19.4122 196.699 20.39548 196.699 21.6082 C 196.699 22.82092 195.71572 23.8042 194.50300000000001 23.8042 L 186.405 23.8042 C 185.3833 23.8042 184.5521 24.6354 184.5521 25.6571 C 184.5521 26.6788 185.3833 27.509999999999998 186.405 27.509999999999998 L 194.50300000000001 27.509999999999998 z" stroke-linecap="round" />
</g>
</g>
</g>
</svg>